<svg fill="#ffffff" xmlns="http://www.w3.org/2000/svg"  viewBox="0 0 48 48" width="24px" height="24px"><path d="M 23.945312 2.0019531 A 1.50015 1.50015 0 0 0 23.330078 2.1582031 L 9.3300781 9.1582031 A 1.50015 1.50015 0 0 0 8.6582031 9.8300781 L 2.1582031 22.830078 A 1.50015 1.50015 0 0 0 3.5 25 L 5.5 25 L 5.5 44.5 A 1.50015 1.50015 0 0 0 7 46 L 14 46 L 34 46 L 41 46 A 1.50015 1.50015 0 0 0 42.5 44.5 L 42.5 25 L 44.5 25 A 1.50015 1.50015 0 0 0 45.841797 22.830078 L 39.341797 9.8300781 A 1.50015 1.50015 0 0 0 38.669922 9.1582031 L 24.669922 2.1582031 A 1.50015 1.50015 0 0 0 23.945312 2.0019531 z M 24 5.1777344 L 36.882812 11.617188 L 42.074219 22 L 41 22 A 1.50015 1.50015 0 0 0 39.5 23.5 L 39.5 43 L 35.5 43 L 35.5 26.5 A 1.50015 1.50015 0 0 0 34 25 L 14 25 A 1.50015 1.50015 0 0 0 12.5 26.5 L 12.5 43 L 8.5 43 L 8.5 23.5 A 1.50015 1.50015 0 0 0 7 22 L 5.9257812 22 L 11.117188 11.617188 L 24 5.1777344 z M 20.5 11 A 1.50015 1.50015 0 0 0 19 12.5 L 19 19.5 A 1.50015 1.50015 0 0 0 20.5 21 L 27.5 21 A 1.50015 1.50015 0 0 0 29 19.5 L 29 12.5 A 1.50015 1.50015 0 0 0 27.5 11 L 20.5 11 z M 22 14 L 26 14 L 26 18 L 22 18 L 22 14 z M 17.910156 28 L 30.089844 28 L 24 33.480469 L 17.910156 28 z M 15.5 29.869141 L 21.757812 35.5 L 15.5 41.130859 L 15.5 29.869141 z M 32.5 29.869141 L 32.5 41.130859 L 26.242188 35.5 L 32.5 29.869141 z M 24 37.519531 L 30.089844 43 L 17.910156 43 L 24 37.519531 z"/></svg>
