<svg xmlns="http://www.w3.org/2000/svg" xmlns:xlink="http://www.w3.org/1999/xlink" width="599.788" height="187.217" viewBox="0 0 599.788 187.217">
  <defs>
    <clipPath id="clip-path">
      <path id="Pfad_8248" data-name="Pfad 8248" d="M75.551,62.16H0V-26.786H75.551Z" transform="translate(0 26.786)" fill="#aab082"/>
    </clipPath>
    <clipPath id="clip-path-2">
      <rect id="Rechteck_3283" data-name="Rechteck 3283" width="174.429" height="145.952" fill="#aab082"/>
    </clipPath>
    <clipPath id="clip-path-3">
      <rect id="Rechteck_3291" data-name="Rechteck 3291" width="75.859" height="187.217" fill="#aab082"/>
    </clipPath>
    <clipPath id="clip-path-4">
      <path id="Pfad_8527" data-name="Pfad 8527" d="M0,76.193H171.985V-20.681H0Z" transform="translate(0 20.681)" fill="#aab082"/>
    </clipPath>
  </defs>
  <g id="Gruppe_8657" data-name="Gruppe 8657" transform="translate(-1263.916 -7070.816)">
    <g id="Gruppe_8598" data-name="Gruppe 8598" transform="translate(1585.402 7153.833)">
      <g id="Gruppe_8412" data-name="Gruppe 8412" transform="translate(0 0)" clip-path="url(#clip-path)">
        <g id="Gruppe_8411" data-name="Gruppe 8411" transform="translate(-0.001 -0.002)">
          <path id="Pfad_8247" data-name="Pfad 8247" d="M-22.255,12.5a12.658,12.658,0,0,1,.74-1.647c.289-.488.541-1.059,1.172-1.252l.465-.179.027-.276-.677-.422a3.093,3.093,0,0,1-.837-.7,6.6,6.6,0,0,1-.618-1.471l.186-.531.143-.641a1.255,1.255,0,0,1,.222-1.348l.046-.139.136-.634a1.022,1.022,0,0,0-.116-1,.732.732,0,0,1-.063-.873l.468-.226L-20.8.985l-.156-.8.292-.408.458.186.555.574.166.06a.657.657,0,0,0,.438-.94,9.586,9.586,0,0,1-.322-.91c-.136-.657-.232-1.325-.325-1.989l.126-.3.3.027.654.362.442.4c.229.309.422.644.644.956l.249.146.106-.252a20.281,20.281,0,0,1-.007-2.733.822.822,0,0,1,.74-.747l.631.681a6.407,6.407,0,0,0,.907,2.268l.189.179.163-.236c.179-.6.349-1.205.521-1.81a1.272,1.272,0,0,1,.943-.81c.4-.13.667.332.515.883a3.663,3.663,0,0,0-.037,1.856l.262.083.143-.229a3.5,3.5,0,0,1,1.179-1.607l.657-.222.305.1-.037.5a2.083,2.083,0,0,0-.315,1.285l.3.149.667-.531a.862.862,0,0,1,1.249.352,11.731,11.731,0,0,0,.717,1.411.554.554,0,0,1-.066.707c-.322.405-.329.382.11.624s.907.481.99,1.019A2.918,2.918,0,0,1-6.95,3.316a2.222,2.222,0,0,1-1.3,1.056l-.239.362.624.5a9.49,9.49,0,0,1,3.6,1.74c.7.614,1.408,1.232,2.065,1.9a9.182,9.182,0,0,1,.933,1.255c.226.325.438.661.648,1,.3.485.6.973.89,1.471.163.272.305.555.448.84L.69,13.61l.027.359c.4.687.817,1.365,1.219,2.049.442.754.877,1.511,1.3,2.271.1.176.325.375.043.6l.06.209a9.217,9.217,0,0,0,.6.86,6.963,6.963,0,0,0,1.332,1.448,13.116,13.116,0,0,0,2.255,1,5.862,5.862,0,0,0,.893.259c.445.1.9.169,1.345.269l.183.179.219.193c.661.133,1.318.279,1.986.362.731.09,1.464.13,2.2.159.309.013.618-.066.93-.08.472-.02.94,0,1.411-.037.568-.04,1.136-.139,1.707-.163.5-.02,1.006.05,1.508.043s1.016-.083,1.521-.066c.667.023,1.325.123,1.989.173.624.043,1.259.02,1.876.1,1.278.166,2.544.428,3.822.565a6.69,6.69,0,0,0,2.009-.09c.92-.179,1.816-.481,2.72-.75a2.436,2.436,0,0,0,.8-.372,4.644,4.644,0,0,1,2.1-.95,6.773,6.773,0,0,0,1.85-.807c.382-.193.754-.425,1.149-.588a6.633,6.633,0,0,0,2.308-1.332l.428-.349c.757-.495,1.514-.98,2.265-1.481l.329-.329a4.167,4.167,0,0,1,1.126-.86,6.889,6.889,0,0,1,1.8-.219,17.81,17.81,0,0,1,1.929-.027,3.72,3.72,0,0,1,1.172.236,12.21,12.21,0,0,1,1.378.734l.452.794c-.3.236-.438.714-.94.681l-.163.139-.189.282-.462.518.01.222,0,.558c-.239.339-.475.681-.7,1.029V21.6l.262.405-.156.511a8.689,8.689,0,0,1-.5,1.451c-.339.624-.787,1.189-1.185,1.78l-.083.189L49,25.93c.671-.116,1.335-.252,2.012-.339l.438.216-.027.216c-.4.624-.81,1.245-1.2,1.876a6.727,6.727,0,0,1-1.889,1.786l-.169.159.246.083c.545,0,1.089-.027,1.63-.007l.432.222-.066.445-.568.634c-.727.634-1.468,1.245-2.2,1.863l.531.425.076.355-.412.468-.628.528a4.094,4.094,0,0,1-1.461,1.056l-.442.521a.945.945,0,0,1-.535.78l-.614.219-.259.179.239.149c.877.528,1.079,1.019.481,1.684a3.509,3.509,0,0,1-1.926.837,8.944,8.944,0,0,1-1.043.093l-.1.173.242.674c.076.312.259.674-.226.85l-.017.176c.246.422.528.824.741,1.259l.149.82c-.229.521-.814.551-1.292.7l-.7.149-.066.176c.286.588.584,1.162.867,1.75l-.173.475c-.325.13-.644.272-.98.375a.918.918,0,0,0-.75.963c-.027.382-.106.764-.153,1.149l-.017.594-.08.565-.232.634a2.509,2.509,0,0,1-.4,1.016l-.389.667a3.64,3.64,0,0,1-.85,1.733l-.651.651-.511.2-.262.083L35.3,56.4l-.262.216c-.1.495-.2.588-.7.621L34.1,57.4l-.418.345c-.226.09-.684,0-.515.511l-.053.086a1.326,1.326,0,0,1-1.009.584l-.222.236-.1.256a1.106,1.106,0,0,1-.707.475c-.511.163-.774.628-1.109,1a2,2,0,0,0-.5,1.053l-.259.6a1.411,1.411,0,0,0-.239,1.222,7.374,7.374,0,0,1,.193.963c.1.654.173,1.315.289,1.966.063.369.2.727.292,1.092.139.545.266,1.092.4,1.637l.13.5.166.744.12.329a11.547,11.547,0,0,0,.272,1.282c.222.651.511,1.282.77,1.919l.322.757a20.311,20.311,0,0,0,1.136,1.786,4.023,4.023,0,0,0,1.016.983,20.135,20.135,0,0,0,1.886.963l.286.08.511.252-.136.355-.5.13a4.119,4.119,0,0,1-1.614.611l-.468-.1-.6-.561a5.066,5.066,0,0,0-.85-.558l-.458.306.153.8c.037.531.415,1.046,0,1.61a.97.97,0,0,1-.81.521l-.3.06a14.8,14.8,0,0,0-1.607.89,3.025,3.025,0,0,1-1.76.468,4.11,4.11,0,0,1-1.534-.156,5.335,5.335,0,0,0-1.388-.209l-.674.13-.432.206-.385-.053-.023-.425a2.086,2.086,0,0,1,1.252-1.242l.369-.213-.342-.126-.076-.04a1.36,1.36,0,0,0-1.132-.179,4.256,4.256,0,0,1-1.039.139,12.9,12.9,0,0,1-1.826-.139,7.922,7.922,0,0,1-1.444-.405,1.76,1.76,0,0,0-1.083-.213,2.186,2.186,0,0,0-1.1.731l-.213.1-.133-.222c.123-.342.309-.664.408-1.009A2.477,2.477,0,0,1,19.641,78.8a4.023,4.023,0,0,0,.86.149c.913.03,1.823.023,2.733.03a5.911,5.911,0,0,0,.97,0,9.932,9.932,0,0,1,2.308-.033,12.778,12.778,0,0,0,1.953-.03c.276-.02.6-.146.6-.508a11.294,11.294,0,0,0-.11-1.986,16.862,16.862,0,0,0-.6-1.919c-.153-.488-.269-1-.428-1.484-.256-.807-.535-1.607-.8-2.407a14.061,14.061,0,0,0-1.049-2.829l-.4-.757c-.392-.525-.8-1.033-1.232-1.518l-.621-.369a3.139,3.139,0,0,1-1.557-.405l-.767-.468c-.408-.385-.777-.817-1.156-1.242l-.279-.415a1.817,1.817,0,0,0-.7-1.026,8.775,8.775,0,0,0-.953-.651c-.246-.146-.481-.4-.827-.242l-.129-.037c-.418-.239-.857-.448-1.249-.727a2.99,2.99,0,0,0-1.272-.564l-.2.046c-.335.312-.638.661-1,.936A14.45,14.45,0,0,1,12.3,61.3a14.578,14.578,0,0,1-1.484.767c-.305.136-.621.422-.993.123l-.156.07c-.3.422-.588.847-.88,1.268C8.188,64.4,7.6,65.262,7,66.126c-.236.339-.5.661-.714,1.013-.369.628-.714,1.275-1.059,1.916-.352.657-.7,1.318-1.039,1.986-.232.455-.475.913-.667,1.388a5.159,5.159,0,0,0-.468,1.488,2.751,2.751,0,0,0,.714,1.956c.239.286.535.528.767.817a2.211,2.211,0,0,0,.843.684l.342.571-.153.12-.329-.03c-.408-.033-.814-.083-1.225-.1a2.018,2.018,0,0,1-1.454-.385,5.37,5.37,0,0,1-.641-.83c-.242-.352-.415-.372-.7-.05-.266.305-.508.628-.78.92l-.677.594a16.388,16.388,0,0,1-1.7.458,3.549,3.549,0,0,1-1.229.046,18.035,18.035,0,0,0-2.2-.03,7.7,7.7,0,0,0-.85.252l-.452-.139.037-.495c.415-.315.814-.648,1.2-.956-.355-.086-.76-.156-1.146-.286a7.261,7.261,0,0,0-2.311-.309,15.107,15.107,0,0,1-2.975-.106,2.979,2.979,0,0,1-1.448-.548,1.044,1.044,0,0,0-1.275.169l-.292.07-.166-.415.495-.6a3.137,3.137,0,0,1,1.5-.827c.355-.033.711-.07,1.063-.1l.711-.033c.82.149,1.63.375,2.457.488a7.39,7.39,0,0,0,1.428-.06c.614-.027,1.232-.086,1.846-.08a12.11,12.11,0,0,1,1.8.139,1.01,1.01,0,0,0,1.046-.545l.339-.6.408-.521c.249-.289.5-.571.754-.86.478-.551.99-1.083,1.415-1.674.465-.634.843-1.332,1.268-1.992.75-1.172,1.511-2.331,2.261-3.5.432-.674.9-1.328,1.268-2.039a13.325,13.325,0,0,0,.7-1.873l-.106-.4c-.3-.2-.634-.345-.953-.518l-.219-.189A6.82,6.82,0,0,0,3.742,59a4.32,4.32,0,0,1-.86-2.046c-.163-.6-.372-1.185-.551-1.783l.02-.312.159-.777c.023-.465-.013-.936.017-1.4a.616.616,0,0,0-.362-.628c-.481-.256-.963-.5-1.454-.737-.289-.136-.594-.226-.887-.355-.418-.186-.824-.4-1.239-.581-.574-.256-1.166-.468-1.727-.744a20,20,0,0,1-1.943-1.066,10.239,10.239,0,0,1-1.126-.96l-.468-.415q-.433-.618-.807-1.282c-.206-.365-.362-.757-.551-1.132-.315-.628-.628-1.255-.963-1.87s-.671-1.212-1.026-1.806c-.222-.379-.485-.731-.721-1.106s-.442-.74-.671-1.109l-.481-.724a9.855,9.855,0,0,0-1.318-2.494l-.176-.216a8.115,8.115,0,0,1-.973-1.511c-.382-1.013-.641-2.069-.93-3.115-.143-.5-.252-1.009-.362-1.518-.086-.382.076-.824-.279-1.146l-.027-.186.03-.77c.136-1,.252-1.992.438-2.979.126-.667.352-1.315.528-1.949l-.91-.09a5.025,5.025,0,0,1-1.312-.89,4.623,4.623,0,0,1-1.2-2.378,15.681,15.681,0,0,0-.445-1.843,3.293,3.293,0,0,1-.04-2.185,12.471,12.471,0,0,1,.7-1.5l.083-.2-.229-.017c-.634.213-1.262.445-1.9.651l-.555.08c-.349.1-.681.242-1.033.309l-.611-.073-.219-.558a5.831,5.831,0,0,1,.382-1.1m8.647-3.968c.412-.007.578-.252.638-1a.784.784,0,0,0-.87-.717c-.584.023-.893.2-.88.508.05.857.4,1.219,1.112,1.209" transform="translate(22.637 5.387)" fill="#aab082"/>
        </g>
      </g>
    </g>
    <g id="Gruppe_8599" data-name="Gruppe 8599" transform="translate(1376.207 7110.098)">
      <g id="Gruppe_8488" data-name="Gruppe 8488" transform="translate(0)" clip-path="url(#clip-path-2)">
        <path id="Pfad_8314" data-name="Pfad 8314" d="M188.022,102.576l-.008,0,.017.019a.169.169,0,0,0-.008-.023" transform="translate(-15.561 -8.49)" fill="#aab082"/>
        <path id="Pfad_8315" data-name="Pfad 8315" d="M188.142,102.716c-.035-.039-.07-.078-.11-.116.018.048.036.1.053.151.022-.013.039-.022.057-.035" transform="translate(-15.562 -8.492)" fill="#aab082"/>
        <path id="Pfad_8316" data-name="Pfad 8316" d="M174.222,89.9a5.788,5.788,0,0,0-1.3-2.582c-.824-1.105-1.564-2.266-2.336-3.406-.866-1.279-1.789-2.526-2.573-3.856a15.711,15.711,0,0,1-1.2-2.747c-.516-1.446-.967-2.911-1.425-4.376-.322-1.023-.629-2.05-.9-3.085-.447-1.712-.912-3.423-1.261-5.152-.255-1.265-.364-2.56-.494-3.847-.134-1.357-.273-2.721-.3-4.082-.043-1.694.407-3.406-.287-5.06-.4-.945-.775-1.894-1.2-2.83-.312-.689-.662-1.365-1.031-2.027a14.279,14.279,0,0,0-1.357-2.258,21.793,21.793,0,0,0-2.2-2.132c-1.165-1.066-2.347-2.114-3.521-3.171a27.023,27.023,0,0,0-2.32-2.037c-1.272-.9-2.629-1.684-3.954-2.517A8.731,8.731,0,0,0,145.3,34c-.8-.322-1.65-.546-2.465-.846a11.15,11.15,0,0,0-1.542-.662,27.506,27.506,0,0,0-3.57-.5c-1.105-.071-2.228.022-3.341.051-.255.009-.506.065-.759.078a24.631,24.631,0,0,0-3.206.165c-2.47.449-4.917,1.026-7.37,1.564-1.413.307-2.821.642-4.234.957-1.775.4-3.552.828-5.341,1.2a23.67,23.67,0,0,1-3.289.542c-1.508.1-3.024.014-4.537.056-1.412.043-2.82.139-4.228.234-.792.057-1.577.157-2.369.248-.764.082-1.53.186-2.3.264-.407.043-.824.047-1.235.07-1.3.061-2.613.181-3.922.155-1.251-.026-2.5-.2-3.752-.329s-2.538-.229-3.786-.468c-1.546-.294-3.063-.745-4.6-1.074q-2.471-.534-4.961-.957a12.453,12.453,0,0,0-3.032-.323c-1.934.165-3.852.5-5.767.825a7.431,7.431,0,0,1-3.354-.4c-1.226-.364-1.737-1.63-2.361-2.561-.482-.72-.833-1.166-1.668-1.231-.145-.009-.373-.165-.391-.282-.126-.831-.3-.975-1.191-1.079-.391-.049-.992-.143-1.1-.39-.264-.612-.706-.668-1.231-.763a1.9,1.9,0,0,1-.918-.385,2.037,2.037,0,0,0-2.222-.628.782.782,0,0,1-.7-.107c-.451-.577-.94-.447-1.482-.217a1.353,1.353,0,0,1-.571.155,4.964,4.964,0,0,1-2.92-1.542,1.966,1.966,0,0,0-1.889-.693,3.67,3.67,0,0,1-2.222-.438,18.25,18.25,0,0,1-1.846-1.538c-.667-.471-1.43-.81-2.136-1.234a1.9,1.9,0,0,0-1.646-.1,1.659,1.659,0,0,1-2.122-.9c-.269-.49-.69-.928-1.239-.7a7.634,7.634,0,0,0-2.014,1.231c-.793.69-.772.741-1.136-.277a1.369,1.369,0,0,1-.1-.4c-.03-1.009-.025-2.023-.09-3.029-.039-.546-.283-1.077-.286-1.621-.017-1.906.029-3.812.048-5.723,0-.632.009-1.269-.035-1.9-.056-.806-.243-1.613-.221-2.41a9.684,9.684,0,0,1,.385-2.123c.226-.867.547-1.7.776-2.569.148-.54-.226-1.4-.6-1.386a5.485,5.485,0,0,0-2.288.29,29.76,29.76,0,0,0-3.276,2.257.616.616,0,0,0-.172.191c-.434.767-1.161,1.3-1.43,2.228a31.464,31.464,0,0,1-1.379,3.092c-.618,1.474-1.225,2.959-1.78,4.464a10.432,10.432,0,0,0-.892,4.383,8.38,8.38,0,0,1-.121,1.5.864.864,0,0,1-.125.26.928.928,0,0,1-.227-.186c-.22-.329-.406-.69-.653-.992-.755-.918-1.479-1.867-2.315-2.708-.809-.815-1.945-.49-2.95-.6a3.979,3.979,0,0,1-1.494-.292,20.949,20.949,0,0,1-2.769-1.9,7.365,7.365,0,0,0-5.563-1.647c-.239.023-.477.036-.715.036-.144,0-.382-.1-.421-.043-.256.357-.732.827-.645,1.1a5.863,5.863,0,0,0,1.113,1.87,2.158,2.158,0,0,1,.55,1.5,3.625,3.625,0,0,0,.78,2.653,13.84,13.84,0,0,1,.9,1.118,21.666,21.666,0,0,0,1.888,2.46A28.78,28.78,0,0,0,7.9,23.038a6.028,6.028,0,0,1,.867.87c.744.88,1.538,1.729,2.189,2.673a23.218,23.218,0,0,1,1.381,2.574,1.564,1.564,0,0,1-.169,1.9,22.447,22.447,0,0,0-2.049,3.137c-.84,1.529-2.015,2.886-2.444,4.64-.329,1.357-.815,2.678-1.058,4.047-.334,1.85-.42,3.743-.758,5.593-.447,2.444-1.018,4.867-1.577,7.288C4.027,56.851,3.7,57.929,3.368,59c-.494,1.559-1.075,3.1-1.529,4.671a20.242,20.242,0,0,0-.884,5.555,8.046,8.046,0,0,0,.234,2.089c.338,1.256.849,2.465,1.182,3.722a4.471,4.471,0,0,0,1.391,2.2c1.04.958,2.1,1.885,3.153,2.825a3.95,3.95,0,0,0,3.2.364c.062-.035.1-.1.166-.13.646-.386,1.291-.775,1.945-1.148.226-.129.429-.194.373.238-.083.642.333,1.027.939,1.2a3.877,3.877,0,0,0,1.846-.152,4.651,4.651,0,0,0,2.621-1.243,3.741,3.741,0,0,1,.542-.394c.676-.455,1.373-.88,2.014-1.382a9.147,9.147,0,0,0,.949-1.07c.411-.452.866-.867,1.247-1.34.811-1,1.543-2.071,2.391-3.042a6.992,6.992,0,0,1,1.435-1c.546-.355,1.091-.705,1.646-1.044a21.33,21.33,0,0,0,2.725-1.668,10.632,10.632,0,0,0,2.791-3.634c.558-1.2.962-1.244,1.928-.322a.7.7,0,0,0,.107.113c1.27.971,2.064,2.461,3.588,3.163.97.443,1.876,1.027,2.812,1.544.823.454,1.679.852,2.469,1.36,1.148.741,2.235,1.568,3.366,2.335,1,.676,2.037,1.3,3.024,1.985C52.714,75.958,54.4,77.1,56,78.358a9.094,9.094,0,0,1,3.3,3.97c.363,1.022.783,2.023,1.169,3.041.191.5.325,1.018.55,1.5.494,1.069,1.088,2.1,1.529,3.188.625,1.542,1.148,3.129,1.712,4.7a4.35,4.35,0,0,1,.291.883c.229,1.6.489,3.208.627,4.818a18.307,18.307,0,0,1-.017,3.242c-.082.9-.4,1.777-.533,2.673-.174,1.17-.329,2.353-.394,3.531-.069,1.374.009,2.752-.052,4.124a14.74,14.74,0,0,1-.368,3.22c-.36,1.3-1.127,2.495-1.435,3.8a7.709,7.709,0,0,1-2.513,3.764,5.683,5.683,0,0,0-1.5,2.31c-.169.5-.269,1.031-.463,1.525a33.387,33.387,0,0,0-1.313,3.163,5.958,5.958,0,0,0-.625,2.734,1.676,1.676,0,0,0,1.43,1.386c.316.009.684-.182.949-.083a2.713,2.713,0,0,0,2.088,0,.677.677,0,0,1,.2-.013c1.331-.077,2.669-.085,3.986-.26a9.342,9.342,0,0,0,2.422-.732,2.031,2.031,0,0,0,1.136-1.516,11.476,11.476,0,0,0,.134-6.075,1.5,1.5,0,0,1,.161-.936c.221-.515.568-.983.767-1.508.4-1.058.711-2.154,1.11-3.215.589-1.551,1.222-3.085,1.845-4.623a1.039,1.039,0,0,1,.221-.26c.064.109.186.216.191.329.073,1.516.173,3.033.173,4.549,0,1.759-.091,3.519-.148,5.278-.039,1.152-.065,2.305-.156,3.452a3.4,3.4,0,0,1-.382,1.335,19.61,19.61,0,0,1-1.382,2.176,3.338,3.338,0,0,1-.866.788,6.233,6.233,0,0,0-2.062,2.37c-.507.98-.94,1.989-1.422,2.976S65,141.7,64.958,142.9c0,.186-1.286,1.733-.1,2.213a12.257,12.257,0,0,0,3.821.825,20.961,20.961,0,0,0,2.543-.117c.226-.01.446-.005.672-.005a8.027,8.027,0,0,0,2.288-.034A8.23,8.23,0,0,0,78,143.51a4.711,4.711,0,0,0,1.126-2.717,5.9,5.9,0,0,1,.183-1.066c.294-.974.693-1.92.918-2.907A2.48,2.48,0,0,1,81,135.356c.311-.26.827-.36,1.009-.672a25.883,25.883,0,0,0,1.721-3.444,7.808,7.808,0,0,0,.311-2.24,8.09,8.09,0,0,0,0-2.291,14.46,14.46,0,0,1,.213-7.527c.585-1.984,1.226-3.951,1.729-5.957a9.754,9.754,0,0,0,.446-4.029c-.225-1.322-.5-2.638-.706-3.964-.091-.572-.065-1.161-.107-1.746-.074-1.066-.243-2.135-.226-3.2a13.49,13.49,0,0,1,.918-4.948c.173-.428.325-.863.5-1.287q.8-1.93,1.628-3.851a.923.923,0,0,1,.277-.326c.2-.155.438-.263.629-.433a2.617,2.617,0,0,1,2.269-.329A21.618,21.618,0,0,0,93.978,90.2q2,.674,4.048,1.166a25.162,25.162,0,0,0,3.206.537c1.9.2,3.813.356,5.719.49.611.043,1.231-.017,1.846-.034.1-.006.2-.023.3-.032,1.083-.094,2.166-.185,3.245-.285,1.047-.1,2.1-.15,3.131-.329,1.147-.2,2.272-.5,3.4-.788,1.656-.42,3.332-.793,4.957-1.308a18.9,18.9,0,0,0,5.029-2.818c.366-.255.664-.277.855.2.442,1.1.884,2.2,1.335,3.3.411,1,.849,1.989,1.252,2.995a10.9,10.9,0,0,1,.767,2.141,30.809,30.809,0,0,1,.446,4.142c.053,1.546-.029,3.1-.117,4.648-.078,1.353-.212,2.7-.385,4.048q-.305,2.327-.728,4.639a4.889,4.889,0,0,1-1.4,3.142A5.862,5.862,0,0,0,129.139,118a12.527,12.527,0,0,1-.9,1.327,8.694,8.694,0,0,0-1.409,2.486c-.135.551-.3,1.092-.471,1.635-.161.519-.378,1.017-.511,1.542a1.6,1.6,0,0,0,1.157,1.906,13.4,13.4,0,0,0,1.967.248,15.339,15.339,0,0,0,5.623-.853,2.522,2.522,0,0,0,1.811-1.313c.373-.923.651-1.885,1-2.816a2.247,2.247,0,0,1,.493-.746c.229-.229.55-.364.783-.589.538-.525,1.183-1.006,1.2-1.859a8.72,8.72,0,0,0-.1-1.7,3.044,3.044,0,0,1,.426-2.027c.432-.841.918-1.659,1.354-2.5a4.188,4.188,0,0,0,.417-1.057c.4-1.872.875-3.735,1.135-5.629a14.723,14.723,0,0,1,1.782-4.294,9.9,9.9,0,0,0,.974-2.907c.216-1.681-.749-3.15-1.148-4.727-.247-.989-.52-1.967-.771-2.951a.722.722,0,0,1,.031-.282c.108.043.25.057.311.13.5.671,1.014,1.331,1.465,2.032.477.733.845,1.542,1.339,2.262.845,1.231.845,2.665,1.066,4.047s.338,2.761.593,4.125c.2,1.07.568,2.115.819,3.18.5,2.111.022,4.19-.261,6.266-.16,1.183-.415,2.348-.605,3.522-.226,1.4-.338,2.812-.668,4.177a3.413,3.413,0,0,1-1.417,2.149,11.885,11.885,0,0,0-1.945,1.742,4.4,4.4,0,0,0-.983,1.429c-.586,1.621-1.074,3.272-1.6,4.914a1.073,1.073,0,0,0,.646,1.49,3.939,3.939,0,0,0,.793.113c.868.173,1.73.4,2.6.538a9.787,9.787,0,0,0,4.784-.572,3.44,3.44,0,0,1,1.854-.316,1.349,1.349,0,0,0,1.408-.971c.243-.659.515-1.309.762-1.967a.978.978,0,0,0,.087-.45c-.126-1.158-.285-2.314-.407-3.475a1.535,1.535,0,0,1,.061-.858,9.429,9.429,0,0,1,1.5-2.106,4.126,4.126,0,0,0,1.309-2.305c.238-1.161.4-2.339.559-3.519a4.786,4.786,0,0,0,.082-1.585,11.613,11.613,0,0,1,.281-4.3c.252-1.565.715-3.09.99-4.649.22-1.269.29-2.569.446-3.847.1-.849.216-1.7.355-2.54a10.147,10.147,0,0,1,.36-1.611c.342-1.006.762-1.989,1.114-3a1.687,1.687,0,0,0,.042-.85c-.159-.831-.354-1.655-.56-2.478a9.583,9.583,0,0,0-.556-1.806c-.329-.689-.862-1.282-1.183-1.977a11.23,11.23,0,0,1-.6-1.966,29.27,29.27,0,0,1-1.424-7.5c0-1.812-.2-3.622-.148-5.425.044-1.525.313-3.046.507-4.562.083-.646.226-1.287.342-1.928a2.671,2.671,0,0,1,.382.918c.335,1.578.572,3.186,1.01,4.732.447,1.568,1.118,3.071,1.646,4.618A31.982,31.982,0,0,1,162.12,80c.264,1.153.373,2.336.585,3.5.13.693.312,1.373.5,2.053.36,1.309.711,2.623,1.113,3.918.308,1,.94,1.9.827,3.015a12.379,12.379,0,0,0-.056,1.815c.009.26.122.647.313.741a.933.933,0,0,0,.78-.178,1.061,1.061,0,0,0,.342-.64c.082-.4.043-.837.148-1.231a5.865,5.865,0,0,0-.593-4c-.191-.442-.369-.889-.556-1.331.057-.029.113-.056.169-.082a13.2,13.2,0,0,0,.8,1.36,9.011,9.011,0,0,1,1.712,3.319c.485,2.045.889,4.139.1,6.225a1.174,1.174,0,0,0-.056.463c.022.43.468.768.788.52a2.436,2.436,0,0,0,.918-1.169,17.17,17.17,0,0,0,.309-2.453c.15.187.337.607.546.62a2.051,2.051,0,0,0,1.178-.329.761.761,0,0,0,.26-1.053,1.511,1.511,0,0,1-.088-.762c0-.083.183-.147.292-.226-.243-1.06-.477-2.127-.72-3.193a5.955,5.955,0,0,1,.759,1.018c.139.278.03.676.16.962a1.7,1.7,0,0,0,.7.837c.165.077.606-.235.793-.478a1.553,1.553,0,0,0,.281-.918,22.229,22.229,0,0,0-.206-2.413" transform="translate(0 0)" fill="#aab082"/>
      </g>
    </g>
    <g id="Gruppe_8600" data-name="Gruppe 8600" transform="translate(1263.916 7070.816)">
      <g id="Gruppe_8502" data-name="Gruppe 8502" transform="translate(0)" clip-path="url(#clip-path-3)">
        <path id="Pfad_8352" data-name="Pfad 8352" d="M75.792,95.311,75.55,91l-.786-14.433-.222-4.495a27.248,27.248,0,0,0-.262-3.649,23.843,23.843,0,0,0-.746-2.519l-1.31-4.8-2.339-8.547-1.512-5.564a20.568,20.568,0,0,0-1.814-4.837c-2.479-4.213-7.3-6.229-11.309-8.607-1.592-.947-3.144-2.036-4.656-3.124-.262-.182-.343-.665-.423-.968l-.726-2.983c1.512-1.532,1.834-4.032,1.814-6.108,1.29.322,5.342,1.491,6.491.826a.888.888,0,0,0,.2-.161c.06-.685-.182-.887-.625-1.411a26.8,26.8,0,0,0-4.394-4.152c-.141-.1-.121-.04-.1-.262a33.8,33.8,0,0,0-.061-7.277A9.582,9.582,0,0,0,51.6,3.776a4.673,4.673,0,0,0-2.762-1.854c-1.532-.3-3,.544-4.455.222C42.895,1.8,41.746.43,40.294.047a3.534,3.534,0,0,0-1.028-.02A4.141,4.141,0,0,0,38.3.572,13.648,13.648,0,0,0,36.4,2.95L32.735,8.373a8.432,8.432,0,0,1-.847,1.149A5.1,5.1,0,0,1,30.9,9.8c-1.23.363-7.821,1.693-8.184,2.58a1.32,1.32,0,0,0-.02.686,5.266,5.266,0,0,0,2.237.665l4.5.665c.04,1.089.242,2.137.322,3.205a16.669,16.669,0,0,1-.141,1.733,4.9,4.9,0,0,0,.3,1.774c-.625.827-1.512,1.754-1.31,2.883a1.384,1.384,0,0,0,.645.786l.726.343-.04.161c-.383,1.854-.282,4.858.806,6.471a5.306,5.306,0,0,0,2.721,1.612,39.961,39.961,0,0,0-4.817,2.661c-.524.343-.968.826-1.472,1.209A13.592,13.592,0,0,0,25.5,38.629,17.021,17.021,0,0,0,21.951,44.8c-1.854,5.422-3.164,11.066-4.717,16.589-.464,1.673-.887,3.427-1.451,5.06a23.183,23.183,0,0,1-1.29,2.661l-2.54,4.878-4.5,8.809a34.869,34.869,0,0,0-1.895,3.789,2.9,2.9,0,0,0-.141,1.31,10.406,10.406,0,0,1,.343,1.29,5.8,5.8,0,0,1-.5.484,20.124,20.124,0,0,1-2.3,1.855A7.678,7.678,0,0,0,.826,101.1a2.323,2.323,0,0,0,1.189,1.21,2.561,2.561,0,0,0,1.673-.3,16.056,16.056,0,0,1,2.459-.363l2.379,3.245a5.077,5.077,0,0,1,1.129,2.036l.645,5.927,1.834,15.461,4.274,34.166,2.8,23.1c.061.443.02,1.149.4,1.431a3.009,3.009,0,0,0,1.935.1,1.442,1.442,0,0,0,.907-.585,5.3,5.3,0,0,0-.08-1.593l-.3-2.419-1.794-14.332-3.326-27.031-2.983-25.156-.826-7.357c-.1-.968-.141-1.976-.3-2.923a4.81,4.81,0,0,0-.907-1.814c-.343-.524-2.338-2.983-2.338-3.386,1.713-1.875,2.479-4.435,3.306-6.773a4.547,4.547,0,0,0,3.285.282,2.213,2.213,0,0,0,.847-.705,37.2,37.2,0,0,0,2.48-4.253l5.6-9.756a7.071,7.071,0,0,1,1.008-1.613l-.887,13.868L24.975,95.9a16.641,16.641,0,0,0-.06,3,4.194,4.194,0,0,0,.645,1.754,4.143,4.143,0,0,1,.565.847,6.565,6.565,0,0,1-.121,1.23l-.242,3.024-1.351,15.521c-.141,1.935-.424,3.911-.424,5.846a13.686,13.686,0,0,0,.827,3.568l.846,3.749,3.447,15.945,1.209,5.725c.3,1.311,1.351,6.854,1.935,7.5a2.612,2.612,0,0,0,.847.524,6.975,6.975,0,0,1-.968,1.491,15.033,15.033,0,0,1-3.83,3.487c-2.056,1.33-5.483,2.278-5.624,5.261a3.748,3.748,0,0,0,.121,1.492c1.089,1.028,6.712.947,8.325.907a15.713,15.713,0,0,0,7.478-1.754c1.633-.928,3.124-2.036,4.818-2.862l.645.665a27.35,27.35,0,0,0,2.741-1.169A7.479,7.479,0,0,0,48.6,170.64c.363-2.943.262-6.249-1.209-8.909-.161-.262-.665-.907-.524-1.149a3.792,3.792,0,0,0,.6-1.975,25.754,25.754,0,0,0-.544-3.891l-1.169-6.43c-.887-4.656-1.613-9.394-2.822-13.989a24.6,24.6,0,0,0-.927-2.923,11.139,11.139,0,0,1-.806-1.895c-.141-.705,2.016-7.418,2.3-8.426l.928,8.869c.141,1.31.2,2.661.423,3.971l1.492,7.217,2.036,10.4,2.52,13.364c.262,1.693.282,3.467.484,5.181l.322,2.237a3.305,3.305,0,0,1,.161.847,2.259,2.259,0,0,1-.323.565,21.2,21.2,0,0,1-1.532,2.258,17.549,17.549,0,0,1-3.2,3.145c-1.25.927-3.024,1.552-3.991,2.781a4.769,4.769,0,0,0-.806,1.673,3.73,3.73,0,0,0-.262,1.23.723.723,0,0,0,.343.585,8.245,8.245,0,0,0,1.653.766,17.966,17.966,0,0,0,9.676.705,14.782,14.782,0,0,0,4.7-1.532,24.193,24.193,0,0,0,2.6-1.935c.363-.282,1.693-1.351,2.1-1.25.161.161.161.222.4.222a6.074,6.074,0,0,0,2.116-.887,8.267,8.267,0,0,0,1.754-.968,28.144,28.144,0,0,0-.1-6.894,11.566,11.566,0,0,0-.5-2.036,5.273,5.273,0,0,1-.262-.806,5.177,5.177,0,0,1,.423-.665,3.627,3.627,0,0,0,.484-1.472,22.188,22.188,0,0,0-.02-3.064l-.242-4.374a207.8,207.8,0,0,0-2.62-21.79,29.7,29.7,0,0,0-1.471-5.745,19.661,19.661,0,0,0-.907-1.855,3.223,3.223,0,0,1-.322-.645,7.269,7.269,0,0,1,.262-1.593l.685-4.132,2-14.09a13.7,13.7,0,0,0,1.814-.625,10.471,10.471,0,0,1,1.27-.6c.6-.161,1.008.02,1.653-.3l.141-.08a9.2,9.2,0,0,0,1.471-1.028c.766-.585,1.855-1.249,2.2-2.217a9,9,0,0,0,.3-2.56l.1-4.233a6.323,6.323,0,0,1,.1-1.532c.02-.04.564-.282.624-.322.383-.182,1.492-.6,1.633-.988a4.875,4.875,0,0,0,0-1.532" transform="translate(0 0)" fill="#aab082"/>
      </g>
    </g>
    <g id="Gruppe_8601" data-name="Gruppe 8601" transform="translate(1691.719 7149.546)">
      <g id="Gruppe_8532" data-name="Gruppe 8532" transform="translate(0 0)" clip-path="url(#clip-path-4)">
        <g id="Gruppe_8526" data-name="Gruppe 8526" transform="translate(0 0.002)">
          <path id="Pfad_8521" data-name="Pfad 8521" d="M135.25,3.949a6.321,6.321,0,0,0-.824-3.616,3.736,3.736,0,0,0-1.747-1.405l-1.213.623L131,.825c-.1,1.082-.08,2.178-.183,3.26a5.327,5.327,0,0,1-.45,1.461l-.323.183-.2-.272a8.789,8.789,0,0,0-.623-1.55,5.423,5.423,0,0,0-2.459-2.253,4.021,4.021,0,0,0-3.115.08c-.6.253-1.251.314-1.644.923a6.829,6.829,0,0,0-1.18,3.368c-.108,2.117,1.045,3.485,2.618,4.6.646.45.642.717-.033,1.232l-.562.393-.5-.047A25.042,25.042,0,0,0,117.857,8.3c-1.1-.815-2.375-1.372-3.5-2.159a31.768,31.768,0,0,0-5.5-2.895,13,13,0,0,0-3.19-.707c-1.906-.3-3.813-.586-5.729-.773a17.883,17.883,0,0,0-3.359.052c-1.855.173-3.71.393-5.546.712-2.5.431-4.979.974-7.471,1.452-.632.122-3.555,1.288-5.059,1.494-1.466.206-2.956.29-4.431.464-1.785.2-3.555.44-5.331.646-.909.1-1.817.178-2.736.234-.942.056-1.883.108-2.82.1-1.209-.009-2.412-.1-3.616-.136l-1.152.037c-1.714-.037-3.434-.169-5.143-.1a13.333,13.333,0,0,1-2.6-.112c-.7-.117-1.415-.239-2.117-.3C47.4,6.2,46.231,6.085,45.07,6.043c-1.312-.037-2.628,0-3.944.019-1.073.014-2.145.07-3.213.07l-1.143-.211c-2.857-.6-5.757-.351-8.647-.37a39.734,39.734,0,0,0-4.694.436c-1.152.136-2.3.248-3.429.5-1,.211-1.963.618-2.942.923-.492.141-.988.239-1.48.361-1.068.267-2.127.6-3.209.787a6.684,6.684,0,0,1-2.094-.047,11.577,11.577,0,0,0-6.314.946C2.354,10.1.729,10.737-.9,11.332a7.26,7.26,0,0,1-1.747.393,14.48,14.48,0,0,0-4.843,1.78l-1.19.586-.787-.248c-.333-.642-.745-1.237-1.105-1.869a5.971,5.971,0,0,0-2.853-2.436c-.881-.422-1.766-.848-2.633-1.288l-.459-.347-1.2-.571a1.3,1.3,0,0,0-.927,1.349c-.023,1.073.028,2.155.056,3.227l.037.211.122.511-.515-.29-1-.942a.849.849,0,0,0-1.387.665,8.766,8.766,0,0,0,.126,2.473c.164.806.571,1.569.8,2.361a15.435,15.435,0,0,1,.239,1.625,2.951,2.951,0,0,0,1.888,2.544l.895.81-.131.379a11.409,11.409,0,0,0-2.3,3.026l-.408,1.026a1.942,1.942,0,0,1-.909,1.232,16.18,16.18,0,0,0-2.806,2.328,13.964,13.964,0,0,1-4.619,3.368c-1.288.506-2.576.988-3.855,1.5a1.968,1.968,0,0,1-1.686-.679,1.572,1.572,0,0,0-2.066-.431.989.989,0,0,0-.5,1.194c.347,1.016.829,1.991,1.223,3a16.471,16.471,0,0,1,.628,1.963,7.4,7.4,0,0,0,1.5,2.946c.885,1.082.9,1.04,2.23.534a1.067,1.067,0,0,1,1.372.492,1.18,1.18,0,0,0,1.433.7,1.057,1.057,0,0,1,1.12.436c3.452,7.1,10.4,3.85,14.76,5.551,23.248,9.045,33.127,9.49,37.272,8.544.052.581.136,1.157.183,1.743L25,61.579c-.328,1.981-.693,3.953-.988,5.935-.122.838-.08,1.705-.141,2.558a16.515,16.515,0,0,1-.286,2.651,4.778,4.778,0,0,1-.876,1.682c-1.33,1.785-2.684,3.56-4.071,5.284a18.957,18.957,0,0,1-1.911,1.967L16.641,82.7a1.78,1.78,0,0,1,.637,1.757c-.141.74.506,1.012.913,1.166a10.5,10.5,0,0,0,2.651.59,16.385,16.385,0,0,0,2.876-.061l.7-.5a8.319,8.319,0,0,0,.974-1.457c.431-.9.782-1.86,1.166-2.8l.145-.459.225.023c-.052.96-.075,1.916-.169,2.871-.047.478.164.993.646.965l.932-.623c.393-1.237.665-2.529,1-3.794a21.269,21.269,0,0,1,.712-2.291l.8-1.209c.45-.693.895-1.4,1.34-2.108a6.584,6.584,0,0,1,.309,4.263,17.049,17.049,0,0,0-.838,3.869,8.75,8.75,0,0,1-1.775,4.67,38.633,38.633,0,0,0-2.206,3.373l.07,1.129.183,1.082a1.475,1.475,0,0,0,1.494,2.01,27.36,27.36,0,0,0,4.258-.478,12.5,12.5,0,0,0,2.633-1.251l.623-.389a1.277,1.277,0,0,0,.726-1.654,7.053,7.053,0,0,1-.089-1.916l.164-1.246.211,0c.122.876.262,1.752.356,2.633a11.187,11.187,0,0,0,.108,1.747l.838.895c.454.187.773-.136.96-.651.253-.721.679-1.377.946-2.1a10.1,10.1,0,0,0,.684-2.277,10.69,10.69,0,0,0-.009-2.707C41.6,83.97,41.2,82.171,41,80.353A9.2,9.2,0,0,1,41.65,76.2c.426-1.209.632-2.487.951-3.733.37-1.49.773-2.97,1.1-4.473.211-.984.3-2,.454-2.993.183-1.148-.379-.473-.052-1.574.253.281.492.543.749.834,2.056,2.319,4.361,2.511,7.04,2.637a12.654,12.654,0,0,0,5.612,1.021,22.48,22.48,0,0,1,4.862.857c4.141.792,8.984-.042,13.2-.042,1.621,0-3.195-.009-1.574,0,1.874.009,8.169-.749,9.729-.815a15.382,15.382,0,0,0,5.555-1.63c.951-.422,2.028-.843,3.11-1.293a7.488,7.488,0,0,1-.037,1.883,48.491,48.491,0,0,1-.66,5.246,9.3,9.3,0,0,1-2.811,5.19,8.614,8.614,0,0,0-2.628,3.19c-.408,1.021-.909,2-1.34,3.021a.848.848,0,0,0,.665,1.105l.679.023.379.478c-.136.52.342.614.656.754a6.212,6.212,0,0,0,2.946.548,3.712,3.712,0,0,0,3.035-1.817c.379-.581.623-1.255.946-1.874l.59-.895,0,.445c-.595.618-.1,1.143.164,1.639l.726.239.431-.384c.4-.768.773-1.532,1.12-2.319l.281-1.068.033-.586a36.044,36.044,0,0,1,.534-4.356,10.607,10.607,0,0,1,1.241-3.719,15.653,15.653,0,0,0,1.288-2.567,23.789,23.789,0,0,0,1.532-3.775,6.993,6.993,0,0,0-.225-2.572c-.136-.946-.169.169-.183-.778a4.927,4.927,0,0,1,.623-1.808l.4.084c.248.956.187-.136.436.82l.375,1.091c.141,1.358.215,2.731.319,4.085l.136.675c.445,1.4.848,2.811,1.358,4.178a7.346,7.346,0,0,1,.009,3.621c-.169,1.4-.351,2.8-.487,4.2-.089.895-.061,1.808-.159,2.712l-.412,1.176a15.8,15.8,0,0,0-1.888,3.518c-.707,1.508-1.162,3.209-2.483,4.375-.393.347-.248,1.129.2,1.775l.1.623c-.337.913-.028,1.26.815,1.705a13.638,13.638,0,0,0,2.572.843l.45.08a21.817,21.817,0,0,0,2.464-.29,2.467,2.467,0,0,0,1.855-1.555c.365-.895.651-1.822.979-2.722.15-.431.337-.843.571-1.405.253,1.12.44,2.061.7,2.974l.539.946,1.04-.806a7.705,7.705,0,0,0,.361-1.724c.173-.815.389-1.621.525-2.44a8.143,8.143,0,0,0-.014-2.974,10.005,10.005,0,0,1,.042-2.642,19.1,19.1,0,0,1,.3-2.422c.459-2.2.9-4.417,1.485-6.577a17.893,17.893,0,0,1,1.326-2.956,6.756,6.756,0,0,0,.876-2.445c.1-1.677.478-3.354.511-5.031a52.564,52.564,0,0,0-.272-5.495A4.122,4.122,0,0,1,118.691,55c.993-1.077,1.911-2.216,2.862-3.33.543-.637,1.073-1.288,1.611-1.935a31.35,31.35,0,0,0,4.047-5.429c.581-1.143,1.307-2.216,1.888-3.368a15.023,15.023,0,0,0,1.438-5.27c.117-1.026.445-2.038.492-3.059a27.2,27.2,0,0,0-.084-4.052,38.34,38.34,0,0,0-.778-5.021,13.455,13.455,0,0,0-1.251-2.693,16.574,16.574,0,0,0-.787-1.513l-.754-.932-.347-.651-.215-.529c-.675-.393-.159-.754.028-1.054l.848-1.063c.511-.848.951-1.724,1.424-2.581l.155-.2a23.892,23.892,0,0,1,2.693-1.522A3.67,3.67,0,0,0,133.8,9.046a14,14,0,0,0,1.452-5.1M27.939,81l.009-.042.037,0L28,81ZM126.008,7.214l-.155.4c-.426-.272-.862-.543-1.33-.838l.525-.96.5.215Z" transform="translate(36.711 1.072)" fill="#aab082"/>
        </g>
        <g id="Gruppe_8527" data-name="Gruppe 8527" transform="translate(23.757 47.236)">
          <path id="Pfad_8522" data-name="Pfad 8522" d="M0,1.365c2.576-.159,5.78,2.52,7.378,4.445a12.979,12.979,0,0,0,2.993,3.115c1.358.89,2.534,1.967,3.832,2.984a29.583,29.583,0,0,0,5.874,3.26c.618.3,1.148.895,1.738,1.157.82.361,1.724.459,2.534.82,2.3,1.016,5.434,1.171,8.057,1.41,1.789.164,3.682-.019,5.481-.019h0c.689,0,2.881.468,3.429.009.6-.5.22-1.335.183-2.056a25.924,25.924,0,0,1,.932-7.752c.281-1.049.675-1.878.117-2.9-1.733-3.19-7.424-2.914-10.375-3.349C27.136,1.749,21.931.007,16.863-.34a17.353,17.353,0,0,0-4.937.473C10.469.433,8.919.1,7.518.494a20.543,20.543,0,0,1-5.846.529" transform="translate(0 0.37)" fill="#aab082"/>
        </g>
        <g id="Gruppe_8528" data-name="Gruppe 8528" transform="translate(61.617 54.079)">
          <path id="Pfad_8523" data-name="Pfad 8523" d="M0,8.614s35.235,22.2,75.42,2.96C80.662,9.5,90.56-2.338,90.56-2.338Z" transform="translate(0 2.338)" fill="#aab082"/>
        </g>
        <g id="Gruppe_8529" data-name="Gruppe 8529" transform="translate(136.099 26.713)">
          <path id="Pfad_8524" data-name="Pfad 8524" d="M0,32.589c2.96-.023,6.244-.1,8.928-1.2A16.2,16.2,0,0,0,11.27,30.2a15.692,15.692,0,0,0,1.878-1.162,4.136,4.136,0,0,1,1.035-.59,13.885,13.885,0,0,1,2.22-1.077c.651-.2,1.105-.571,1.719-.8.45-.164.9-.323,1.358-.468a3.955,3.955,0,0,0,1.387-.735c.642-.464,1.391-.679,2.033-1.18,1.668-1.288,6.506-2.183,8.286-12.024-.075-.023.44-1.382.576-2.2A13.941,13.941,0,0,0,32.293,7.3c0-.913,0-1.827,0-2.736,0-1.279-.29-7.218-.515-9.036a12.049,12.049,0,0,0-2.75-4.277,4.25,4.25,0,0,0-1.461-.061,1.361,1.361,0,0,0-.436-.014c-.145.108-.29.215-.44.323A39.243,39.243,0,0,1,23.3-6.37c-3.743,2.408-6.23,5.555-8.947,8.848C12.516,4.708,10.3,6.807,8.9,9.327c-1.335,2.408-1.663,5.546-2.164,8.16-.365,1.906-.642,3.832-.909,5.752a18.349,18.349,0,0,1-.244,1.878A12.87,12.87,0,0,1,3.6,28.71a24.457,24.457,0,0,1-1.813,2.136c-.276.342-.534.642-.8,1.026A2.278,2.278,0,0,1,0,32.828" transform="translate(0 8.846)" fill="#aab082"/>
        </g>
        <g id="Gruppe_8530" data-name="Gruppe 8530" transform="translate(14.724 21.712)">
          <path id="Pfad_8525" data-name="Pfad 8525" d="M.136,7.633c0-1.789-.557-4.928.333-6.5C.908.349,5.134-2.953,5.551-1.848" transform="translate(0.037 2.072)" fill="#aab082"/>
        </g>
        <g id="Gruppe_8531" data-name="Gruppe 8531" transform="translate(4.334 30.534)">
          <path id="Pfad_8526" data-name="Pfad 8526" d="M0,4.743A9.98,9.98,0,0,1,1.288,3.661c.5-.454,1.129-.693,1.7-1.138C3.635,2.012,3.907,1.2,4.6.719c.225-.155.543,0,.81-.15S5.968.1,6.23-.073A4.03,4.03,0,0,1,7.841-.682a9.811,9.811,0,0,0,1.11.019c.328-.084.515-.347.787-.431C11.073-1.52,13.72-1.37,13.27.681" transform="translate(0 1.287)" fill="#aab082"/>
        </g>
      </g>
    </g>
  </g>
</svg>
