<svg id="Gruppe_8740" data-name="Gruppe 8740" xmlns="http://www.w3.org/2000/svg" xmlns:xlink="http://www.w3.org/1999/xlink" width="294.313" height="200.098" viewBox="0 0 294.313 200.098">
  <defs>
    <clipPath id="clip-path">
      <rect id="Rechteck_3341" data-name="Rechteck 3341" width="294.313" height="200.098" fill="none"/>
    </clipPath>
    <clipPath id="clip-path-3">
      <rect id="Rechteck_3339" data-name="Rechteck 3339" width="82.19" height="131.991" transform="translate(212.123 0.698)" fill="none"/>
    </clipPath>
  </defs>
  <g id="Gruppe_8739" data-name="Gruppe 8739" clip-path="url(#clip-path)">
    <g id="Gruppe_8738" data-name="Gruppe 8738">
      <g id="Gruppe_8737" data-name="Gruppe 8737" clip-path="url(#clip-path)">
        <path id="Pfad_8712" data-name="Pfad 8712" d="M29.083,177.826H46.671a21.383,21.383,0,0,1-1.255,4.676,15.08,15.08,0,0,1-3.894,5.6,16.333,16.333,0,0,1-5.609,3.216,21.016,21.016,0,0,1-6.83,1.074,19.354,19.354,0,0,1-10.153-2.566,17.155,17.155,0,0,1-6.6-7.249A24.1,24.1,0,0,1,10,171.7a29.077,29.077,0,0,1,.573-5.9,20.189,20.189,0,0,1,1.717-5.023,18.408,18.408,0,0,1,2.824-4.1,16.553,16.553,0,0,1,3.817-3.108,17.649,17.649,0,0,1,4.732-1.916A22.7,22.7,0,0,1,29.234,151a20.914,20.914,0,0,1,7.787,1.338,16.728,16.728,0,0,1,5.533,3.453,10.184,10.184,0,0,1,2.862,4.56h10a16.037,16.037,0,0,0-2.632-6.709,21.174,21.174,0,0,0-5.421-5.44,25.21,25.21,0,0,0-7.9-3.609,38.79,38.79,0,0,0-10.3-1.26,35.754,35.754,0,0,0-8.054.881,29.522,29.522,0,0,0-7.1,2.566,24.942,24.942,0,0,0-5.84,4.182,25.351,25.351,0,0,0-4.429,5.672A27.186,27.186,0,0,0,.954,163.6,33.034,33.034,0,0,0,0,171.7a32.043,32.043,0,0,0,2.062,11.725,25.163,25.163,0,0,0,5.8,8.972,26.33,26.33,0,0,0,8.621,5.674,27.6,27.6,0,0,0,10.535,1.992,27.763,27.763,0,0,0,9.58-1.529,19.2,19.2,0,0,0,6.983-4.337,19.875,19.875,0,0,0,3.68-5.226l.06,10.1H56.1V170.623H29.083Z" fill="#fff"/>
        <path id="Pfad_8713" data-name="Pfad 8713" d="M82.368,161.725a9.745,9.745,0,0,0-4.139,3.632,17.716,17.716,0,0,0-1.985,4.666v-9.381h-8.5v38.481h8.5V182.05a16.675,16.675,0,0,1,1.344-6.884,10.635,10.635,0,0,1,3.825-4.643,10.379,10.379,0,0,1,5.877-1.645h3.683v-8.236H88a13.726,13.726,0,0,0-5.63,1.083" fill="#fff"/>
        <path id="Pfad_8714" data-name="Pfad 8714" d="M125.866,181.381a13.741,13.741,0,0,1-1.277,6.025,9.808,9.808,0,0,1-3.645,4.156,10.2,10.2,0,0,1-5.56,1.5,9.381,9.381,0,0,1-5.027-1.273,8,8,0,0,1-3.118-3.668,14.2,14.2,0,0,1-1.061-5.769V160.641H97.752V183.7a23.3,23.3,0,0,0,.956,7,13.733,13.733,0,0,0,2.833,5.124,12.039,12.039,0,0,0,4.6,3.186,16.534,16.534,0,0,0,6.127,1.085,16.339,16.339,0,0,0,8.816-2.358,13.515,13.515,0,0,0,4.781-5.733v7.116h8.425V160.641h-8.425Z" fill="#fff"/>
        <path id="Pfad_8715" data-name="Pfad 8715" d="M177.2,164.073a12.551,12.551,0,0,0-4.674-3.143,17.01,17.01,0,0,0-6.234-1.086,19.049,19.049,0,0,0-6.409,1.049,13.494,13.494,0,0,0-5.1,3.222,14.7,14.7,0,0,0-2.654,3.938v-7.234h-8.5V199.3h8.5v-20.74a12.909,12.909,0,0,1,1.38-6.026,10.218,10.218,0,0,1,3.9-4.155,10.923,10.923,0,0,1,5.7-1.5,9.863,9.863,0,0,1,5.205,1.275,8.368,8.368,0,0,1,3.221,3.667,13.625,13.625,0,0,1,1.134,5.842V199.3h8.426V176.32a23.229,23.229,0,0,0-.992-7.08,13.558,13.558,0,0,0-2.9-5.167" fill="#fff"/>
        <path id="Pfad_8716" data-name="Pfad 8716" d="M215.357,188.076a11.768,11.768,0,0,1-2.441,2.881,10.127,10.127,0,0,1-3.221,1.834,11.685,11.685,0,0,1-3.931.639,10.285,10.285,0,0,1-10.021-6.518,17.533,17.533,0,0,1-1.311-6.958,19.955,19.955,0,0,1,.461-4.418,12.307,12.307,0,0,1,1.453-3.667,11.381,11.381,0,0,1,2.336-2.81,9.75,9.75,0,0,1,3.151-1.8,11.681,11.681,0,0,1,3.931-.64,10.934,10.934,0,0,1,6.2,1.724,11.659,11.659,0,0,1,4.035,4.716,15.618,15.618,0,0,1,1.453,6.891,17.464,17.464,0,0,1-.531,4.38,13.678,13.678,0,0,1-1.56,3.742m3.116-42.638v21.44a13.1,13.1,0,0,0-2.8-3.582,14.869,14.869,0,0,0-5.205-2.919,20.328,20.328,0,0,0-6.3-.938,17.2,17.2,0,0,0-5.453.866,16.056,16.056,0,0,0-4.778,2.5,16.879,16.879,0,0,0-3.791,4.081,18.648,18.648,0,0,0-2.478,5.612,27.254,27.254,0,0,0-.849,7,24.14,24.14,0,0,0,2.338,11.046,16.254,16.254,0,0,0,15.011,9.323,19.583,19.583,0,0,0,6.234-.975,15.335,15.335,0,0,0,5.205-2.955,13.782,13.782,0,0,0,2.866-3.634V198.9h8.356V145.438Z" fill="#fff"/>
        <path id="Pfad_8717" data-name="Pfad 8717" d="M44.76,104.275a30.484,30.484,0,0,0-8.649-2.787L21.732,98.969a19.38,19.38,0,0,1-4.921-1.492,7.432,7.432,0,0,1-3-2.368,5.566,5.566,0,0,1-1-3.316,5.96,5.96,0,0,1,1.614-4.239,10.685,10.685,0,0,1,4.69-2.676,24.534,24.534,0,0,1,7.226-.956,22.511,22.511,0,0,1,7.344,1.035,10.741,10.741,0,0,1,4.616,2.9,8.951,8.951,0,0,1,2.112,4.317h9.764a14.326,14.326,0,0,0-1.807-6.031,15.955,15.955,0,0,0-4.5-5.006,21.032,21.032,0,0,0-7.226-3.322,39.306,39.306,0,0,0-9.995-1.146,40.519,40.519,0,0,0-9.921,1.113,23.647,23.647,0,0,0-7.457,3.166,14.821,14.821,0,0,0-4.729,4.965A12.589,12.589,0,0,0,2.895,92.25a13.616,13.616,0,0,0,1.423,6.49A12.014,12.014,0,0,0,8.2,103.091a20.987,20.987,0,0,0,5.611,2.676,52.056,52.056,0,0,0,6.614,1.6l13.532,2.447a14.52,14.52,0,0,1,4.728,1.445,6.919,6.919,0,0,1,2.69,2.487,6.388,6.388,0,0,1,.883,3.323A6.88,6.88,0,0,1,40.415,122a10.956,10.956,0,0,1-5.19,2.859,29.863,29.863,0,0,1-7.882.915,28.023,28.023,0,0,1-6.533-.686,16.074,16.074,0,0,1-4.885-1.983,11.126,11.126,0,0,1-3.267-3.094,10.973,10.973,0,0,1-1.69-4.01H1.2a15.625,15.625,0,0,0,1.959,6.686,17.254,17.254,0,0,0,4.961,5.456,24.5,24.5,0,0,0,8.034,3.7,41.386,41.386,0,0,0,11.112,1.341,46.5,46.5,0,0,0,10.458-1.072,23.38,23.38,0,0,0,7.8-3.206,15.1,15.1,0,0,0,4.922-5.266,14.606,14.606,0,0,0,1.729-7.183,13.317,13.317,0,0,0-1.921-7.294,14.117,14.117,0,0,0-5.5-4.887" fill="#fff"/>
        <path id="Pfad_8718" data-name="Pfad 8718" d="M118.119,93.288a14.926,14.926,0,0,0-7.613-1.863,18.223,18.223,0,0,0-6.336,1.086,12.609,12.609,0,0,0-5.02,3.378,14.57,14.57,0,0,0-2.419,3.9,11.265,11.265,0,0,0-1.909-3.819,11.505,11.505,0,0,0-4.56-3.418,15.439,15.439,0,0,0-5.951-1.123,18,18,0,0,0-5.8.934,12.285,12.285,0,0,0-4.867,3.025,14.7,14.7,0,0,0-2.474,3.571V92.434H61.9v39.894h9.274V109.817a12.609,12.609,0,0,1,1.277-5.78,9.862,9.862,0,0,1,3.436-3.921,8.8,8.8,0,0,1,4.871-1.4,7.328,7.328,0,0,1,5.833,2.445q2.127,2.443,2.125,7.491v23.673h9.273V109.817a13.3,13.3,0,0,1,1.2-5.78,9.307,9.307,0,0,1,3.361-3.921,8.931,8.931,0,0,1,4.946-1.4,8.183,8.183,0,0,1,4.327,1.087,7.024,7.024,0,0,1,2.745,3.3,13.941,13.941,0,0,1,.965,5.546v23.673h9.194V107.183a19.483,19.483,0,0,0-1.7-8.5,12.162,12.162,0,0,0-4.908-5.394" fill="#fff"/>
        <path id="Pfad_8719" data-name="Pfad 8719" d="M162.679,113.978a11.983,11.983,0,0,1-.929,4.7,11.189,11.189,0,0,1-2.7,3.878,12.758,12.758,0,0,1-4.134,2.6,14.13,14.13,0,0,1-5.216.927,9.711,9.711,0,0,1-5.795-1.508,4.933,4.933,0,0,1-2.086-4.232,4.656,4.656,0,0,1,1.7-3.8,9.718,9.718,0,0,1,4.792-1.864l9.581-1.471a31.33,31.33,0,0,0,3.9-.816l.891-.44Zm1.043-21.121a28.036,28.036,0,0,0-10.162-1.592,30.913,30.913,0,0,0-9.7,1.4,16.126,16.126,0,0,0-6.724,4.037,11.012,11.012,0,0,0-2.973,6.443h9.118a5.55,5.55,0,0,1,3.09-3.955,15.637,15.637,0,0,1,7.111-1.32,14.925,14.925,0,0,1,4.983.733,6.873,6.873,0,0,1,3.128,2.1,5.142,5.142,0,0,1,1.083,3.3v.082a3.594,3.594,0,0,1-.849,2.444,4.656,4.656,0,0,1-3.091,1.2l-11.823,1.555a24.742,24.742,0,0,0-8,2.249,12.276,12.276,0,0,0-4.83,4.08,10.353,10.353,0,0,0-1.623,5.855,10.5,10.5,0,0,0,3.825,8.576q3.825,3.147,10.471,3.147a23.3,23.3,0,0,0,7.3-1.087,15.073,15.073,0,0,0,9.081-7.862v7.938h8.732V105.394a14,14,0,0,0-2.05-7.8,12.427,12.427,0,0,0-6.1-4.737" fill="#fff"/>
        <path id="Pfad_8720" data-name="Pfad 8720" d="M196.986,93.432a10.535,10.535,0,0,0-4.521,3.765,17.958,17.958,0,0,0-2.164,4.839V92.309h-9.272V132.2H190.3V114.5a16.521,16.521,0,0,1,1.469-7.137,11.174,11.174,0,0,1,4.173-4.813,11.778,11.778,0,0,1,6.413-1.705h3.875V92.309h-3.1a15.679,15.679,0,0,0-6.144,1.123" fill="#fff"/>
        <path id="Pfad_8721" data-name="Pfad 8721" d="M232.829,100.214V93.3H221.547V82.515h-9.194V93.3H212.3v6.91h.055v21.961q0,5.277,3.165,8.148T224.1,133.2h8.732v-6.91h-5.563a5.812,5.812,0,0,1-4.134-1.471,5.548,5.548,0,0,1-1.585-4.27V100.214Z" fill="#fff"/>
        <g id="Gruppe_8736" data-name="Gruppe 8736" opacity="0.6">
          <g id="Gruppe_8735" data-name="Gruppe 8735">
            <g id="Gruppe_8734" data-name="Gruppe 8734" clip-path="url(#clip-path-3)">
              <path id="Pfad_8722" data-name="Pfad 8722" d="M294.313,132.689,294.191,62.3,231.579.7,212.123,22.842l50.751,50.751v59.1Z" fill="#fff"/>
            </g>
          </g>
        </g>
        <path id="Pfad_8723" data-name="Pfad 8723" d="M124.686,67.24h48.422L231.691.694,186.8,0Z" fill="#fff"/>
      </g>
    </g>
  </g>
</svg>
