<?xml version="1.0" encoding="UTF-8"?><svg id="Ebene_2" xmlns="http://www.w3.org/2000/svg" xmlns:xlink="http://www.w3.org/1999/xlink" viewBox="0 0 402.5 137.19"><defs><clipPath id="clippath"><rect width="402.5" height="137.19" style="fill:none; stroke-width:0px;"/></clipPath><clipPath id="clippath-1"><rect x="53.19" y="1.58" width="35.82" height="53.05" style="fill:none; stroke-width:0px;"/></clipPath><clipPath id="clippath-2"><rect x="53.19" y="1.58" width="35.82" height="53.05" style="fill:none; stroke-width:0px;"/></clipPath><clipPath id="clippath-3"><rect x="73" y="49.06" width="42.54" height="45.51" style="fill:none; stroke-width:0px;"/></clipPath><clipPath id="clippath-4"><rect x="73" y="49.06" width="42.54" height="45.51" style="fill:none; stroke-width:0px;"/></clipPath><clipPath id="clippath-5"><rect x="58.37" y="66.38" width="33.83" height="70.81" style="fill:none; stroke-width:0px;"/></clipPath><clipPath id="clippath-6"><rect x="58.37" y="66.38" width="33.83" height="70.81" style="fill:none; stroke-width:0px;"/></clipPath><clipPath id="clippath-7"><rect x="4.11" y="24.71" width="46.28" height="40.65" style="fill:none; stroke-width:0px;"/></clipPath><clipPath id="clippath-8"><rect x="4.11" y="24.71" width="46.28" height="40.65" style="fill:none; stroke-width:0px;"/></clipPath><clipPath id="clippath-9"><rect x="21.66" y="0" width="33.26" height="49.43" style="fill:none; stroke-width:0px;"/></clipPath><clipPath id="clippath-10"><rect x="21.66" y="0" width="33.26" height="49.43" style="fill:none; stroke-width:0px;"/></clipPath><clipPath id="clippath-11"><rect x="28.43" y="69.99" width="35.62" height="59.75" style="fill:none; stroke-width:0px;"/></clipPath><clipPath id="clippath-12"><rect x="28.43" y="69.99" width="35.62" height="59.75" style="fill:none; stroke-width:0px;"/></clipPath><clipPath id="clippath-13"><rect y="61.08" width="53.58" height="46.11" style="fill:none; stroke-width:0px;"/></clipPath><clipPath id="clippath-14"><rect y="61.08" width="53.58" height="46.11" style="fill:none; stroke-width:0px;"/></clipPath><clipPath id="clippath-15"><rect x="73.78" y="14" width="39.73" height="49.32" style="fill:none; stroke-width:0px;"/></clipPath><clipPath id="clippath-16"><rect x="73.78" y="14" width="39.73" height="49.32" style="fill:none; stroke-width:0px;"/></clipPath></defs><g id="Ebene_1-2"><g style="clip-path:url(#clippath);"><g style="isolation:isolate; opacity:.9;"><g style="clip-path:url(#clippath-1);"><g style="clip-path:url(#clippath-2);"><path d="M56.02,19.04c.82-4.07,2.1-8.15,3.72-10.24,1.16-1.63,4.89-6.98,11.4-7.21,1.28,0,12.33-.35,15.82,3.49.58.58,1.98,2.21,1.98,4.19.58,13.85-2.68,32-5.12,38.28-.47,1.28-.58,2.44-2.79,3.72-2.21,1.16-11.29,5-20.83,2.56-1.63-.46-3.61-2.33-4.77-4.54-1.16-2.21-1.63-3.49-2.09-6.28-.82-5.93,1.98-20.01,2.68-23.97" style="fill:#bfdce3; stroke-width:0px;"/></g></g></g><g style="isolation:isolate; opacity:.9;"><g style="clip-path:url(#clippath-3);"><g style="clip-path:url(#clippath-4);"><path d="M106.64,49.06c4.07,0,10.01,26.76,8.73,36.54-.46,3.61-1.16,6.05-2.44,7.21-1.05.93-3.84,1.86-6.17,1.75-9.89-.23-29.21-9.43-30.14-10.36-.93-.93-3.72-2.79-3.61-6.52.12-3.72.23-8.03.35-9.43.12-1.4.58-3.14,1.51-4.19s25.48-15.01,31.77-15.01" style="fill:#a8b498; stroke-width:0px;"/></g></g></g><g style="opacity:.9;"><g style="clip-path:url(#clippath-5);"><g style="clip-path:url(#clippath-6);"><path d="M69.17,66.4c6.28-.46,13.03,8.15,14.66,10.12,1.98,2.33,4.65,5.58,5.82,11.64,1.86,9.31,2.56,34.56,2.56,38.86,0,2.68-.12,5.7-2.09,6.98-1.98,1.16-6.17,2.44-7.21,2.79-1.05.35-3.03.47-3.49.35-.47-.12-2.44-.58-3.38-2.21-3.26-5.7-16.87-37.58-17.57-43.52-.23-1.98,0-4.65.58-6.63.58-1.86,3.72-8.49,3.72-8.49,0,0,3.14-8.73,6.4-9.89" style="fill:#9dbbc5; stroke-width:0px;"/></g></g></g><g style="opacity:.9;"><g style="clip-path:url(#clippath-7);"><g style="clip-path:url(#clippath-8);"><path d="M4.93,32.65c1.74,4.07,6.05,12.33,6.05,12.33,0,0,3.84,4.66,10.01,8.84,6.17,4.19,8.84,6.17,12.45,8.26,3.49,2.09,5.12,3.37,8.38,3.26,3.14-.12,6.52-1.16,7.8-3.26,1.28-1.98.93-6.28-.7-10.12-1.51-3.61-4.07-8.96-5.93-10.71-1.86-1.75-7.45-4.89-9.54-6.17-6.63-4.19-19.32-9.08-24.79-10.24-4.54-1.05-5.47,3.72-3.72,7.8" style="fill:#b4b1b9; stroke-width:0px;"/></g></g></g><g style="opacity:.9;"><g style="clip-path:url(#clippath-9);"><g style="clip-path:url(#clippath-10);"><path d="M26.35,6.94c-.93.58-3.96,2.56-4.65,6.86-.35,2.56,2.68,9.54,3.84,11.75,1.16,2.33,3.96,7.21,4.89,8.73,5.35,8.15,14.89,13.85,15.94,14.2,1.75.58,3.84,1.05,4.65.93.81-.12,3.26-2.21,3.61-3.61,1.28-5.93-1.98-24.32-2.09-25.48-.12-1.16-.47-3.96-.93-7.1-1.05-7.91-2.68-13.96-5.59-13.15-.58.23-15.24,3.96-19.67,6.87" style="fill:#b8c2aa; stroke-width:0px;"/></g></g></g><g style="opacity:.9;"><g style="clip-path:url(#clippath-11);"><g style="clip-path:url(#clippath-12);"><path d="M51.95,72.45c-.23.46-3.38,4.54-5.35,7.21-1.98,2.68-5.58,6.98-6.52,8.73-.93,1.74-8.84,14.08-10.01,18.62-.47,1.63-3.14,8.38-.47,12.45,1.63,2.44,6.17,6.87,14.08,9.78,1.86.7,5.59.58,9.08.23,6.98-.81,8.96-6.28,9.31-9.54.46-3.84.81-19.32,1.16-21.53.35-2.21.82-13.38.82-15.48,0-1.98-.82-7.21-1.98-8.73-1.16-1.51-1.98-2.56-3.38-3.49-3.02-2.21-6.52,1.4-6.75,1.74" style="fill:#a7c1bf; stroke-width:0px;"/></g></g></g><g style="opacity:.9;"><g style="clip-path:url(#clippath-13);"><g style="clip-path:url(#clippath-14);"><path d="M37.98,61.28c5.58,1.05,8.03,2.56,9.66,4.77,1.63,2.21,4.19,5.82,4.89,8.15.81,2.33,1.28,4.66.93,5.7s-1.51,3.26-3.84,5.35c-2.33,2.09-6.52,5-9.77,6.98-3.26,1.98-22.58,11.98-28.51,14.2-1.63.58-5.24,1.63-6.98-.58-1.63-2.21-6.63-27.11-3.14-32.46,3.84-6.05,28.98-13.61,36.77-12.1" style="fill:#bfd1d7; stroke-width:0px;"/></g></g></g><g style="opacity:.9;"><g style="clip-path:url(#clippath-15);"><g style="clip-path:url(#clippath-16);"><path d="M108.03,15.67c.58-.35,5.59-3.49,5.47-.12-.23,4.3-2.33,19.66-7.21,27.46-1.75,2.68-9.78,10.94-15.59,15.01-2.1,1.51-10.36,7.68-13.73,4.31-.93-.93-2.79-2.33-2.79-2.33,0,0-.7-.81-.23-2.09.46-1.4,8.96-21.88,9.66-22.81.7-.93,10.94-11.52,24.44-19.43" style="fill:#babbb4; stroke-width:0px;"/></g></g></g><path d="M328.94,78.24c-.07-.19-.14-.36-.19-.53-.47-1.52-1.01-3.03-1.54-4.5-.56-1.56-1.29-3.13-1.62-4.77-1.87-9.27-1.64-14.54-1.15-20.72.31-3.86,1.17-8.18,1.03-13.99.01-.38.06-.78.1-1.17.18-1.6.41-3.59-1.65-4.98l-.35-.24-.33.26c-1.23.96-1.65,2.24-2.07,3.47l-.2.58c-1.67,4.71-5.06,8.12-10.34,10.43-1.32.57-2.51.62-3.43.12-.96-.52-1.61-1.58-1.87-3.08-.04-.26-.05-.58-.05-.92,0-.81-.02-1.73-.61-2.29-.32-.31-.77-.45-1.31-.44-1.94.06-2.35,2.32-2.65,3.91-.23,1.24.06,2.5.87,3.87,1.12,1.87,2.76,3.11,4.76,3.58,2.41.57,5.18-.04,7.81-1.72,1.56-1,3.01-2.14,4.68-3.46.54-.43,1.1-.87,1.7-1.33,0,.45,0,.86-.01,1.26-.01,1.21-.02,2.16.01,3.14.14,3.71.14,6.76.15,9.46.01,8.53.02,13.67,4.5,24.85.07.17.12.36.19.56.23.74.52,1.66,1.29,2.04.21.1.44.16.69.16s.51-.05.79-.16c1.8-.68,1.14-2.44.78-3.39" style="fill:#0e67a1; stroke-width:0px;"/><path d="M222.79,62.57c-.37-.08-.74-.16-1.08-.26-2.35-.7-3.8-1.18-4.1-1.85-.3-.66.3-2.05,1.25-4.09l.12-.25c.25-.5.53-1.07.25-1.61-.25-.5-.82-.67-1.23-.75l-.15-.03-.14.04c-1.72.54-2.98,1.71-3.96,3.68-1.35,2.72-.1,4.91.96,6.32,1.53,2.02,3.86,2.48,5.74,2.85.64.13.82.23.84.48.02.29-.17.49-.73.78-.76.4-1.5.68-2.22.85-.24.06-.57.07-.91.08-.77.02-1.64.05-2.13.67-.31.39-.38.92-.23,1.6.25,1.16.92,1.71,1.43,1.96.39.19.84.29,1.33.29.68,0,1.43-.18,2.18-.54.27-.13.54-.24.82-.36.74-.32,1.51-.65,2.18-1.16.2-.15.4-.3.6-.46,1.56-1.15,3.49-2.59,3.08-5.17-.36-2.3-2.33-2.73-3.91-3.07" style="fill:#0e67a1; stroke-width:0px;"/><path d="M212.35,75.23c-.25-.02-.49-.04-.7-.1-.78-.22-1.7-.45-2.64-.47-.98-.02-1.61-.21-1.86-.57-.27-.38-.24-1.1.11-2.19,1.18-3.73.76-7.55-1.26-11.35-1.92-3.61-5.2-4.87-8.36-3.21-6.95,3.64-12.29,9.28-15.45,16.3-1.1,2.46-.95,4.93.42,6.79,1.49,2.02,4.15,3,7.15,2.62,1.08-.13,2.16-.35,3.2-.55.22-.04.45-.09.67-.13-.25.24-.49.47-.75.63-10.08,6.42-21.55,9.77-34.1,9.97-3.68.05-6.88-.77-9.76-2.51-8.64-5.25-12.48-16.41-9.34-27.14,4.35-14.85,13.02-27.4,25.79-37.29,7.01-5.43,14.9-7.56,23.45-6.32,7.16,1.04,13.25,2.51,15.34,10.07.13.46.3,1.08.84,1.35.32.16.68.15,1.08,0,1.1-.45,1.5-1.48,1.11-2.85-1.38-4.86-4.43-8.39-8.84-10.2-13.04-5.37-25.06-3.71-35.75,4.93-12.46,10.07-21.48,23.45-26.8,39.77-3.04,9.31-1.16,19.84,4.77,26.84,4.57,5.39,11.11,8.23,18.76,8.23,1.64,0,3.32-.13,5.05-.39,14.5-2.21,26.06-7.29,35.34-15.55,3.27-2.91,6.61-3.79,10.81-2.86,1.01.22,2.16.42,2.98-.15.48-.34.77-.88.87-1.63.07-.55-.03-.99-.29-1.33-.44-.56-1.18-.63-1.82-.69M186.03,74.42c2.7-5.99,6.77-10.5,12.1-13.39.66-.36,1.32-.54,1.96-.54.58,0,1.15.16,1.67.47,1.62.96,2.64,3.28,2.65,6.05.03,5.2-1.68,7.61-6.52,9.23l-1.01.34c-2.33.78-4.74,1.59-7.15,2.15-1.46.34-2.77,0-3.5-.89-.71-.86-.78-2.11-.19-3.41" style="fill:#0e67a1; stroke-width:0px;"/><path d="M244.79,44.21c-2.22.24-4.23,1.76-5.99,4.49-2.16,3.36-3.29,7.15-4.38,10.81-.25.82-.49,1.65-.75,2.47-.08.25-.12.53-.17.8-.14.87-.22,1.17-.94,1.22-1.35.09-1.9.72-2.12,1.24-.38.88-.02,1.94.48,2.55,2.43,3,2.29,6.33,2.14,9.86-.05,1.22-.1,2.49-.04,3.73.04.71.06,1.42.09,2.14.14,3.76.29,7.65,1.88,11.27l.22.52c.72,1.7,1.68,3.96,4.19,3.96.31,0,.64-.04,1-.11,3.45-.71,3.59-4,3.67-5.96.31-7.19-1.56-14.02-5.54-20.31-1.54-2.43-2.14-4.69-1.85-7.04.62,1.07,1.66,1.5,2.43,1.74,4.51,1.38,12.01-1.84,14.86-6.38,2.77-4.41,1.88-9.74-2.32-13.9-2.33-2.31-4.64-3.35-6.86-3.1M237.11,80.06c2.23,3.81,3.31,8,3.21,12.49-.02.91-.12,1.43-.58,1.54-.63.15-.92-.29-1.32-1.34-1.56-4.05-1.52-8.26-1.31-12.68M242.53,49.66c.34-.64.73-1.02,1.2-1.16.14-.04.3-.06.46-.06.48,0,1.05.18,1.71.54,3.45,1.86,5.63,5.86,4.86,8.91-.76,3.03-5.47,5.6-9.72,5.3-.29-.02-.6-.09-.9-.16-.89-.2-2.14-.48-3.01.56.54-4.73,2.78-8.96,4.95-13.06l.45-.85Z" style="fill:#0e67a1; stroke-width:0px;"/><path d="M295.91,33.75c-.2-.02-.4-.03-.59-.05-2.5-.28-4.58.26-6.03,1.56-1.47,1.31-2.25,3.36-2.25,5.93,0,1.9.2,3.82.41,5.68.11,1.01.22,2.02.3,3.08.07.98.03,1.42-.44,1.63-.47.21-.93-.08-1.61-.71-.72-.66-1.52-1.44-1.85-2.3-.86-2.23-2.19-4.2-3.47-6.1-.84-1.25-1.71-2.54-2.42-3.87-1.2-2.25-2.18-3.3-3.38-3.64-1.43-.4-3.03.28-4.99,1.42-4.65,2.71-8.19,6.74-10.83,12.34-1.62,3.44-1.22,6.65,1.11,8.78.95.87,1.96,1.2,2.97,1.2,1.65,0,3.31-.86,4.75-1.61l.33-.17c3.84-1.98,6.5-5.15,8.89-8.23.85-1.09,1.18-1.17,1.3-1.17.08.01.39.13.91,1.29.76,1.69,1.65,3.19,2.66,4.47,1.6,2.03,3.86,4.21,7.13,3.03,3.12-1.12,2.96-3.97,2.83-6.27l-.03-.53c-.05-1.07-.22-2.12-.38-3.15-.23-1.49-.45-2.9-.36-4.35.11-1.72.54-2.86,1.32-3.47.69-.55,1.69-.71,3.07-.49l.1.02.1-.02c.28-.05.68-.01,1.08.03.96.1,2.56.27,2.76-1.55.08-.73-.07-1.33-.44-1.78-.68-.82-1.88-.92-2.94-1M275.29,44.44c-2.73,3.56-5.75,7.2-10.11,9.25-1.29.6-1.96.57-2.66-.12-.6-.6-.68-1.26-.3-2.43,1.55-4.72,4.62-8.51,9.11-11.26.62-.38,1.23-.57,1.79-.57.4,0,.78.1,1.12.29.92.52,1.47,1.72,1.47,3.2-.04.17-.07.35-.1.54-.06.4-.13.85-.33,1.1h0Z" style="fill:#0e67a1; stroke-width:0px;"/><path d="M251.58,105.59v-18.34h5.85c1.13,0,2.1.11,2.91.33.81.22,1.48.54,2.01.95.52.41.91.91,1.16,1.51.25.59.38,1.26.38,2,0,.45-.07.89-.21,1.31-.14.42-.35.81-.64,1.17-.29.36-.64.68-1.08.96-.43.28-.93.51-1.52.69,1.34.26,2.35.75,3.03,1.45.68.7,1.02,1.62,1.02,2.77,0,.78-.14,1.48-.43,2.12-.29.64-.7,1.19-1.25,1.65-.55.46-1.23.82-2.02,1.07-.8.25-1.71.38-2.73.38h-6.49ZM254.06,95.46h3.28c.7,0,1.3-.08,1.82-.23.51-.15.94-.37,1.28-.64.34-.27.59-.6.75-.99.16-.39.24-.81.24-1.27,0-1.08-.33-1.86-.97-2.37-.65-.5-1.66-.76-3.02-.76h-3.37v6.26ZM254.06,97.23v6.39h3.97c.71,0,1.32-.08,1.83-.24.51-.16.92-.39,1.25-.69.33-.29.57-.64.72-1.05.15-.41.23-.85.23-1.34,0-.95-.34-1.7-1-2.25-.67-.55-1.68-.82-3.04-.82h-3.96Z" style="fill:#3c3c3b; stroke-width:0px;"/><path d="M273.17,92.42c.78,0,1.49.13,2.15.39.66.26,1.22.64,1.7,1.12.48.49.85,1.1,1.12,1.82.27.72.4,1.54.4,2.46,0,.36-.04.6-.11.72-.08.12-.22.18-.44.18h-8.63c.02.82.13,1.53.33,2.14.2.61.49,1.11.85,1.52.36.41.78.71,1.28.91.49.2,1.05.3,1.66.3.57,0,1.07-.07,1.48-.2.41-.13.77-.27,1.07-.43.3-.15.55-.3.75-.43.2-.13.37-.2.52-.2.19,0,.33.07.43.22l.64.83c-.28.34-.62.64-1.01.89-.39.25-.81.46-1.26.62-.45.16-.91.28-1.39.36-.48.08-.95.12-1.42.12-.89,0-1.72-.15-2.48-.45-.76-.3-1.41-.75-1.96-1.33-.55-.58-.98-1.31-1.29-2.17-.31-.86-.46-1.85-.46-2.97,0-.9.14-1.75.42-2.54.28-.78.68-1.46,1.2-2.04.52-.58,1.16-1.03,1.91-1.36.75-.33,1.6-.49,2.54-.49M273.23,94.09c-1.1,0-1.97.32-2.6.95-.63.64-1.02,1.52-1.18,2.64h7.05c0-.53-.07-1.01-.22-1.45-.15-.44-.36-.82-.64-1.14-.28-.32-.63-.57-1.03-.74-.41-.18-.87-.26-1.39-.26" style="fill:#3c3c3b; stroke-width:0px;"/><path d="M289.13,94.76c-.1.19-.26.28-.47.28-.13,0-.28-.05-.44-.14-.16-.09-.36-.2-.59-.31-.24-.12-.52-.22-.84-.32-.32-.1-.71-.15-1.15-.15-.38,0-.73.05-1.04.15-.31.1-.57.23-.79.4-.22.17-.38.37-.5.6-.11.23-.17.47-.17.74,0,.33.1.61.29.83.19.22.45.41.76.58.32.16.67.31,1.08.43.4.12.81.26,1.23.4.42.14.83.3,1.24.47.4.17.76.38,1.08.64.31.26.57.57.76.94.19.37.29.82.29,1.34,0,.6-.11,1.15-.32,1.66-.21.51-.53.95-.95,1.32-.42.37-.93.66-1.53.88-.61.21-1.31.32-2.1.32-.9,0-1.72-.15-2.46-.44-.73-.3-1.36-.67-1.87-1.13l.54-.87c.07-.11.15-.2.24-.26.09-.06.22-.09.37-.09s.32.06.48.18c.17.12.38.25.62.4.24.15.54.28.88.4.35.12.78.18,1.3.18.44,0,.83-.06,1.16-.17.33-.11.61-.27.83-.47.22-.2.39-.42.49-.68.11-.26.16-.53.16-.82,0-.36-.09-.66-.29-.89-.19-.23-.45-.44-.76-.6-.32-.17-.68-.31-1.08-.43-.41-.12-.82-.25-1.24-.39-.42-.14-.84-.29-1.24-.47-.41-.18-.77-.4-1.08-.66-.32-.26-.57-.59-.76-.98-.19-.39-.29-.86-.29-1.42,0-.49.1-.97.31-1.43.2-.46.5-.86.89-1.2.39-.35.88-.62,1.45-.83.57-.2,1.22-.31,1.96-.31.85,0,1.62.14,2.3.4.68.27,1.26.64,1.76,1.11l-.51.83Z" style="fill:#3c3c3b; stroke-width:0px;"/><path d="M297.01,105.79c-1.02,0-1.81-.29-2.36-.86-.55-.57-.83-1.4-.83-2.47v-7.94h-1.56c-.14,0-.25-.04-.34-.12-.1-.08-.14-.21-.14-.38v-.91l2.12-.27.52-4.01c.02-.13.07-.23.17-.31.09-.08.21-.12.36-.12h1.15v4.47h3.71v1.65h-3.71v7.78c0,.55.13.95.4,1.22.26.27.61.4,1.02.4.24,0,.45-.03.62-.09s.33-.14.45-.21c.13-.08.24-.15.33-.21.09-.06.17-.1.24-.1.12,0,.23.07.32.22l.67,1.09c-.39.37-.87.66-1.42.86-.56.21-1.13.31-1.72.31" style="fill:#3c3c3b; stroke-width:0px;"/><path d="M312.41,105.59h-1.01c-.22,0-.4-.03-.54-.1s-.23-.21-.27-.43l-.26-1.2c-.34.31-.67.58-1,.83-.32.24-.66.45-1.02.61-.36.17-.74.29-1.15.38-.41.08-.86.13-1.35.13s-.98-.07-1.42-.21c-.44-.14-.82-.35-1.14-.63-.33-.28-.58-.64-.78-1.07-.19-.43-.29-.94-.29-1.54,0-.51.14-1.01.42-1.48.28-.47.73-.9,1.36-1.26.63-.37,1.45-.67,2.46-.91,1.01-.24,2.26-.35,3.73-.35v-1.02c0-1.01-.22-1.78-.65-2.3-.43-.52-1.07-.78-1.91-.78-.56,0-1.02.07-1.4.21-.38.14-.71.3-.98.47-.28.17-.52.33-.72.47-.2.14-.4.21-.6.21-.15,0-.29-.04-.4-.12-.12-.08-.21-.18-.28-.3l-.41-.73c.72-.69,1.49-1.21,2.32-1.55.83-.34,1.74-.51,2.75-.51.72,0,1.37.12,1.93.36.56.24,1.04.57,1.42,1,.38.43.67.94.87,1.55.2.61.29,1.27.29,2v8.29ZM306.49,104.19c.4,0,.77-.04,1.1-.12.33-.08.65-.2.94-.35.29-.15.58-.33.84-.54.27-.21.53-.46.79-.73v-2.68c-1.05,0-1.94.07-2.68.2-.73.13-1.33.31-1.79.52-.46.21-.8.47-1,.76-.21.29-.31.62-.31.98s.05.64.17.89c.11.25.26.45.45.61.19.16.41.28.67.35.26.07.53.11.83.11" style="fill:#3c3c3b; stroke-width:0px;"/><path d="M320.05,105.79c-1.02,0-1.81-.29-2.36-.86-.55-.57-.82-1.4-.82-2.47v-7.94h-1.56c-.14,0-.25-.04-.34-.12-.09-.08-.14-.21-.14-.38v-.91l2.12-.27.52-4.01c.02-.13.07-.23.17-.31.09-.08.21-.12.36-.12h1.15v4.47h3.71v1.65h-3.71v7.78c0,.55.13.95.4,1.22.26.27.6.4,1.02.4.24,0,.45-.03.62-.09s.33-.14.45-.21c.13-.08.24-.15.33-.21.09-.06.17-.1.24-.1.12,0,.23.07.32.22l.67,1.09c-.39.37-.87.66-1.42.86-.56.21-1.13.31-1.72.31" style="fill:#3c3c3b; stroke-width:0px;"/><path d="M329.85,105.79c-1.02,0-1.81-.29-2.36-.86-.55-.57-.83-1.4-.83-2.47v-7.94h-1.56c-.14,0-.25-.04-.34-.12-.1-.08-.14-.21-.14-.38v-.91l2.12-.27.52-4.01c.02-.13.07-.23.17-.31.09-.08.21-.12.36-.12h1.15v4.47h3.71v1.65h-3.71v7.78c0,.55.13.95.4,1.22.26.27.61.4,1.02.4.24,0,.45-.03.62-.09s.33-.14.45-.21c.13-.08.24-.15.33-.21.09-.06.17-.1.24-.1.12,0,.23.07.32.22l.67,1.09c-.39.37-.87.66-1.42.86-.56.21-1.13.31-1.72.31" style="fill:#3c3c3b; stroke-width:0px;"/><path d="M337.7,92.62v8.27c0,.98.23,1.74.68,2.28.45.54,1.14.81,2.05.81.66,0,1.29-.16,1.88-.47.59-.32,1.13-.76,1.63-1.32v-9.56h2.28v12.97h-1.36c-.32,0-.53-.16-.61-.47l-.18-1.4c-.57.62-1.2,1.12-1.89,1.5-.7.38-1.5.57-2.41.57-.71,0-1.33-.12-1.88-.35-.54-.23-1-.57-1.36-.99-.37-.43-.64-.94-.83-1.55-.18-.6-.28-1.27-.28-2.01v-8.27h2.28Z" style="fill:#3c3c3b; stroke-width:0px;"/><path d="M350.21,105.59v-12.97h1.36c.32,0,.53.16.61.47l.18,1.41c.56-.62,1.19-1.13,1.89-1.51.7-.38,1.5-.58,2.41-.58.71,0,1.33.12,1.88.35.54.23.99.57,1.36,1,.36.43.64.95.82,1.56.19.61.28,1.28.28,2.01v8.26h-2.28v-8.26c0-.98-.22-1.74-.67-2.29-.45-.54-1.13-.81-2.05-.81-.67,0-1.3.16-1.89.49-.58.32-1.12.76-1.62,1.32v9.55h-2.28Z" style="fill:#3c3c3b; stroke-width:0px;"/><path d="M369.07,92.4c.56,0,1.09.06,1.58.19.49.12.94.31,1.34.54h3.52v.84c0,.28-.18.46-.54.54l-1.47.2c.29.56.43,1.17.43,1.86,0,.63-.12,1.21-.36,1.72-.24.52-.58.96-1.01,1.32-.43.37-.94.65-1.54.84-.59.2-1.24.29-1.95.29-.61,0-1.18-.07-1.72-.22-.27.18-.48.36-.62.57-.14.2-.21.4-.21.6,0,.32.12.56.37.72.25.16.58.28.99.35.41.07.87.11,1.4.11h1.59c.54,0,1.07.05,1.59.14.52.1.99.25,1.39.47.41.22.74.51.99.9.25.38.37.87.37,1.48,0,.56-.14,1.11-.42,1.63-.28.53-.68.99-1.2,1.4-.52.41-1.16.74-1.91.99-.75.25-1.6.37-2.55.37s-1.78-.09-2.49-.28c-.71-.19-1.3-.44-1.77-.76-.47-.32-.82-.68-1.06-1.1-.23-.41-.35-.85-.35-1.3,0-.64.2-1.19.61-1.63.4-.45.96-.8,1.67-1.07-.37-.17-.66-.4-.88-.68-.22-.29-.33-.67-.33-1.14,0-.19.03-.38.1-.58.07-.2.17-.4.31-.6.14-.19.31-.38.52-.56.21-.18.45-.34.72-.47-.64-.36-1.14-.83-1.5-1.43-.36-.59-.54-1.29-.54-2.08,0-.63.12-1.21.36-1.72.24-.52.58-.96,1.02-1.32.43-.36.95-.64,1.56-.84.6-.2,1.26-.29,1.98-.29M373.11,106.24c0-.33-.09-.6-.27-.8-.18-.2-.42-.35-.73-.46-.31-.11-.66-.19-1.06-.24-.4-.05-.82-.08-1.27-.08h-1.36c-.46,0-.9-.06-1.32-.17-.49.23-.88.51-1.18.85-.3.33-.45.73-.45,1.19,0,.29.08.56.22.81.15.25.38.47.68.65.31.18.69.33,1.16.43.46.11,1.01.16,1.65.16s1.16-.06,1.65-.17c.49-.11.9-.27,1.23-.48.34-.21.6-.46.77-.74.18-.29.27-.61.27-.95M369.07,99.25c.46,0,.87-.06,1.22-.19.35-.13.65-.31.89-.54.24-.23.42-.51.54-.83.12-.32.18-.67.18-1.05,0-.79-.24-1.43-.72-1.9-.48-.47-1.18-.7-2.11-.7s-1.61.24-2.09.7c-.48.47-.72,1.1-.72,1.9,0,.38.06.73.19,1.05.12.32.3.6.54.83.24.23.53.41.88.54.35.13.75.19,1.2.19" style="fill:#3c3c3b; stroke-width:0px;"/><path d="M383.17,92.42c.78,0,1.49.13,2.15.39.66.26,1.22.64,1.7,1.12.48.49.85,1.1,1.12,1.82.27.72.4,1.54.4,2.46,0,.36-.04.6-.11.72-.08.12-.22.18-.44.18h-8.63c.02.82.13,1.53.33,2.14.2.61.49,1.11.84,1.52.36.41.78.71,1.28.91.49.2,1.05.3,1.66.3.57,0,1.06-.07,1.48-.2.41-.13.77-.27,1.07-.43.3-.15.55-.3.75-.43.2-.13.38-.2.52-.2.19,0,.33.07.43.22l.64.83c-.28.34-.62.64-1.01.89-.39.25-.81.46-1.26.62-.45.16-.91.28-1.39.36-.48.08-.95.12-1.42.12-.9,0-1.72-.15-2.48-.45-.75-.3-1.41-.75-1.96-1.33-.55-.58-.98-1.31-1.29-2.17-.31-.86-.46-1.85-.46-2.97,0-.9.14-1.75.42-2.54.28-.78.68-1.46,1.2-2.04.52-.58,1.16-1.03,1.91-1.36.75-.33,1.6-.49,2.53-.49M383.22,94.09c-1.1,0-1.97.32-2.6.95-.63.64-1.02,1.52-1.18,2.64h7.05c0-.53-.07-1.01-.22-1.45-.14-.44-.36-.82-.64-1.14-.28-.32-.62-.57-1.03-.74-.4-.18-.87-.26-1.39-.26" style="fill:#3c3c3b; stroke-width:0px;"/><path d="M391.71,105.59v-12.97h1.36c.32,0,.53.16.61.47l.18,1.41c.56-.62,1.19-1.13,1.89-1.51.7-.38,1.5-.58,2.41-.58.71,0,1.33.12,1.88.35.54.23.99.57,1.36,1,.36.43.64.95.83,1.56.19.61.28,1.28.28,2.01v8.26h-2.28v-8.26c0-.98-.22-1.74-.67-2.29-.45-.54-1.13-.81-2.05-.81-.67,0-1.3.16-1.89.49-.59.32-1.12.76-1.62,1.32v9.55h-2.28Z" style="fill:#3c3c3b; stroke-width:0px;"/></g></g></svg>