<?xml version="1.0" encoding="UTF-8"?>
<svg id="Ebene_2" data-name="Ebene 2" xmlns="http://www.w3.org/2000/svg" viewBox="0 0 236.66 50.67">
  <defs>
    <style>
      .cls-1 {
        opacity: .6;
      }

      .cls-1, .cls-2 {
        fill: #2e8a87;
      }

      .cls-3 {
        fill: #41546a;
      }

      .cls-4 {
        fill: #122945;
      }
    </style>
  </defs>
  <g id="Ebene_1-2" data-name="Ebene 1">
    <g>
      <polygon class="cls-1" points="31.19 22.19 31.17 11.45 19.65 .13 16.08 4.2 25.41 13.53 25.41 22.19 31.19 22.19"/>
      <path class="cls-4" d="M149.62,20.79h7.74c-.13.75-.3,1.45-.55,2.06-.43,1.01-1,1.83-1.71,2.47-.72.63-1.54,1.1-2.47,1.42-.93.32-1.93.47-3.01.47-1.73,0-3.22-.38-4.47-1.13-1.25-.75-2.22-1.82-2.91-3.19-.68-1.37-1.02-2.97-1.02-4.79,0-.92.08-1.79.25-2.6s.42-1.55.76-2.21c.34-.66.75-1.27,1.24-1.8.49-.54,1.05-1,1.68-1.37.63-.37,1.32-.65,2.08-.84.76-.19,1.58-.29,2.45-.29,1.3,0,2.44.2,3.43.59.99.39,1.8.9,2.44,1.52.64.62,1.06,1.29,1.26,2.01h4.4c-.16-1.06-.54-2.04-1.16-2.95-.62-.91-1.41-1.71-2.39-2.39-.97-.69-2.13-1.22-3.48-1.59-1.34-.37-2.86-.55-4.54-.55-1.23,0-2.41.13-3.54.39-1.13.26-2.17.63-3.12,1.13-.95.5-1.81,1.11-2.57,1.84-.76.73-1.41,1.56-1.95,2.5-.54.93-.95,1.96-1.23,3.07-.28,1.12-.42,2.3-.42,3.56,0,1.89.3,3.61.91,5.16.6,1.55,1.46,2.87,2.55,3.95,1.1,1.08,2.36,1.91,3.79,2.5,1.43.59,2.98.88,4.64.88s3-.23,4.22-.67c1.22-.45,2.25-1.09,3.07-1.91.67-.66,1.19-1.44,1.62-2.3l.03,4.44h3.86v-12.52h-11.89v3.17Z"/>
      <path class="cls-4" d="M173.08,13.7c-.72.32-1.32.85-1.82,1.6-.36.53-.63,1.25-.87,2.05v-4.13h-3.74v16.94h3.74v-7.51c0-1.14.2-2.15.59-3.03.4-.88.96-1.56,1.68-2.04.73-.48,1.59-.72,2.59-.72h1.62v-3.63h-1.31c-.93,0-1.76.16-2.48.48"/>
      <path class="cls-4" d="M192.22,22.36c0,.99-.19,1.87-.56,2.65-.37.78-.91,1.39-1.6,1.83-.7.44-1.51.66-2.45.66-.87,0-1.61-.19-2.21-.56-.6-.37-1.06-.91-1.37-1.61-.31-.7-.47-1.55-.47-2.54v-9.56h-3.71v10.15c0,1.16.14,2.19.42,3.08.28.89.7,1.64,1.25,2.26.55.62,1.23,1.08,2.03,1.4.8.32,1.7.48,2.7.48,1.47,0,2.77-.35,3.88-1.04.91-.57,1.58-1.45,2.1-2.52v3.13h3.71V13.23h-3.71v9.13Z"/>
      <path class="cls-4" d="M214.82,14.74c-.56-.6-1.25-1.06-2.06-1.38-.81-.32-1.73-.48-2.74-.48s-1.96.16-2.82.46c-.86.31-1.61.78-2.24,1.42-.47.47-.84,1.07-1.17,1.73v-3.18h-3.74v16.94h3.74v-9.13c0-.99.2-1.87.61-2.65.41-.78.98-1.39,1.71-1.83.74-.44,1.57-.66,2.51-.66s1.68.19,2.29.56c.61.38,1.09.91,1.42,1.61.33.71.5,1.56.5,2.57v9.52h3.71v-10.12c0-1.17-.15-2.2-.44-3.12-.29-.91-.72-1.67-1.28-2.27"/>
      <path class="cls-4" d="M231.61,25.3c-.3.49-.66.92-1.07,1.27-.42.35-.89.62-1.42.81-.53.19-1.11.28-1.73.28-1.06,0-1.96-.25-2.71-.76-.75-.5-1.32-1.21-1.7-2.11-.38-.9-.58-1.92-.58-3.06,0-.7.07-1.35.2-1.94s.35-1.13.64-1.61c.29-.49.63-.9,1.03-1.24.4-.34.86-.6,1.39-.79.53-.19,1.11-.28,1.73-.28,1.06,0,1.97.25,2.73.76.76.51,1.35,1.2,1.78,2.08.43.88.64,1.89.64,3.03,0,.68-.08,1.32-.23,1.93-.16.6-.38,1.15-.69,1.65M232.99,6.54v9.44c-.34-.6-.73-1.14-1.23-1.58-.68-.58-1.44-1.01-2.29-1.28-.85-.28-1.78-.41-2.77-.41-.83,0-1.63.13-2.4.38-.77.25-1.47.62-2.1,1.1-.63.48-1.19,1.08-1.67,1.8-.48.71-.84,1.54-1.09,2.47-.25.94-.37,1.96-.37,3.08,0,1.89.34,3.51,1.03,4.86.69,1.35,1.6,2.37,2.76,3.07,1.15.69,2.44,1.04,3.85,1.04.98,0,1.89-.14,2.74-.43.85-.28,1.62-.72,2.29-1.3.51-.44.91-.99,1.26-1.6v2.9h3.68V6.54h-3.68Z"/>
      <path class="cls-2" d="M54.69,18.31c-1.01-.53-2.24-.92-3.67-1.18l-6.11-1.07c-.83-.15-1.52-.36-2.09-.63-.57-.27-.99-.6-1.27-1.01-.28-.4-.42-.87-.42-1.41,0-.71.23-1.31.69-1.8.46-.49,1.12-.86,1.99-1.14.87-.27,1.89-.41,3.07-.41,1.24,0,2.28.15,3.12.44s1.49.7,1.96,1.23c.47.53.77,1.14.9,1.83h4.15c-.07-.91-.32-1.76-.77-2.56-.45-.8-1.08-1.51-1.91-2.13-.83-.62-1.85-1.09-3.07-1.41-1.22-.32-2.63-.49-4.24-.49s-2.97.16-4.21.47c-1.24.31-2.3.76-3.17,1.34-.87.58-1.54,1.29-2.01,2.11-.47.82-.7,1.72-.7,2.69,0,1.08.2,2,.6,2.76.4.76.95,1.37,1.65,1.85.7.48,1.49.86,2.38,1.14.89.28,1.83.51,2.81.68l5.75,1.04c.83.13,1.5.33,2.01.61.51.28.89.63,1.14,1.06.25.42.38.89.38,1.41,0,.84-.26,1.54-.78,2.09-.52.55-1.26.96-2.2,1.21-.95.26-2.06.39-3.35.39-1.04,0-1.97-.1-2.77-.29-.81-.19-1.5-.48-2.07-.84-.58-.37-1.04-.81-1.39-1.31-.35-.51-.59-1.07-.72-1.7h-4.15c.07,1.02.34,1.96.83,2.84.49.88,1.19,1.65,2.11,2.32.91.67,2.05,1.19,3.41,1.57,1.36.38,2.93.57,4.72.57,1.65,0,3.13-.15,4.44-.46,1.31-.3,2.41-.76,3.31-1.36.9-.61,1.6-1.35,2.09-2.24.49-.89.73-1.9.73-3.05,0-1.21-.27-2.24-.82-3.1-.54-.85-1.32-1.54-2.33-2.08"/>
      <path class="cls-2" d="M85.84,13.64c-.91-.53-1.99-.79-3.23-.79-.96,0-1.86.16-2.69.46-.83.31-1.54.79-2.13,1.43-.42.47-.75,1.04-1.03,1.65-.19-.6-.43-1.15-.81-1.62-.53-.65-1.17-1.13-1.94-1.45-.77-.32-1.61-.48-2.53-.48-.85,0-1.67.13-2.46.4-.79.26-1.48.69-2.07,1.28-.41.41-.75.94-1.05,1.52v-2.77h-3.94v16.94h3.94v-9.56c0-.92.18-1.74.54-2.45.36-.71.85-1.27,1.46-1.66.61-.39,1.3-.59,2.07-.59,1.05,0,1.87.35,2.48,1.04.6.69.9,1.75.9,3.18v10.05h3.94v-9.56c0-.92.17-1.74.51-2.45.34-.71.81-1.27,1.43-1.66.61-.39,1.31-.59,2.1-.59.72,0,1.33.16,1.84.46.5.31.89.78,1.17,1.4.27.62.41,1.41.41,2.35v10.05h3.9v-10.68c0-1.41-.24-2.61-.72-3.61-.48-1-1.18-1.76-2.08-2.29"/>
      <path class="cls-2" d="M104.76,22.43c0,.71-.13,1.37-.39,1.99-.26.63-.64,1.17-1.15,1.65-.5.48-1.09.84-1.76,1.11-.67.26-1.41.39-2.21.39-1.05,0-1.87-.21-2.46-.64-.59-.43-.89-1.03-.89-1.8,0-.68.24-1.22.72-1.61.48-.39,1.16-.66,2.03-.79l4.07-.62c.7-.11,1.25-.23,1.66-.35l.38-.19v.86ZM105.21,13.46c-1.15-.45-2.59-.68-4.31-.68-1.55,0-2.93.2-4.12.59-1.19.4-2.14.97-2.85,1.71-.71.75-1.13,1.66-1.26,2.74h3.87c.15-.75.59-1.31,1.31-1.68.72-.38,1.73-.56,3.02-.56.83,0,1.54.1,2.12.31.58.21,1.02.51,1.33.89.31.39.46.85.46,1.4v.03c0,.42-.12.76-.36,1.04-.24.27-.68.44-1.31.51l-5.02.66c-1.36.18-2.49.49-3.4.95-.91.46-1.59,1.04-2.05,1.73-.46.69-.69,1.52-.69,2.49,0,1.54.54,2.75,1.62,3.64,1.08.89,2.56,1.34,4.45,1.34,1.14,0,2.17-.16,3.1-.46.93-.31,1.76-.8,2.49-1.47.54-.5.98-1.15,1.36-1.87v3.37h3.71v-11.37c0-1.32-.29-2.42-.87-3.31-.58-.89-1.44-1.56-2.59-2.01"/>
      <path class="cls-2" d="M119.33,13.7c-.75.32-1.39.85-1.92,1.6-.38.53-.67,1.25-.92,2.05v-4.13h-3.94v16.94h3.94v-7.51c0-1.14.21-2.15.62-3.03.42-.88,1.01-1.56,1.77-2.04.77-.48,1.67-.72,2.72-.72h1.65v-3.63h-1.32c-.98,0-1.85.16-2.61.48"/>
      <path class="cls-2" d="M134.55,16.58v-2.93h-4.79v-4.58h-3.9v4.58h-.02v2.93h.02v9.32c0,1.49.45,2.65,1.34,3.46.9.82,2.11,1.22,3.64,1.22h3.71v-2.93h-2.36c-.72,0-1.31-.21-1.76-.62-.45-.42-.67-1.02-.67-1.81v-8.63h4.79Z"/>
      <g>
        <path class="cls-3" d="M192.04,44.38h4.34v5.01c-.47.18-.99.32-1.56.43-.57.11-1.21.16-1.92.16-1.26,0-2.34-.22-3.24-.67-.9-.45-1.59-1.14-2.08-2.08-.48-.94-.72-2.13-.72-3.57,0-1.24.24-2.34.73-3.3.49-.96,1.19-1.72,2.11-2.27.91-.55,2.01-.82,3.28-.82.61,0,1.22.06,1.84.19.61.13,1.23.34,1.84.65l.32-.69c-.6-.28-1.23-.49-1.89-.63-.66-.14-1.36-.21-2.1-.21-1.44,0-2.67.31-3.7.93-1.03.62-1.82,1.46-2.37,2.52-.55,1.06-.83,2.28-.83,3.66,0,1.48.25,2.74.76,3.78.51,1.04,1.26,1.84,2.26,2.38,1,.55,2.22.82,3.67.82.79,0,1.55-.07,2.29-.21.74-.14,1.42-.35,2.06-.63v-6.14h-5.09v.69Z"/>
        <path class="cls-3" d="M210.1,40.15c-.85,0-1.56.18-2.14.55-.57.36-.99.86-1.26,1.48h-.04c-.18-.66-.52-1.17-1.02-1.51-.5-.34-1.11-.52-1.84-.52-.6,0-1.1.1-1.52.29-.42.19-.76.43-1.03.73-.27.29-.47.6-.63.94h-.06l-.11-1.76h-.59v10.14h.74v-6.03c0-.85.14-1.55.41-2.08.27-.53.65-.92,1.12-1.18.47-.26,1.01-.38,1.62-.38.47,0,.88.1,1.24.31.35.2.64.51.85.92.21.41.31.94.31,1.61v6.83h.72v-6.1c0-1.25.28-2.16.86-2.72.57-.56,1.34-.84,2.3-.84.7,0,1.27.23,1.72.69.45.46.68,1.17.68,2.14v6.83h.72v-6.87c0-1.19-.28-2.06-.84-2.62-.56-.56-1.3-.84-2.23-.84Z"/>
        <path class="cls-3" d="M220.3,40.15c-.94,0-1.72.22-2.34.66-.62.44-1.05,1-1.28,1.67h-.06c.01-.29.03-.66.04-1.09.01-.43.02-.82.02-1.15v-4.31h-.74v14.54h.59l.11-1.86h.06c.24.59.64,1.07,1.2,1.46.56.39,1.28.58,2.15.58.99,0,1.8-.23,2.45-.69.64-.46,1.11-1.09,1.42-1.88.31-.8.46-1.7.46-2.71,0-1.72-.35-3.03-1.05-3.91-.7-.89-1.71-1.33-3.03-1.33ZM222.7,48.8c-.61.8-1.51,1.2-2.71,1.2s-1.98-.38-2.51-1.13c-.53-.75-.8-1.85-.8-3.29v-.17c0-.97.13-1.8.38-2.48.25-.68.64-1.2,1.16-1.57.52-.36,1.19-.55,2.02-.55,1.13,0,1.98.38,2.53,1.15.56.76.84,1.9.84,3.41s-.3,2.62-.91,3.43Z"/>
        <polygon class="cls-3" points="235.92 36.82 235.92 42.96 227.71 42.96 227.71 36.82 226.97 36.82 226.97 50.48 227.71 50.48 227.71 43.65 235.92 43.65 235.92 50.48 236.66 50.48 236.66 36.82 235.92 36.82"/>
      </g>
      <polygon class="cls-2" points="0 12.36 8.9 12.36 19.67 .13 11.42 0 0 12.36"/>
    </g>
  </g>
</svg>