<?xml version="1.0" encoding="UTF-8"?>
<svg id="Ebene_2" data-name="Ebene 2" xmlns="http://www.w3.org/2000/svg" viewBox="0 0 281.14 67.69">
  <defs>
    <style>
      .cls-1 {
        isolation: isolate;
      }

      .cls-2 {
        fill: #fff;
      }
    </style>
  </defs>
  <g id="Ebene_1-2" data-name="Ebene 1">
    <g>
      <g id="Apfelblüte" class="cls-1">
        <g class="cls-1">
          <path class="cls-2" d="M22.65,49.24v1.2c-.15,0-.15-.15-.15-.3-.15-.6-.15-1.35-.3-2.1-.15-1.65-.3-3.15-.6-4.65,0-.75,0-1.35-.15-2.1,0-.75-.15-1.65-.3-2.4-.15-.6-.15-1.2-.3-1.8-.15-2.1-.45-4.2-.75-6.3l-.6-5.1c0-.45,0-.75-.3-1.2-.15.3,0,.6,0,.9l.45,4.8c.3,1.65.45,3.3.75,4.95l.45,3.75.45,4.2c.15,1.5.3,3,.6,4.5.15,1.05.15,2.1.3,3.15q0,.15-.15.45c-.3-.15-.15-.45-.3-.75,0-.15-.15-.45-.3-.75,0,1.05-.3,1.65-.9,2.1-.15,0-.15-.15-.15-.3-.15-.15-.15-.3-.15-.45s-.15-.3-.15-.45-.15-.3-.15-.45l.15,1.8-.45.6c-.15.15-.3.15-.45.15-.3,0-.45-.15-.45-.45-.3-1.65-.45-3.3-.6-4.95l-.9-7.05-.45-2.7c0-.45,0-.75-.15-1.05-.15,0-.3.15-.3.15v.9l.9,6.3c.15,1.8.45,3.45.6,5.25.15.6.15,1.05.15,1.65.15.6,0,1.2,0,1.8-.3,0-.45,0-.6-.15l-.45-.45c0-.15,0-.3-.15-.6l-.9-8.4c-.3-1.65-.45-3.3-.6-5.1-.15-.15-.15-.45-.15-.75h-.6c-1.35-.15-2.7,0-4.05.15-.9,0-1.95.15-2.7.3-.45,0-.6.15-.75.6l-.45,2.85-.45,2.4c0,1.35,0,1.95-.15,2.7.15.3,0,.75,0,1.2v.45s-.15.15-.15.3c-.15,0-.3,0-.45.15,0,.15,0,.3-.15.6q-.15-.15-.15-.3c-.15-.15-.15-.45-.3-.6-.15.3-.3.45-.3.75-.15.45-.45.6-.9.9l-.3-.45c-.15.3-.15.6-.45.75,0,0,0,.3-.3.3-.15,0-.45,0-.6-.15-.15,0-.15-.15-.15-.3-.15-.15-.15-.3-.15-.6v-.75c-.15,0-.15.3-.15.3q-.15.75-.45,1.2c-.75-.15-1.05-.6-1.05-1.35,0-1.05.15-2.1.15-3.15.15-1.8.45-4.35.75-6.3,0-.3,0-.75.15-1.05,0-.3,0-.45-.15-.75-.3-.45-.15-1.05.15-1.5.45-.45.6-1.05.75-1.65.75-3.9,1.8-7.8,2.85-11.55,1.05-3.6,2.1-7.2,3.3-10.65l1.35-4.35c.15-.75.6-1.5,1.2-2.1l.45-.45c.6-.45.9-.45,1.5,0h.3c.45-.3.75-.15,1.05,0,.15.15.3.3.6.15.15,0,.3.15.45.15l1.2.75.15.15c.15.3.3.45.45.6.15.45.15.9.15,1.35.15.3.15.75.3,1.2,0,.3,0,.45.3.6,0,.15.15.3.15.45.15.45.15.9.3,1.35v.6c-.15.15-.15.3-.15.75l.15-.3c.3.45.45,1.2.45,2.25h-.15v.15c-.15.15-.15.3-.15.45l.45.15c.3.9.3,1.95.45,2.85.3,1.8.45,3.45.75,5.1.15,1.65.45,3.3.6,4.95l1.05,9.15c0,.3.15.6.15.9,0,.9.15,1.8.15,2.7.3,1.95.6,3.9.75,5.85.15.6.3,1.35.3,1.95ZM2.7,38.29s-.15-.15-.3-.15l-.15.15c0,.3-.15.45-.15.75-.15.75-.15,1.5-.3,2.4-.15,1.05-.15,3-.45,4.05,0,.6,0,1.2.15,1.95,0-.15.15-.15.15-.15,0-.6.15-1.05.15-1.65,0-.45.15-.9.15-1.35.15-1.65.45-3.9.75-5.55v-.45ZM6.6,21.79c.15-.15.15-.3.15-.3,0-.6.15-1.05.3-1.65.75-2.55,1.65-5.1,2.4-7.65l.75-2.1c0-.3.9-2.4.9-2.55s0-.3-.3-.3c-.3.6-.75,1.05-.6.9,0,.15-.15.15,0,.45-.15,0-.3.15-.15.3-.3.45-.9,2.1-.9,2.4-.15.15,0,.3,0,.45-.15,0-.3.15-.15.45l-.6,1.8c-.15,0-.15.3-.15.45-.15.3-.3.6-.3.9-.15.15-.15.3-.15.45-.15.15-.15.3-.15.45q-.15.3,0,.45l-.15.3c-.3-.15-.15.15-.15.3-.15,0-.15.3-.15.45-.15.3-.3.6-.3.9-.15.15-.15.3-.15.45-.15.15-.15.45-.15.6-.15.15-.15.3-.15.45-.15.3-.6,1.65-.45,1.95-.3.15-.3.3-.15.6-.3.3-.45.6-.3.9l-.6,2.25c-.15.15-.15.45-.15.6-.15.15-.3.3,0,.45,0,.3-.45.3-.3.6,0,.15.15.3-.15.3v.3c.15.3-.15.3-.15.45s.15.3,0,.45c-.3.15,0,.3-.15.45v.3c-.15.15-.15.3-.15.45l-.9,4.05c0,.15-.15.3,0,.6.15,0,.3-.15.3-.15,0-.15.15-.3.15-.45.6-3.15,2.7-11.4,3.15-12.45ZM6.75,37.69c-.45,1.05-1.2,7.05-1.05,8.25.15-.9.15-1.8.3-3.3l.45-2.4c0-.9.3-1.65.3-2.55ZM11.85,15.49c.15-.3.15-.6.3-.75v-.45h-.15c-.15.3-.15.45-.3.6l-3.15,10.8-1.95,7.8v.6c.15-.15.3-.45.3-.6,1.5-6.15,3.15-12.15,4.95-18ZM11.55,10.54l-.45.75c.15.15,0,.3-.15.45.15.3,0,.6-.15.9l-3.15,10.65c-.75,2.4-.6,3.45.15.45,1.05-4.05,2.25-8.1,3.6-12.15.15-.15.15-.45.3-.6,0-.15,0-.3-.15-.45ZM7.8,33.49c.3-1.65.75-3.15,1.05-4.8.9-3.3,1.8-6.45,2.85-9.75.15-.75.45-1.5.6-2.25.15-.15.15-.45,0-.75,0,.15-.15.15-.15.15,0,.3-.15.45-.15.75-1.2,3.45-2.1,7.05-3.15,10.65l-1.35,5.7c0,.3-.15.45-.15.75,0,.15.15.15.3.15,0-.15,0-.45.15-.6ZM14.7,33.64c-.45-4.5-1.2-9-1.8-13.5,0-.75-.15-1.65-.3-2.4l-.15-.15-.3.75-2.7,9.6-1.35,5.55v.6c.75,0,1.5-.15,2.1-.15.75-.15,1.5-.15,2.25-.15.75-.15,1.5.15,2.25-.15ZM16.35,33.49c-.15-.45-.15-.9-.3-1.35l-.45-3.9-.3-.45v.15c.15.75.15,1.35.3,1.95,0,.6,0,1.05.15,1.65-.15.15-.3.3-.15.6,0,.45,0,.9.15,1.35v.15l.15-.45v.6q.15.15.45,0v-.3ZM17.25,27.49c-.15.6.45,6.3.6,6.75h.3l-.9-6.75ZM18.75,40.84c0-1.5-.15-2.85-.45-4.35v-.3c-.15.9,0,1.65.15,2.4,0,.75.15,1.5.3,2.25ZM18.6,25.69q0-.15-.15-.3c.15-.15.15-.45,0-.6v.6l.45,3.3c0,.75.15,1.65.15,2.55l.45,3,.45,4.2c.15,1.35.45,2.85.6,4.35l.3,3c.15.75.15,1.5.3,2.25,0,.15.15.15.15.3v.6c.15-.15.15-.45,0-.6v-1.2l-.45-2.85c-.15-1.8-.3-3.75-.6-5.55-.15-1.8-.45-3.75-.6-5.7-.3-2.4-.6-4.95-1.05-7.35Z"/>
          <path class="cls-2" d="M49.2,34.39l-.45,2.7c-.3,1.65-.75,3.3-1.35,4.95-.3.3-.45.75-.6,1.05-.3.9-.9,1.5-1.5,2.25-.3.45-.75.9-1.05,1.2-.3.45-.75.75-1.05,1.05-1.05.6-1.95,1.2-3.15,1.65-.6.15-1.2.45-1.95.6-1.35.3-2.85.3-4.35,0-.3-.15-.6-.15-.9-.3q-.3,0-.3.3v.45c0,.75.15,1.5.15,2.25.15,8.55.3,10.65.45,12.75,0,.45,0,1.05-.15,1.5h-.3q-.15-.15-.15,0s0,.15-.15.15q0,.15-.15.15s-.15,0-.15-.15v-.15s-.15-.15-.15,0l-.45.3c0,.15-.15.3-.3.3s-.15.15-.3,0l-.15-.15v-.15q-.15,0-.15.15s0,.15-.15.3c-.45.3-.9.15-1.05-.3l-.15-.15c0-.15-.15-.15-.15-.15,0,.15-.15.3-.3.3s-.3-.15-.3-.15c-.3-.3-.45-.75-.45-1.05-.15-.9-.15-1.8-.3-2.7,0-1.35-.15-2.85-.3-10.65,0-1.5-.15-3-.3-4.5,0-1.95-.15-4.05-.15-6v-3c0-2.7.15-5.4.15-8.1,0-1.35.15-2.7.6-3.9.15-.3.3-.6.45-.75,0-.15.15-.3.3-.45h.45c0,.15.15.15.15.15.15,0,.15-.15.3-.15.3-.3.45-.15.6.3v.45c.15-.15.15-.45.15-.6.15-.15.3-.3.45-.15.15,0,.45.15.75.3.15,0,.15.15.3.3.15,0,.15.15.15.3.15.45.3.9.3,1.2,0,.15.15.15.15.3,0-.15.15-.15.15-.3.15-.15.15-.3.3-.6.6-1.65,1.35-3.15,2.1-4.65.45-.9,1.05-1.8,1.65-2.55.6-.75,1.2-1.35,1.95-1.65.45-.15.9-.3,1.35-.3.9,0,1.65,0,2.4.15.9.15,1.65.45,2.4.9.45.3.75.6,1.2,1.05,1.2,1.2,1.95,2.7,2.55,4.5.45,1.8.75,3.6.9,5.55.15,1.35.15,2.7,0,3.9ZM28.5,34.84c-.15,0-.15-.15-.15-.3v-.6c-.15.6-.15,1.05-.3,1.5-.15.15-.15.3-.15.3,0,.15,0,.3.15.3.15.3.15.6.15.9v.15l.15-.15c0-.45,0-.9.15-1.2.15-.15.15-.3.15-.45.15-.15.15-.3-.15-.45ZM28.8,27.64h-.15c0,.15-.15.3-.15.45-.15.75-.15,1.65-.15,2.25l.45-2.4v-.3ZM29.7,32.44v5.85h.15v-6l-.15.15ZM34.2,26.74c0-.15,0-.3.15-.45-.15.15-.3.3-.3.45-.6,1.35-1.2,2.85-1.65,4.2,0,.3,0,.6-.15.9v.15h.15q0-.15.15-.3c.45-1.65,1.05-3.3,1.65-4.95ZM33,44.14c0-.3.15-.6.15-.75v-.6c0-.15-.15-.15-.15-.15v.15c0,.45-.15.9-.15,1.35v.45c.3-.15.15-.3.15-.45ZM44.1,33.49c0-1.5,0-2.55-.15-3.6-.3-2.1-.75-4.05-1.35-5.85-.3-.75-.6-1.5-1.05-2.1q-.3-.3-.6,0l-1.35,1.35c-.6.75-1.2,1.65-1.65,2.7-.45.9-.9,1.65-1.2,2.55-1.65,3.9-2.55,7.95-3.15,12.15l-.45,3.6v.9c.15.45.3.6.6.6l.9.45,1.35.75c.45.3,1.05.3,1.5,0,.3-.15.75-.3,1.05-.6,1.05-.75,1.95-1.65,2.7-2.7,1.2-1.8,1.95-3.6,2.4-5.7.3-1.65.45-3.3.45-4.5ZM34.2,35.59c-.3.9-.6,1.95-.6,3q0-.15.15-.15c.15-1.05.3-1.95.6-3v-.3c-.15.15-.15.3-.15.45ZM34.5,34.09q.15-.15.15-.3c.3-.6.45-1.2.6-1.8v-.3s-.15.15-.15.3l-.45,1.8q-.15.15-.15.3ZM45.6,33.64c0-1.05-.15-1.95-.3-3v-.15l-.15.15v2.25c0,1.5,0,2.85-.15,4.2-.15.15-.15.45-.15.6v.15s.15,0,.15-.15v-.15c.45-1.35.6-2.55.6-3.9ZM46.95,31.99c0-.45-.15-1.05-.15-1.65q0-.15-.15-.15v.15c0,.6,0,1.2.15,1.8v1.35c.15-.45,0-.9.15-1.5ZM48.3,31.99c0-.45,0-1.05-.15-1.65v-.9c0-.15-.15-.15-.15-.15v3.6c.15.3.15.75.15,1.05,0-.6.15-1.35.15-1.95ZM48.6,28.84v-.15q-.15.15-.15.3c.15,1.2.15,2.55.3,3.75,0,.9-.15,1.65-.15,2.4,0,.45-.15.9-.15,1.35v.3c.15,0,.15-.15.15-.15.15-.6.15-1.35.3-1.95.15-1.95,0-3.9-.3-5.85Z"/>
          <path class="cls-2" d="M57.9,51.79c-.15-.3-.3-.45-.3-.75.15-.6,0-1.05-.15-1.65-.15-.45-.15-1.05-.15-1.65-.15-1.05-.3-2.25-.3-3.3,0-1.2,0-2.25-.15-3.45,0-1.8-.15-3.75-.15-5.55-.15-2.7-.3-5.25-.15-8.4,0-.3-.15-.45-.15-.6,0,0,0-.15-.15-.15l-.15.15v4.8c0,1.05,0,2.1.15,3.15v2.25c.15,1.05.15,2.25.3,3.45,0,1.2.15,2.55.15,3.75,0,.3,0,.45.15.75,0,1.5.15,3,.3,4.65,0,.15,0,.45.15.75,0,.45.15.9.3,1.35,0,.15,0,.45-.3.6-.3.15-.6,0-.75-.3l-.45-.45c-.15-.3-.3-.75-.3-1.05l-.45-5.25v-.6c0-1.5-.15-3-.15-4.65,0-1.35-.15-2.85-.3-4.35v-1.2c0-2.1-.15-4.05-.15-6.6v-.6c0-.15-.15-.3-.3-.15-.15,0-.45,0-.6.15l-2.85.9c-.45.15-.9.15-1.2-.15-.15-.15-.3-.15-.45-.15-.6.15-1.05-.3-1.05-.75,0-.75.15-1.5.9-1.8.15-.15.45-.3.75-.3,1.2-.6,2.55-1.05,4.05-1.35.9-.15.75-.15.9-1.05v-1.5c.15-2.85.3-5.7.75-8.55.3-2.25.9-4.35,1.65-6.45l.9-2.1c.75-1.65,2.1-2.7,3.9-3.15,1.35-.3,2.55-.6,3.9-.45.9,0,1.65.15,2.55.45.15,0,.3.15.3.15.9.15,1.35.75,1.8,1.35.15.15.15.3.15.45v.45c-.15.15-.3.15-.45.15-.3,0-.6.15-.9.45-.15.15-.3.15-.45,0-.3,0-.6-.15-.9-.3l-1.8-.45c-.3,0-.45.15-.75.3-.45.15-.9.45-1.2.9-.45.75-.9,1.5-1.2,2.4-.9,2.25-1.2,4.65-1.65,7.05-.3,2.55-.45,4.95-.6,7.5q0,1.05,1.05.75c1.2-.15,2.4-.45,3.75-.6.9-.15,1.95-.3,2.85,0,.15,0,.45.15.6.3,0,0,0,.15.15.15s.3,0,.3.15-.15.15-.3.3c-.15.15-.15.3,0,.45q.15.15,0,.3c-.15.3-.45.45-.75.6-.3,0-.45.15-.75.3-.6.3-1.35.6-2.1.75-1.35.3-2.85.6-4.2.75,0,0-.15.15-.3.15-.3,0-.45.15-.45.45v4.5c0,.15-.15.15-.15.15,0,0-.15,0-.15-.15v-4.2c0-.15,0-.3-.15-.45-.15.15-.15.3-.15.45v4.8c0,.45,0,.9.15,1.2,0,1.5,0,3,.15,4.35,0,1.05,0,2.25.15,3.3v.3q.15-.15.15-.3c-.15-1.05-.15-2.1-.15-3.15v-1.05h-.15v-3.9c0-.15.15-.3.15-.45v-.15s.15,0,.15.15v.6c.15,2.1.15,4.2.3,6.3,0,1.35.15,2.85.15,4.35v1.35l.45,4.8c0,.45,0,.75-.15,1.2,0,.3-.15.6-.45.75-.15.15-.3.3-.45.3-.15-.15-.3,0-.45.15l-.3.3c-.15.15-.3.15-.45,0h-.3c.15.3,0,.45-.15.6-.15.15-.45.15-.6.15s-.3,0-.45-.15ZM56.4,22.54c.15,0,.15-.15.15-.3,0-.75,0-1.65.15-2.55,0-1.05,0-2.1.15-3.15.15-2.1.45-4.2.9-6.15l.45-2.85c-.3.45-.45,1.05-.6,1.65-.6,2.4-.9,4.8-1.05,7.2l-.3,2.55v3.3c-.15.15,0,.15,0,.3,0,0,0,.15.15.15v-.15ZM60.6,21.49c0-2.4.15-4.8.45-7.2.3-1.65.45-3.3.9-4.95l.3-1.65c-.15.3-.3.6-.3.9-.45,1.65-.75,3.3-1.05,4.8-.3,2.7-.45,5.4-.6,8.1v.3h.15c.15-.15.15-.3.15-.3Z"/>
          <path class="cls-2" d="M89.25,35.89v.75c0,.9,0,1.95-.15,2.85,0,.3-.45,2.1-.45,1.95,0,.45-.3.9-.6,1.35v.3c0,.45-.3.75-.3,1.2,0,.3-.75,1.5-1.2,2.1-.45.75-1.05,1.65-1.65,2.4-.3.45-.75.75-1.05,1.05-.45.45-.9.75-1.35,1.05-1.05.75-2.1,1.2-3.3,1.35-3,.15-5.4-.75-7.2-3.15-.6-.75-1.05-1.65-1.35-2.55-.6-1.35-.9-2.85-1.05-4.2-.45-3.15-.3-6.15-.15-9.15.3-2.4.75-4.8,1.5-7.2.45-1.35,1.05-2.7,1.8-3.9.9-1.2,2.1-2.1,3.6-2.4,1.05-.3,1.95-.45,3-.3,1.05,0,2.1.3,3,.75.45.3.75.6.9,1.2,0,.15.45,0,.9,1.8.45,1.8.6,3.75.6,5.7-.15.15-.15.3-.15.45,0,.75.15,1.35,0,1.95-1.05,2.55-2.55,3.9-6.3,3.75h-1.95c-.3,0-.45-.15-.75-.15s-.45.15-.45.3v2.55c0,1.5.15,3,.45,4.5.3,1.35.9,2.55,1.5,3.75.6.75,1.2,1.5,2.1,1.95.3.3.6.45,1.05.6,1.65.45,3.75-2.55,4.65-5.1.6-1.65,1.05-3.45,1.35-5.25,0-.6.15-1.05.3-1.5,0-.15.15-.3.3-.15q.15.15.3,0v-.45q.15-.15.3-.15c.15,0,.3,0,.3-.15.15-.15.3-.3.45-.3.3,0,.6,0,.9.15,0,.15.15.15.15.3ZM71.7,27.94c0,.3-.15.6-.15.9-.15.45-.15.9-.3,1.35-.3,2.1-.6,4.05-.6,6.15,0,1.05,0,2.1-.45,3q0,.15.15.3c.3.75.45,1.5.3,2.4v.3c.15.15.15.3.15.45v.75h.15l.15-.15c0,.3.15.6.15.75.15.15.15.45.45.6-.15-.3-.15-.6-.15-.75-.45-1.95-.45-4.05-.6-6.15v-1.65c.15-1.35.15-2.55.3-3.75,0-1.35.15-2.7.6-3.9v-.75c0,.15-.15.15-.15.15ZM73.65,45.34c0-.15,0-.3-.15-.45-.15-1.2-.45-2.25-.75-3.45,0-.15,0-.45-.15-.75v-.15l-.15.15v.15c.15,1.35.45,2.7.9,4.05l.3.45ZM75.15,44.29c0-.3-.15-.6-.3-.9-.3-1.5-.75-3.15-.75-4.65,0-.15-.15-.15-.15-.15v.3c0,1.05,0,1.95.3,3,.15.75.45,1.65.75,2.55h.15v-.15ZM76.05,44.89l-.45-2.4c-.45-1.35-.6-2.85-.6-4.35v-2.55l-.15-.6c-.15.15-.15.45-.15.6v.3c-.15,1.5,0,3,.15,4.65,0,1.05.3,2.25.6,3.3.15.45.3.75.6,1.05ZM75.6,31.39c0,.15.15.3.3.45.15.15.3.15.45.15,1.5.6,3.15.45,4.8-.15.15,0,.3-.15.3-.45v-1.2c-.15-2.25-.45-4.5-1.5-6.6-.3-.3-.45-.75-.75-1.05-.15-.15-.45-.15-.6,0-.3.45-.6,1.05-.75,1.5-1.05,2.1-1.8,4.2-2.1,6.45-.15.3-.15.6-.15.9ZM81.75,26.74c0,.6.15,1.05.3,1.65,0,.6,0,1.35.15,1.95.15-.3.15-.6.15-.9,0-.9-.15-1.8-.3-2.55l-.3-.45c0,.15-.15.3,0,.3ZM84,24.79c.15,1.2.45,2.25.45,3.45,0,0,0,.15.15.15v-.15c0-1.35-.15-2.7-.45-4.05l-.15-.15v.75Z"/>
          <path class="cls-2" d="M96.3,48.19c.15.6.15,1.2.3,1.95,0,.15-.15.3-.3.15-.3-.15-.45-.3-.6-.45-.45-.45-.75-1.2-.75-1.8-.15-1.05-.15-2.1-.3-3l-.45-6.45c-.15-2.85-.3-5.55-.3-8.4,0-2.25,0-4.5.15-6.75,0-1.8.15-3.45.3-5.25,0-1.5.15-3.15.3-4.65.3-2.4.6-4.8,1.05-7.05.15-.75.45-1.5.9-2.1.15-.15.45-.45.75-.6h.3c.15,0,.15.15.15.3l-.45,1.2-.45,1.2v.15c-.3.15-.3.3-.15.6,0,.15,0,.3-.15.45,0,.75-.15,1.65-.15,2.4-.3,2.55-.6,5.1-.75,7.5-.15,1.5-.3,3-.3,4.5-.15.75-.15,1.35-.15,2.1v10.05c0,1.65.15,3.15.3,4.8v.45c.15,2.55.45,5.25.6,7.8,0,.3,0,.6.15.9ZM100.35,47.59c0,.15.15.3.15.3l-.6,1.05h-.15s0-.15-.15-.3c0,0,0-.15-.15-.15v.15c-.15.3-.3.6-.45.75-.15.15-.15.3-.3.3s-.15-.3-.15-.45c-.15,0-.15-.15-.15-.15l-.15-.15v.75l-.15-.15c0,.15,0,.3-.15.45,0,.3,0,.45-.15.45-.3.15-.6,0-.6-.15l-.45-1.05c-.15-1.05-.15-2.1-.3-3.15-.15-3.3-.6-6.45-.6-9.6v-2.1c-.15-1.5-.3-2.85-.3-4.35.15-2.25.15-4.5.15-6.6.15-1.65.15-3.15.3-4.65l.45-6.15c.15-1.65.45-3.45.75-5.1,0-.45.15-.75.3-1.2l.45-1.35.45-.9c0-.15.15-.3.3-.45.3,0,.45.15.45.3s0,.45-.15.6c0,.3-.15.6,0,.9,0,.3-.15.6-.3.75-.15,0,0,.15-.15.15h.15c-.15.15-.15.3,0,.45-.15.45-.15.9-.3,1.35v.45l.15.15v-.15s0-.15.15-.3l.9-3.9v-.15c0-.15.15-.3.3-.3s.15.15.3.15c.15.15.15.3.15.45.15.3,0,.6.15,1.05,0,0-.15.15-.15.3-.15.15-.15.3,0,.45,0,.15,0,.45-.15.6q-.15.15,0,.3c-.15.3-.15.45-.15.6-.3.15-.3.3-.15.6.15,0,0,.15,0,.3v.75l.15-.15c.3-1.2.6-2.4.75-3.6,0,0,0-.15.15-.15,0,0,0-.15.15-.15v1.5l-.45,2.4-.45,3.15-.45,4.05c0,1.65-.15,3.3-.3,4.95,0,1.35-.15,2.85-.15,4.2-.15,3.15,0,6.3.15,9.45l.45,6.6c0,1.5.15,3.15.3,4.65,0,.3,0,.75.15,1.2ZM97.2,38.89c-.15-.45-.15-.9-.15-1.35v-1.2s-.15,0-.15.15c.15.6.15,1.35.15,1.95v.6c0-.15.15-.15.15-.15ZM97.5,39.04c-.15-1.5-.15-3.15-.3-4.8v2.55c0,.75.15,1.5.15,2.4v.45c.15-.15.15-.3.15-.6ZM99.3,42.79c-.15-2.4-.15-4.95-.3-7.35h-.15v-2.25c-.15-1.8-.15-3.6-.15-5.4q-.15-.15-.15-.3v.15c0,2.1,0,4.2.15,6.45v2.25c.15,2.25.45,4.65.45,6.9q0,.15.15.15v-.6ZM101.55,7.54v.15l-.45,2.25c-.3,1.2-.45,2.4-.45,3.6-.3,2.55-.45,5.1-.6,7.65-.3,4.5-.3,8.85,0,13.8,0,.6,0,1.65.15,2.85.15,2.1.3,4.35.3,6.6.15.45.15.9.15,1.2,0,.15-.15.15-.15.15v-.15c-.15-.6-.15-1.2-.15-1.8l-.45-6.15c-.15-2.7-.3-5.25-.3-7.8v-5.1c0-2.25.15-4.65.3-6.9.15-2.85.45-5.55,1.05-8.25,0-.45.15-1.05.3-1.5,0-.15,0-.3.15-.45l.15-.15Z"/>
          <path class="cls-2" d="M130.65,34.54c0,1.2-.15,2.4-.45,3.6l-.45,1.95c-.45,1.95-1.2,3.6-2.25,5.1-.6.75-1.2,1.35-1.65,2.1-.45.45-1.05.9-1.5,1.2-.75.6-1.65,1.05-2.55,1.5-1.35.6-2.7.9-4.2.75-.75,0-1.65-.3-2.4-.9,0,0-.15,0-.15-.15l-.15-1.5c0,.3-.15.6-.15.9-.15.15,0,.3-.15.45-.3,0,0,.3-.15.3,0,.15-.15.15-.15.15,0-.15-.15-.3-.15,0v.3l-.15.6v.15l-.15-.15v-.3h-.15c-.15.15-.15.3-.15.45s.15.45-.15.45c0-.15,0-.3-.15-.3v-.3c-.15.15-.3.15-.3.15-.15.3-.3.45-.45.45s-.3,0-.3-.15c-.15-.15-.15-.3-.15-.45-.15-.45-.15-.9-.15-1.2l-.45-6.75-.45-5.85c-.15-3-.15-6-.15-9v-3.45l-.15.15v.6c0,.9-.15,1.8-.15,2.7v3.45c0,.75.15,1.5,0,2.25,0,.45.15.75.15,1.2.15,2.1.15,4.2.3,6.3l.45,4.65c0,1.5.15,3,.3,4.35.15.6,0,1.05,0,1.5,0,.15,0,.3-.15.45-.15.3-.6.3-.75,0,0-.15-.15-.3-.15-.45,0-.3,0-.45-.15-.6v-.15l-.15.15v.75l-.15.15c-.15.15-.15,0-.3,0-.3-.15-.3-.45-.45-.75-.15-.9-.3-1.65-.3-2.4l-.6-3.75-.45-3.45-.45-5.25v-1.65c0-1.5-.15-3.15-.15-4.65,0-2.7.15-5.25.45-7.95.15-2.55.45-4.95.9-7.5.3-1.8.6-3.75,1.05-5.55.3-1.05.75-2.1,1.35-3,.15-.15.45-.3.6-.6,0,0,.15,0,.15.15,0,.3,0,.75-.15.9-.75,1.35-1.05,2.85-1.35,4.35-.6,3-.9,6-1.2,9l-.45,6.6c-.15,1.8-.15,3.75-.15,5.7v-1.2q0-.15-.15-.3v2.85c0,.75,0,1.5.15,2.25v.45c0-.15,0-.3.15-.45v-.6c.15,1.2.15,2.25.15,3.3l.45,4.35c0,.45.15.9.15,1.35,0,.15.15.15.15.15v-.15c0-.6,0-1.2-.15-1.8-.15-1.8-.15-3.6-.3-5.55v-2.7c0-.6-.15-1.2-.15-1.8v-3.75c0-1.35.15-2.7.15-4.2l.45-4.35c0-1.2.15-2.4.3-3.45.3-1.65.45-3.3.75-4.95.15-1.8.75-3.45,1.35-5.1.15-.3.15-.6.3-.75l.3-.3h.15l.15.15v.6c.15-.15.15-.45.3-.45,0-.15.15-.3.3-.15.15,0,.15.15.3.15v.6c0-.15.15-.15.15-.3h.15v.45c0,.75,0,1.65-.15,2.4-.3,1.35-.3,2.55-.45,3.9-.15,1.35-.15,2.55-.3,3.9-.15.9-.15,1.8-.15,2.7-.15,1.65-.3,3.45-.3,5.1v7.8c0,1.95,0,3.9.15,6,0,.6,0,1.35.15,2.1v.15l.15-.15v-4.2s0-.15.15-.15v.45c.15.6.15,1.2.15,1.8h.3v-.3l.15-.3-.15-.9c.3-.75.45-1.5.6-2.1l.9-3,1.35-3.9.15-.6c.15-.3.45-.3.6-.45.15-.15-.15-.45-.15-.75l.15-.15c.45-1.5,1.05-3,1.8-4.35.15-.3.45-.6.6-.75.15-.3.45-.45.75-.6,1.35-.75,2.85-.9,4.5-.3.75.3,1.5.9,2.1,1.65.15.15.3.3.3.6.15.15.15.45.3.6l.9,2.25c0,.15.15.3.3.3v-.45c0,.3.15.45.3.6.9,2.85,1.35,5.85,1.2,9ZM110.25,48.64c0-.45,0-1.05-.15-1.5v-.45c-.15.15-.15.3-.15.45.15.45.15.75.15,1.2,0,.15.15.15.15.3ZM112.8,16.24c-.15.75-.15,1.5-.15,2.25-.15.3-.15.45-.15.75,0,1.2-.15,2.25-.15,3.45-.15,1.65-.15,3.45-.15,5.25-.15,3,0,6.15.15,9.15v2.25c.15,1.05.15,2.25.15,3.45l.15.15h.15v-1.35c-.15-3-.3-5.85-.3-8.85-.15-1.95-.15-3.9,0-5.85,0-1.95,0-3.9.15-5.85,0-1.05.15-2.25.15-3.3v-1.5ZM112.95,7.39v-.15h-.15c-.3.45-.3.75-.45,1.2l-.15,1.05v.75c.3-.9.45-1.95.75-2.85ZM112.95,14.29c.15-.15.15-.3.15-.45.15-1.35.45-2.7.6-3.9,0-.9.15-1.65.15-2.4,0,.15-.15.3-.15.45v.6c-.45,1.95-.75,3.9-.75,5.7ZM114.3,9.19c.15-.45.15-1.05.15-1.65v-.75l.15-.15v.15c.15.15.15.45,0,.75,0,1.65-.15,3.3-.3,4.8-.15,1.2-.3,2.4-.3,3.6-.15,1.35-.15,2.7-.3,4.2-.15,3.9-.15,7.8-.15,11.85v2.7h-.15c0-.15-.15-.3-.15-.45v-6c0-1.65,0-3.45.15-5.25,0-2.55.15-5.1.3-7.65.15-1.2.3-2.4.3-3.6.15-.75.15-1.65.3-2.55ZM124.8,32.74c0-1.95-.3-3.9-.9-5.85-.15-1.05-.6-1.95-1.05-2.85s-.6-.9-1.05,0c-.9,1.2-1.5,2.85-2.25,4.2-.15.75-.45,1.5-.6,2.25-.15.15-.15.3-.15.6-1.2,3.9-2.25,7.8-3,11.85,0,.6-.15,1.2-.3,1.8-.15.6-.15,1.2-.3,1.8v.6c0,.15.15.15.15.15h.15v-1.05c.15-.3.15-.6.15-.9l.15-.15q.15.15.15.3c.15.15.15.3.15.45.15.15.15.45.15.6s.15.15.15.15v-1.2c0-.15.15-.3.3-.3.15-.15.3-.15.3.15.15.15.15.3.15.45h.15c0-.15.15-.45.15-.45.15,0,.15.3.15.45v.3c.15.15.15.3.3,0,0-.15.15-.15.15,0,0,.3.15.6.15.75.3.6.45.75.9.3.6-.6,1.35-1.2,1.8-1.8,2.1-2.25,3.3-5.1,3.6-8.4.3-1.35.15-2.85.3-4.2ZM126.3,31.09s0-.15-.15-.3c0-.15-.15-.3-.15-.6-.3.15-.3.45-.3.6v1.5s0,.15.15.15c.3-.3,0,.15,0,.15v2.4h.15c0,.6-.15,1.05-.15,1.65v.9h.15v-.15c.45-1.65.45-3.15.45-4.8-.15-.15-.15-.45,0-.75.15-.3,0-.45-.15-.75ZM127.65,29.29c-.3.15-.3.6-.3.9s0,.75.15,1.05c.15.45.15.9.15,1.35s0,.75.15,1.05v.3q.15-.15.15-.3v-3.3c0-.3-.3-1.05-.3-1.05ZM129.6,32.44c0-.75-.15-1.65-.15-2.4-.15-.15-.15-.3-.15-.45h-.15v.45c0,1.05.15,1.95.15,3v1.95q0,.15.15.15v-.15c.15-.9.15-1.65.15-2.55ZM130.05,29.14l-.45-1.95c-.3-2.1-.15,1.65-.3,1.2-.15.15-.15.6,0,.6.6-.3.75,2.4.75,5.1,0,1.05,0,2.25-.15,3.3v.15c.15,0,.15-.15.15-.15v-.3c.6-2.55.45-5.25,0-7.95Z"/>
          <path class="cls-2" d="M138.6,48.19c.15.6.15,1.2.3,1.95,0,.15-.15.3-.3.15-.3-.15-.45-.3-.6-.45-.45-.45-.75-1.2-.75-1.8-.15-1.05-.15-2.1-.3-3l-.45-6.45c-.15-2.85-.3-5.55-.3-8.4,0-2.25,0-4.5.15-6.75,0-1.8.15-3.45.3-5.25,0-1.5.15-3.15.3-4.65.3-2.4.6-4.8,1.05-7.05.15-.75.45-1.5.9-2.1.15-.15.45-.45.75-.6h.3c.15,0,.15.15.15.3l-.45,1.2-.45,1.2v.15c-.3.15-.3.3-.15.6,0,.15,0,.3-.15.45,0,.75-.15,1.65-.15,2.4-.3,2.55-.6,5.1-.75,7.5-.15,1.5-.3,3-.3,4.5-.15.75-.15,1.35-.15,2.1v10.05c0,1.65.15,3.15.3,4.8v.45c.15,2.55.45,5.25.6,7.8,0,.3,0,.6.15.9ZM142.65,47.59c0,.15.15.3.15.3l-.6,1.05h-.15s0-.15-.15-.3c0,0,0-.15-.15-.15v.15c-.15.3-.3.6-.45.75-.15.15-.15.3-.3.3s-.15-.3-.15-.45c-.15,0-.15-.15-.15-.15l-.15-.15v.75l-.15-.15c0,.15,0,.3-.15.45,0,.3,0,.45-.15.45-.3.15-.6,0-.6-.15l-.45-1.05c-.15-1.05-.15-2.1-.3-3.15-.15-3.3-.6-6.45-.6-9.6v-2.1c-.15-1.5-.3-2.85-.3-4.35.15-2.25.15-4.5.15-6.6.15-1.65.15-3.15.3-4.65l.45-6.15c.15-1.65.45-3.45.75-5.1,0-.45.15-.75.3-1.2l.45-1.35.45-.9c0-.15.15-.3.3-.45.3,0,.45.15.45.3s0,.45-.15.6c0,.3-.15.6,0,.9,0,.3-.15.6-.3.75-.15,0,0,.15-.15.15h.15c-.15.15-.15.3,0,.45-.15.45-.15.9-.3,1.35v.45l.15.15v-.15s0-.15.15-.3l.9-3.9v-.15c0-.15.15-.3.3-.3s.15.15.3.15c.15.15.15.3.15.45.15.3,0,.6.15,1.05,0,0-.15.15-.15.3-.15.15-.15.3,0,.45,0,.15,0,.45-.15.6q-.15.15,0,.3c-.15.3-.15.45-.15.6-.3.15-.3.3-.15.6.15,0,0,.15,0,.3v.75l.15-.15c.3-1.2.6-2.4.75-3.6,0,0,0-.15.15-.15,0,0,0-.15.15-.15v1.5l-.45,2.4-.45,3.15-.45,4.05c0,1.65-.15,3.3-.3,4.95,0,1.35-.15,2.85-.15,4.2-.15,3.15,0,6.3.15,9.45l.45,6.6c0,1.5.15,3.15.3,4.65,0,.3,0,.75.15,1.2ZM139.5,38.89c-.15-.45-.15-.9-.15-1.35v-1.2s-.15,0-.15.15c.15.6.15,1.35.15,1.95v.6c0-.15.15-.15.15-.15ZM139.8,39.04c-.15-1.5-.15-3.15-.3-4.8v2.55c0,.75.15,1.5.15,2.4v.45c.15-.15.15-.3.15-.6ZM141.6,42.79c-.15-2.4-.15-4.95-.3-7.35h-.15v-2.25c-.15-1.8-.15-3.6-.15-5.4q-.15-.15-.15-.3v.15c0,2.1,0,4.2.15,6.45v2.25c.15,2.25.45,4.65.45,6.9q0,.15.15.15v-.6ZM143.85,7.54v.15l-.45,2.25c-.3,1.2-.45,2.4-.45,3.6-.3,2.55-.45,5.1-.6,7.65-.3,4.5-.3,8.85,0,13.8,0,.6,0,1.65.15,2.85.15,2.1.3,4.35.3,6.6.15.45.15.9.15,1.2,0,.15-.15.15-.15.15v-.15c-.15-.6-.15-1.2-.15-1.8l-.45-6.15c-.15-2.7-.3-5.25-.3-7.8v-5.1c0-2.25.15-4.65.3-6.9.15-2.85.45-5.55,1.05-8.25,0-.45.15-1.05.3-1.5,0-.15,0-.3.15-.45l.15-.15Z"/>
          <path class="cls-2" d="M169.95,23.14c.15.45.15.9.15,1.35v2.25c-.15,2.25-.15,4.5-.3,6.75v2.85c-.15.3-.15.45,0,.75v2.1c-.15.45,0,.9,0,1.5v1.5c0,.45,0,.9-.15,1.2-.3,1.35-.3,2.7-.45,3.9,0,.6,0,1.2-.15,1.8h-.15c.15-1.8.15-3.6.45-5.4.15-.75.3-1.5.15-2.25v-2.7c0-.3-.15-.6,0-.9.15-.6,0-1.35,0-1.95v-4.5c0-1.95.15-4.05.3-6.15v-1.2l-.15-.15v.15c-.3,2.55-.3,4.95-.45,7.35-.15,3.3,0,6.45,0,9.75,0,1.05-.15,2.25-.3,3.3v.75c-.15,1.05-.15,2.1-.15,3,0,.45-.15.9-.15,1.2q0,.15-.15.15v-3.9c0-.75.15-1.5.15-2.25.15-.45,0-1.05,0-1.5v-.15l-.15.15v.9c0,.15-.15.45-.15.75v4.2c0,.45,0,.9-.15,1.35l-.45.45c-.15.3-.3.15-.45-.15,0-.15-.15-.15-.15-.3,0,.15-.15.15-.15.3v.45c-.15.15-.3.3-.45.3s-.3,0-.45-.3c0-.15-.15-.3-.15-.6h-.15c-.15.15,0,.15-.15.3,0,0,0,.15-.15.15,0,0-.15,0-.15-.15-.15-.15-.3-.3-.3-.6l-.45-2.1c0-.3-.15-.75-.15-1.2-.15-.45-.15-.9-.3-1.35-.3-.9-.45-1.95-.3-3v-.3c0-.6,0-1.05-.15-1.5v-.3l-.3.3-.45,1.2c-.3.9-.6,1.8-1.05,2.55-.15.15-.15.3-.3.6-.6,1.5-1.2,3-2.1,4.35-.15.3-.3.45-.45.6-.45.6-1.05.9-1.65,1.05-.3,0-.45,0-.6.15-1.05.3-1.95.3-2.85-.15-1.8-.75-2.85-2.1-3.3-3.9-.45-1.35-.45-2.7-.6-4.05-.15-1.8-.15-3.75-.15-5.7.15-1.65.15-3.15.3-4.8,0-.9,0-1.8.15-2.85l.45-4.35c.15-.45.15-1.05.3-1.5,0-.75.3-1.35.6-1.95l.6-.45c.15-.15.45,0,.45.15v.6c-.3,1.05-1.05,4.95-1.05,5.4v.6c-.15,0-.15-.15-.15-.15v.9l-.15,4.5v3.9c.15-1.5.15-3,.3-4.5,0-.6,0-1.2.15-1.8l.45-4.05c0-.6.15-1.2.3-1.65,0-.45.15-.9.15-1.2.15-.6.3-1.05.3-1.65,0-.45.15-.75.45-1.05,0-.15.15-.15.3-.15.15-.15.45,0,.45.15l.15.6c-.15.45-.15.9-.15,1.35-.15.15-.3.15-.3.3-.15.6-.15,1.2-.3,1.65,0,.15.15.3.15.45,0,.3,0,.75-.15,1.05,0,.3,0,.75-.15,1.05,0,.6-.15,1.05-.15,1.5v.45c0,.75-.15,1.5-.15,2.25,0,1.8,0,3.75-.15,5.55v.3h.15v-.15c0-.6.15-1.35.15-1.95,0-2.55.3-5.1.45-7.5.15-1.65.45-3.3.6-4.95.15-.45.15-1.05.3-1.5v-.45c.15-.15.3-.15.45-.15.3.15.45.6.6.9v.9h-.15c0,.15-.15.3,0,.45v1.35l-.45,2.55c0,.9-.15,1.8-.15,2.55v.3c-.15,1.35-.15,2.7-.15,4.05-.15,1.5-.15,3-.15,4.5v.6q0,.15.15.15v-.6c0-.9,0-1.95.15-2.85,0-2.25.15-4.35.3-6.45.15-1.95.45-3.9.75-5.85,0-.6,0-1.2.15-1.8v-.15c.15,0,.15.15.15.15.15.45.15,1.05.15,1.5-.3,1.65-.45,3.45-.6,5.1-.15,1.35-.3,2.55-.3,3.9-.15,2.25-.3,4.35-.15,6.6v1.65c.15.3,0,.75.15,1.2,0,.75.15,1.5.15,2.25h.15v-.15c0-.6-.15-1.2-.15-1.8,0-.3-.15-.6-.15-.9,0-2.1,0-4.2.15-6.3,0-1.95.15-3.9.45-6,.15-1.35.15-2.7.6-4.2v-.6c0-.6,0-1.2.15-1.8h.15c0,.15.15.3.15.3v.6c-.15.45-.15.9-.3,1.2,0,.45-.15.9-.15,1.2l-.45,3.75c0,.75,0,1.35-.15,2.1-.15,3.3-.15,6.75-.15,10.05.15,1.8.3,3.6.75,5.4,0,.15.15.15.15.3s.15.15.3,0c.15,0,.15-.15.3-.15.15-.6.6-1.05.75-1.5,1.95-4.05,3.6-8.25,5.1-12.45.3-.9.45-1.95.45-3,.15-1.35.15-2.7.3-4.05.15-1.05.6-2.1,1.2-3,.15-.3.3-.45.6-.6.15-.15.3,0,.3.15v.45l-.45,1.5c-.3.6-.3,1.2-.3,1.8l-.15,1.05c0,.15,0,.3.15.3v-.3c.15-.75.3-1.5.6-2.25,0-.45.15-1.05.3-1.5l.45-1.05c0-.15.15-.3.3-.3,0-.15.3,0,.3.15v1.2c0,.15-.15.3-.15.45,0,1.65-.15,3.3-.15,4.95-.15.9-.15,1.95-.15,2.85,0,0,.15,0,.15.15v-.75c0-.75.15-1.65.15-2.4v-1.35c0-.45,0-.75.15-1.05,0-.6.15-1.2.15-1.95,0-.6.15-1.2.15-1.8q0-.15.15-.3c0-.15.15-.15.15-.15.6.3,1.2.45,1.35,1.2l.15.6c.15.15.15,0,.3,0q0-.15.15,0ZM154.05,10.09c-.45-1.95-.15-3.75.75-5.55.15-.3.45-.45.75-.9.45,1.8-.45,3.3,0,5.1.15-.45.3-.75.3-1.05l.45-3c0-.3.15-.6.3-.75,0-.15.3-.3.45-.3s.45.3.45.45v1.2c0,.9,0,1.8.15,2.7.45-1.35,0-2.85.45-4.2.9-.15,1.05,0,1.35.9,0-.15.15-.3.15-.6.6.9.75,5.4.15,6.75,0-.6-.15-1.05-.15-1.5h-.15c0,.3,0,.6-.15.75-.15.45-.45.75-.75,1.05l-1.5.45c-.45.3-.75.15-1.05-.15-.3-.15-.6-.3-.9-.3-.6-.15-.9-.6-1.05-1.05ZM159.45,8.29h.15v-2.25h-.15c-.15.75-.3,1.5,0,2.25ZM160.8,10.09h-.3v-4.95c.6,1.65.45,3.3.3,4.95ZM163.5,33.04s0,.15-.15.15c-.45,1.8-1.05,3.6-1.8,5.25-.15.15-.15.45-.15.6,0-.15.15-.15.3-.45l1.8-4.8c0-.15.15-.3.15-.45v-.45l-.15.15ZM170.1,5.14v4.95c0,.15,0,.3-.15.6-.15-.15-.15-.3-.45-.45,0,.45-.15.75-.15,1.05h-.15l-.45-.75c-.6.45-1.05.75-1.8.15-.15.3-.15.6-.3.75,0,.3-.3.45-.45.6-.15,0-.45-.15-.6-.3-.3-.15-.45-.45-.6-.75-.15.15-.3.3-.45.6-.3-.3-.75-.6-.9-1.05-1.05-2.4-1.5-3.3-1.05-5.85-.3-1.35,1.8-3,1.8.3,0,1.8.45.6.45.15l.45-2.25c0-.3.3-.6.75-.45.9,1.5-.3,3.15.6,4.65v-1.65c0-.6,0-1.05.15-1.65,0-.6,0-1.2.15-1.65,1.8.15,2.55.9,2.55,2.55-.15.9-.15,1.8-.15,2.85v1.95h.3c.15-4.5.6-6.9.45-4.35ZM169.05,24.79c0-.15-.15-.15-.15-.15v.3c-.15,1.35-.3,2.7-.3,4.05,0,2.55-.15,5.1-.15,7.65v3.15s.15,0,.15.15v-.15c0-.45.15-.9,0-1.2v-3.15c.15-2.55.15-5.1.3-7.5v-1.2c0-.6.15-1.35.15-1.95Z"/>
          <path class="cls-2" d="M189.75,20.29c-.15.3-.15.45-.45.45s-.75.3-1.05.45c-.3,0-.45.15-.75.15-1.05.3-1.95.45-3,.6-.3.15-.45.3-.45.6v.45c-.15,3-.3,7.65-.3,10.65-.15,2.55-.15,4.95-.15,7.5v.9q0,.15-.15.15v-.15c-.15-1.95-.15-3.9-.15-5.85v-3.6c.15-1.65.15-5.1.3-7.05,0-.9,0-1.8.15-2.7v-.15c-.15-.15-.15-.3-.15-.3-.15-.15-.15,0-.3.3v.6c0,1.2,0,2.4-.15,3.45l-.15,5.85c0,3.15-.15,6.3,0,9.45.15,1.5.15,2.85.45,4.35.15.75.45,1.35.9,1.95,0,.15.15.3.15.3.45,0,.6.3.9.45.45.3.9.45,1.35.3.3-.15.45,0,.75,0,.15,0,.3,0,.45.3,0,.15,0,.45-.15.6l-1.5,1.05c-.3.15-.6.15-1.05.3-.75,0-1.65,0-2.55-.3-.45,0-.9-.15-1.5-.3l-.9-.45c-.9-.6-1.5-1.35-1.8-2.4-.3-1.05-.45-2.1-.6-3.15-.15-1.35-.3-2.85-.3-4.2v-8.55c.15-1.5.15-4.35.3-5.85v-3.15c0-.15-.15-.3-.3-.3-.3.15-.6.15-1.05.15-.45.15-1.05.3-1.65.3-.45,0-.75,0-1.05-.3h-.6c-.75-.15-1.05-.75-.9-1.5.15-.45.6-.9,1.05-1.05.9-.15,1.8-.45,2.55-.6.6,0,1.05-.15,1.65-.15.3-.15.45-.15.45-.6,0-.6,0-1.05.15-1.65,0-1.5.15-3,.3-4.5,0-.75.3-1.35.75-1.95.15-.15.3-.45.45-.45.3-.15.45,0,.45.15v.45c-.3,1.05-.3,1.95-.45,3,0,.6-.15,1.05-.15,1.65,0,1.05-.15,2.1-.15,3.15v.3h.15v-.3c.15-.75.15-1.65.15-2.4.15-.9.15-1.95.3-2.85,0-.3.15-.75.3-1.05l.45-1.2c0-.3,0-.6.15-.75,0-.15.15-.15.3-.3.15,0,.3.15.3.3.15.15,0,.3,0,.45v.45c.15.45.15.9,0,1.5v.45c0,.9-.15,1.8-.15,2.7,0,.75-.15,1.65-.15,2.4v.3h.15c0-.15.15-.3.15-.45,0-1.8.15-3.6.45-5.4,0-.75,0-1.35.15-2.1,0-.6.3-.6.6-.3.3.15.45.3.75.3.3.15.45.3.45.45.15.6.15,1.2,0,1.8-.15,1.5-.15,3-.3,4.35,0,.3,0,.6-.15.9,0,.15.15.15.15.3h.15v-.3c.15-.75.15-1.5.3-2.25,0-1.05.15-2.1.3-3.15v-.3h.15v.3c0,.9,0,1.8-.15,2.7,0,.75-.15,1.65-.15,2.4v.45c0,.15.15.3.3.3h.75c.9,0,1.95,0,3,.15.3,0,.6.15.9.15.45.15.6.3.6.9ZM181.05,43.99c0-.9-.15-1.65-.15-2.4,0-1.65-.15-3.3-.15-4.8,0-1.35.15-2.55.15-3.75.15-2.7.3-6.75.3-9.45,0-.3.15-.6,0-.9-.45.3-.15.6-.15.9-.15.3-.15.75-.15,1.05,0,.15-.15.3,0,.6v.6l-.15,5.55c0,1.35-.15,2.85-.15,4.2v3.75h-.15v-3.3h-.15v.3l.15,3v3.3q.15,0,.15-.15v-1.8c.15,1.2,0,2.4.3,3.45l.45,3.15c.15.15.15.3.15.3,0,.15.15.15.15.15v-.9l-.6-2.85ZM182.4,39.04v-3.15c.15-1.5.15-2.85.15-4.35.15-2.25.3-6,.3-8.4v-.6h-.15l-.15.6c0,.9,0,1.65-.15,2.55l-.15,6.6v6.9c0,1.95,0,3.9.3,5.85v.15c-.15,0-.15.15-.15.3s0,.3.15.45v.3c.3.15.3.45.45.75,0,0,0,.15.15.3v-.15s.15-.15,0-.15c-.45-2.7-.6-5.25-.75-7.95ZM183.3,15.49c0-.6.15-1.2.15-1.8v-.6l-.15-.15v.15c-.15.3-.15.6-.15.9-.15,1.5-.3,3-.3,4.65v.45q.15,0,.15-.15t.15-.3c0-1.05,0-2.1.15-3.15ZM184.05,46.24l.3,1.2c.15.15.15.45.15.75,0-.15-.15-.3-.15-.3-.3-.45-.45-1.05-.45-1.65h.15Z"/>
          <path class="cls-2" d="M211.35,35.89v.75c0,.9,0,1.95-.15,2.85,0,.3-.45,2.1-.45,1.95,0,.45-.3.9-.6,1.35v.3c0,.45-.3.75-.3,1.2,0,.3-.75,1.5-1.2,2.1-.45.75-1.05,1.65-1.65,2.4-.3.45-.75.75-1.05,1.05-.45.45-.9.75-1.35,1.05-1.05.75-2.1,1.2-3.3,1.35-3,.15-5.4-.75-7.2-3.15-.6-.75-1.05-1.65-1.35-2.55-.6-1.35-.9-2.85-1.05-4.2-.45-3.15-.3-6.15-.15-9.15.3-2.4.75-4.8,1.5-7.2.45-1.35,1.05-2.7,1.8-3.9.9-1.2,2.1-2.1,3.6-2.4,1.05-.3,1.95-.45,3-.3,1.05,0,2.1.3,3,.75.45.3.75.6.9,1.2,0,.15.45,0,.9,1.8.45,1.8.6,3.75.6,5.7-.15.15-.15.3-.15.45,0,.75.15,1.35,0,1.95-1.05,2.55-2.55,3.9-6.3,3.75h-1.95c-.3,0-.45-.15-.75-.15s-.45.15-.45.3v2.55c0,1.5.15,3,.45,4.5.3,1.35.9,2.55,1.5,3.75.6.75,1.2,1.5,2.1,1.95.3.3.6.45,1.05.6,1.65.45,3.75-2.55,4.65-5.1.6-1.65,1.05-3.45,1.35-5.25,0-.6.15-1.05.3-1.5,0-.15.15-.3.3-.15q.15.15.3,0v-.45q.15-.15.3-.15c.15,0,.3,0,.3-.15.15-.15.3-.3.45-.3.3,0,.6,0,.9.15,0,.15.15.15.15.3ZM193.8,27.94c0,.3-.15.6-.15.9-.15.45-.15.9-.3,1.35-.3,2.1-.6,4.05-.6,6.15,0,1.05,0,2.1-.45,3q0,.15.15.3c.3.75.45,1.5.3,2.4v.3c.15.15.15.3.15.45v.75h.15l.15-.15c0,.3.15.6.15.75.15.15.15.45.45.6-.15-.3-.15-.6-.15-.75-.45-1.95-.45-4.05-.6-6.15v-1.65c.15-1.35.15-2.55.3-3.75,0-1.35.15-2.7.6-3.9v-.75c0,.15-.15.15-.15.15ZM195.75,45.34c0-.15,0-.3-.15-.45-.15-1.2-.45-2.25-.75-3.45,0-.15,0-.45-.15-.75v-.15l-.15.15v.15c.15,1.35.45,2.7.9,4.05l.3.45ZM197.25,44.29c0-.3-.15-.6-.3-.9-.3-1.5-.75-3.15-.75-4.65,0-.15-.15-.15-.15-.15v.3c0,1.05,0,1.95.3,3,.15.75.45,1.65.75,2.55h.15v-.15ZM198.15,44.89l-.45-2.4c-.45-1.35-.6-2.85-.6-4.35v-2.55l-.15-.6c-.15.15-.15.45-.15.6v.3c-.15,1.5,0,3,.15,4.65,0,1.05.3,2.25.6,3.3.15.45.3.75.6,1.05ZM197.7,31.39c0,.15.15.3.3.45.15.15.3.15.45.15,1.5.6,3.15.45,4.8-.15.15,0,.3-.15.3-.45v-1.2c-.15-2.25-.45-4.5-1.5-6.6-.3-.3-.45-.75-.75-1.05-.15-.15-.45-.15-.6,0-.3.45-.6,1.05-.75,1.5-1.05,2.1-1.8,4.2-2.1,6.45-.15.3-.15.6-.15.9ZM203.85,26.74c0,.6.15,1.05.3,1.65,0,.6,0,1.35.15,1.95.15-.3.15-.6.15-.9,0-.9-.15-1.8-.3-2.55l-.3-.45c0,.15-.15.3,0,.3ZM206.1,24.79c.15,1.2.45,2.25.45,3.45,0,0,0,.15.15.15v-.15c0-1.35-.15-2.7-.45-4.05l-.15-.15v.75Z"/>
        </g>
      </g>
      <g id="Gruppe_8651" data-name="Gruppe 8651">
        <g id="Gruppe_8650" data-name="Gruppe 8650">
          <g id="Gruppe_8648" data-name="Gruppe 8648">
            <path id="Pfad_8646" data-name="Pfad 8646" class="cls-2" d="M249.07,49.96c.6.02,1.19-.2,1.64-.6.43-.38.67-.94.66-1.52-.01-.56-.24-1.1-.63-1.49-.36-.43-.88-.68-1.44-.69-.57,0-1.12.25-1.49.69-.4.42-.63.97-.63,1.55,0,.53.2,1.05.57,1.43.33.39.81.63,1.32.63M265.07,50.02c.23,0,.46-.44.69-1.32.74-2.97,1.28-5.98,1.61-9.02.42-2.99.84-6.16,1.26-9.53l.52-3.79c.76-6.24,1.24-10.54,1.43-12.92l.86-7.75-1.21-.63c-.84.02-1.61.45-2.07,1.15,0,3.1-.17,6.38-.52,9.85-.34,3.46-.88,7.84-1.61,13.12-.34,2.3-.82,5.74-1.43,10.33l-1.55-10.16c-.95-6.24-1.93-11.83-2.93-16.77-.96-4.9-1.76-7.35-2.41-7.35-.73-.11-1.41.37-1.55,1.09.42,2.18,1.59,9.05,3.5,20.61,1.72,10.83,3.08,18.31,4.08,22.45.32.41.8.64,1.32.63M278.84,49.96c.6.02,1.19-.2,1.64-.6.43-.38.68-.94.66-1.52,0-.56-.24-1.1-.63-1.49-.36-.43-.88-.68-1.43-.69-.57,0-1.12.25-1.49.69-.4.42-.63.97-.63,1.55,0,.53.2,1.05.57,1.43.33.39.81.63,1.32.63"/>
          </g>
          <g id="Gruppe_8649" data-name="Gruppe 8649">
            <path id="Pfad_8647" data-name="Pfad 8647" class="cls-2" d="M235.54,16.22c1.4-.04,2.75.46,3.79,1.4,1.06.99,1.63,2.39,1.56,3.84l-.09,2.69c-.04.82-.03,1.65.03,2.48-.05.68-.01,1.37.11,2.05.22.73.26,1.51.12,2.26-1.03,1.81-8.28,1.13-8.28,1.13-.41.02-.82-.12-1.14-.38-.31-.28-.47-.68-.44-1.09,0-.78.54-1.17,1.63-1.17h.93c.49,0,4.42.01,4.63-.09v-2.33c0-5.42-.74-8.13-2.23-8.13-.59,0-1.16.2-1.63.56-.46.33-.85.76-1.14,1.25-.34.61-.6,1.27-.77,1.96-.44,1.59-.7,3.23-.79,4.88-.09,2-.14,3.57-.14,4.73,0,1.12.06,2.83.19,5.13.16,2.31.5,4.6,1.02,6.86.2.9.55,1.75,1.02,2.54.27.53.8.87,1.39.91.16,0,.31-.01.47-.05.17-.04.34-.05.51-.05.38,0,.75.13,1.04.38.29.24.46.61.45.99,0,.85-.67,1.27-2,1.27-.67.01-1.33-.11-1.95-.36-1.18-.44-2.15-1.28-2.75-2.39-.71-1.24-1.2-2.6-1.44-4.01-.33-1.59-.53-3.21-.6-4.83-.06-1.25-.09-2.86-.09-4.83v-4.98c.03-.88.09-1.93.19-3.15.05-.94.18-1.87.37-2.79.17-.9.42-1.79.74-2.64.25-.75.63-1.46,1.11-2.08.51-.58,1.12-1.06,1.82-1.4.74-.36,1.55-.54,2.37-.53"/>
          </g>
        </g>
      </g>
    </g>
  </g>
</svg>