<?xml version="1.0" encoding="UTF-8"?>
<svg id="Ebene_2" data-name="Ebene 2" xmlns="http://www.w3.org/2000/svg" xmlns:xlink="http://www.w3.org/1999/xlink" viewBox="0 0 206.98 206.4">
  <defs>
    <style>
      .cls-1 {
        fill: none;
      }

      .cls-2 {
        fill: #e9ced4;
      }

      .cls-3 {
        fill: #a9b081;
      }

      .cls-4 {
        fill: #3d4a24;
      }

      .cls-5 {
        clip-path: url(#clippath-1);
      }

      .cls-6 {
        fill: #47552a;
      }

      .cls-7 {
        clip-path: url(#clippath);
      }
    </style>
    <clipPath id="clippath">
      <rect class="cls-1" x="0" y="0" width="206.98" height="206.4"/>
    </clipPath>
    <clipPath id="clippath-1">
      <rect class="cls-1" x="0" y="0" width="206.98" height="206.4"/>
    </clipPath>
  </defs>
  <g id="Ebene_1-2" data-name="Ebene 1">
    <g>
      <g>
        <path class="cls-2" d="M103.38.02c-3.19.14-6.19.95-8.52,3.12-4.28,4-1.98,7.65-4.24,12.09-1.09,2.14-4.64,3.77-6.06,5.93-.49.74-1.74,3.96-2.01,4.88-1.13,3.81,2.89,7.95,2.23,12.49-.89,6.01-10.11,8.71-10.11,8.71-6.29-7.68-15.23-11.03-24.26-10.64-7.03.31-14.12,2.88-20.07,7.46-1.53-.53-2.9-.94-4.28-.88-1.01.04-2.02.34-3.09,1.03-.6.39-2.18,2.03-2.37,2.06,0,0,0,0-.01,0-.4.02-3.03-1.03-4.11-1.15-.45-.05-1-.06-1.62-.03-3.19.14-8.13,1.26-9.63,3.06-2.25,2.7-3.81,9.15-3.31,12.56.5,3.38,3.31,5.64,2.99,8.87-.35,3.43-1.82,3.15-3.34,5.42-2.46,3.68-1.5,13.87-.5,18.19,1.29,5.58,4.35,14.58,9.28,17.93,3.69,2.51,7.34,2.13,10.94,3.89,3.05,1.49,5.54,4.29,8.67,5.49,3.1,1.19,6.07,1.22,9.1,1.09.5-.02,1.01-.05,1.52-.07.51-.03,1.02-.05,1.54-.08,1.05-.05,2.12-.07,3.2-.04-.04,1.82-1.79,2.38-2.78,3.65-3.99,5.1-8.07,9.38-12.19,14.37-.86,1.04-2.25,1.6-2.91,2.82-1.2,2.22-2.64,8.64-2.25,11.15.2,1.29,1.04,2.59,1.27,3.9,1.09,6.37-3.76,9.57-4.26,15.15-.35,3.9,1.9,8.7,4.91,11.33,2.64,2.3,7.15,3.75,9.46,5.91,2.64,2.48.96,8.85,5.31,12.13,1.58,1.19,2.64,1.47,3.68,1.42.54-.02,1.07-.13,1.67-.25s1.26-.23,2.06-.26c.13,0,.26,0,.4-.01,6.47-.05,11.67.37,16.94.14,4.8-.21,9.65-.96,15.55-3.09,10.23-3.7,8.88-9.39,13.65-16.22.9-1.29,2.04-1.58,2.72-2.43,1-1.24,2.04-4.26,2.05-5.83.02-3.74-3.47-5.77,1.44-8.89l2.64,6.06c4.39,2.99,2.75,2.72,2.53,6.56-.13,2.4.67,3.4,2.25,5.12,3.4,3.68,8.92,6.77,13.15,9.65,1.9,1.29,4.48,3.8,6.4,4.68,2.08.95,6.97.08,9.94,1.35,1.57.67,2.39,2.18,3.67,2.98,2.69,1.69,7.11,3.6,10.33,3.59.15,0,.3,0,.44-.01,4.73-.21,6.57-3.42,11-4.34.7-.14,1.33-.2,1.93-.23.32-.01.63-.02.94-.02.31,0,.61,0,.91-.02.94-.04,1.89-.16,3.03-.63,8.82-3.61,14.74-10.99,16.95-19.78,1.51-6.02-3.96-9.64-4.31-14.9-.42-6.2,2.68-8.65-1.1-15.3-4.27-7.52-10.7-15.43-17.72-20.79-.83-.63-1.85-.96-2.77-1.43,5.04-1.05,9.62-1.39,14.59-3.22,6.14-2.25,11.8-4.9,15.11-10.58,2.5-4.3.76-6.81,2.17-10.53,2.3-6.08,7.83-11.28,9.76-17.81.92-3.13.51-7.75.99-11.05.79-5.47,3.37-11.9,1.47-17.34-1.03-2.95-2.8-2.75-4.92-4.28-1.95-1.4-3.58-4.32-5.95-5.51-1.71-.86-4.96-1.35-7-2.34-1.09-.53-1.44-1.64-1.86-1.77-1-.31-2.04-.42-3.11-.38-4.17.18-8.76,2.78-13.35,5.38-4.59,2.6-9.17,5.2-13.3,5.38-.79.04-1.57-.02-2.32-.18-1.6-.34-2.06-1.01-3.14-1.38-1.15-.4-2.49-.48-3.88-.42-2.01.09-3.86-6.4-3.49-9.8.16-1.53-.22-3.19-.1-4.57.57-6.55,2.47-13.72-.24-19.86-1.27-2.87-7.71-13.02-10.08-14.61-5.77-3.86-10.83-1.82-16.6-2.57-3.98-.52-8.98-1.71-13.58-1.51"/>
        <path class="cls-3" d="M120.63,68c-.01.22-.12.31-.32.31h-.03c-.35-.01-.71.01-1.06,0l-.18-.19c.19-.89,0-1.77,0-2.66-.01-1.19.03-2.38.02-3.57-.01-1.63-.05-3.25-.08-4.88-.01-1.03-.04-2.06-.04-3.09,0-.28-.02-.67.13-.81.12-.11.35-.09.57-.07h.21c.16.01.32.04.47.08l.14.14c.02.27.03.53.04.79-.04,0-.01,2.28.03,3.41.01.33,0,.66.01.98.02.7.07,1.4.08,2.11.03,1.38.03,2.75.05,4.13,0,.61.03,1.22.02,1.83,0,.49-.05.99-.08,1.48M130.58,53.99c-.02-.42-.16-1.11-.35-1.25-.26-.2-1.27-.34-1.71-.33-.63.02-1.27.05-1.9.04-.9-.01-1.8-.08-2.71-.1-1.41-.03-2.83-.04-4.24-.07-.27,0-.54-.1-.81-.15-.12-.03-.24-.1-.35-.1-.66.03-1.31.1-1.98.11-.78.01-1.56-.01-2.35-.03-1.45-.03-2.9-.07-4.35-.1-.33,0-.62.28-.62.62,0,.35,0,.71-.01,1.06-.01.72-.02,1.44-.04,2.16,0,.65-.03,1.3-.03,1.95.02,1.2.09,2.4.08,3.59,0,1.26-.1,2.51-.13,3.77-.03.99-.03,2-.03,2.99,0,.18.04.36.1.53.04.11.15.2.24.29l.21.16c.42.04.85.1,1.27.1,1.11.01,2.22,0,3.33,0,1.18.02,2.37.05,3.56.07.69.02,1.37.03,2.06.01.18,0,.35,0,.52-.02.88-.02,1.76-.08,2.64-.07,1.32.02,2.57.02,3.89.07.18,0,1.33-.12,1.69-.17.15-.02.3,0,.45-.03.53-.1,1.46.02,1.47-.55.02-.62-.13-4.03-.16-5.45-.02-.57.07-1.15.06-1.72,0-.94-.07-1.88-.05-2.82.01-.96.1-1.92.16-2.88.03-.57.13-1.14.1-1.71"/>
        <path class="cls-3" d="M115.08,42.75c.17-.37.22-.7-.03-1.05-.06-.08-.05-.23-.08-.34-.07-.27-.13-.54-.22-.79-.24-.68-.55-1.34-.75-2.04-.18-.63-.22-1.29-.38-1.93-.05-.21-.22-.5-.39-.54-.22-.06-.51.09-.58.39-.06.27-.07.55-.08.83-.06.97-.15,1.95-.17,2.92-.02,1.27.03,2.53.02,3.8,0,.68-.13,2.03-.13,2.05-.04.28-.03.57-.03.86,0,.2-.04.5.06.59.16.14.43.19.64.17.1-.01.24-.27.26-.43.05-.41.19-.76.36-1.13.52-1.1.98-2.24,1.49-3.36"/>
        <path class="cls-3" d="M114.03,36.46c.19.73.38,1.46.6,2.19.11.36.29.71.39,1.07.11.4.27.57.66.58.33,0,.6-.26.68-.62.05-.24.12-.48.2-.7.29-.75.55-1.52.89-2.25.22-.47.3-.88.61-1.34l.11-.24c-.04-.36-.3-.18-.5-.25-.42.08-.86-.11-1.34,0-.68.15-1.36.11-2.03-.15-.15-.06-.4.07-.55.2-.09.07-.13.3-.11.43.11.53.25.56.39,1.09"/>
        <path class="cls-3" d="M84.74,59.86c-.02.54,0,1.08-.02,1.63,0,.13-.12.29-.22.37-.34.29-.72.43-1.18.38-.42-.05-.85.06-1.27.05-.51-.02-1.03-.08-1.54-.17-.29-.06-.35-.37-.37-.63-.03-.68-.06-1.35-.05-2.02.02-.85.07-1.69.13-2.54.02-.3.4-.5.85-.49.98.02,1.95.04,2.93.04.53,0,.84.37.84.93-.03.82-.08,1.64-.1,2.45M66.58,61.41c-.71.04-1.43.07-2.15.12-.47.03-.93.05-1.37-.2-.15-.08-.34-.07-.51-.13-.38-.15-.37-.53-.46-.88-.15-.56.08-1.07.11-1.6.03-.79.02-1.59.1-2.37.02-.19.29-.47.47-.52.48-.12.99-.15,1.49-.19.14-.01.28.08.42.11.3.06.61.1.92.15.28.04.58.05.84.15.47.19.41.64.34,1.21.03.67.05,1.49.1,2.31.02.46.08.91.12,1.37.01.2-.23.47-.41.48M90.39,51.94c-.7-.1-1.42.21-2.13.19-.97-.03-1.94.06-2.92.05-1.07-.01-2.14-.06-3.21-.11-.52-.03-1.04-.15-1.55-.14-1.51.04-3.03.13-4.54.2-.62.03-1.24.05-1.86.09-.65.04-1.34-.1-1.99-.03-.68.08-1.23.17-1.99.13-.08.04-1.49-.07-2.08-.12-1.08-.1-2.17-.07-3.26-.08-.24,0-.48-.01-.72-.01-.39,0-.78,0-1.17.02-1.24.05-2.49.22-3.73-.05h-.22c-.33,0-.66,0-.99,0-.11,0-.26-.07-.32-.02-.13.12-.28.28-.31.45-.06.31-.06.64-.06.96,0,.19.04.39.04.58-.01.72-.03,1.44-.05,2.16-.02.74-.03,1.47-.07,2.2-.06,1.09-.16,2.18-.21,3.27-.03.89-.03,1.78,0,2.67.03.75-.19,1.53.21,2.24l.02.11c.09.5.4.75.88.78.86.06,1.71.15,2.57.22.86.06,1.71.09,2.57.14.93.05,1.85.1,2.77.15.47.03.94.09,1.41.1.8.02,1.61,0,2.41.03,1.25.06,2.5.15,3.74.23,1.37.1,2.75.2,4.12.31.29.02.58.1.88.12.67.05,1.33.08,2,.12.75.05,1.49.11,2.24.16.27.02.53.03.8.04h0c.57.03,1.14.06,1.72.08,1.43.06,2.87.12,4.3.16.55.02.94-.3.96-.8.01-.26.01-.52.01-.78,0-.37,0-.73-.02-1.09-.05-1.5-.16-2.99-.16-4.49-.01-2,.04-4.01.09-6.01.02-.78.09-1.56.13-2.34.02-.46-.02-.93.04-1.39.05-.35-.09-.5-.36-.54"/>
        <path class="cls-3" d="M124.37,38.53c.22.44.43.91.41,1.46-.01.32.3.6.61.62.28.02.53-.18.62-.49.04-.13.12-.25.19-.37.07-.14.26-1.31.35-1.73.15-.71.38-1.4.54-2.11.04-.16.06-.16-.07-.24-.15-.09-.36-.01-.53-.03-.59-.07-1.18-.09-1.77-.13-.16-.01-.31-.04-.47-.05-.39-.01-.71-.01-.69.38,0,.14.04.2.09.45.14.79.37,1.54.72,2.25"/>
        <path class="cls-3" d="M128.17,37.98s-.05-.35-.16-.45c-.19-.18-.44-.19-.63,0-.1.1-.12.29-.17.44-.05.17-.08.35-.14.53-.06.19-.16.37-.22.56-.12.39-.2.8-.35,1.18-.15.38-.55,1.21-.56,1.25-.05.22-.09.44-.15.65-.06.23-.22.47-.2.69.04.39.18.76.28,1.14.24.84.52,1.66.71,2.51.07.33.17.61.38.85.18.21.36.29.62.18.27-.11.32-.33.32-.59,0-.09-.04-.19,0-.25.33-.54.14-1.16.2-1.73.07-.65.02-1.32.1-1.97.13-1.17.17-2.34.05-3.52-.05-.49-.06-.98-.09-1.47"/>
        <path class="cls-3" d="M129.17,35.12c-.21,1.34-.05,2.68-.02,4.02,0,.6-.1,1.19-.14,1.79-.04.65-.05,1.3-.07,1.95-.04,1.51-.11,3.02-.12,4.54,0,.76.08,1.53.13,2.29.02.36-.06.5-.39.51-.18,0-.37-.01-.55-.03v.07c-.83-.04-1.66-.11-2.48-.11-1.03,0-2.06.05-3.08.05-.44,0-.88-.07-1.33-.12l-.16-.22c-.01-.43,0-.87,0-1.32,0-.46-.02-.92,0-1.39.03-.81.08-1.62.11-2.43.02-.57.05-1.15.05-1.72,0-.8-.04-1.6-.04-2.4,0-.74,0-1.48.04-2.22.05-1.04.13-2.08.18-3.12.01-.21-.06-.44-.12-.65-.08-.25-.01-.36.23-.35.57.02,1.13.03,1.69.06.52.03,1.03.09,1.54.09.25,0,.51-.14.76-.14.82.02,1.63.08,2.44.13.31.02.62.09.93.11.39.02.44.3.4.59M119.47,39.38c-.06,1.89-.12,3.79-.16,5.68-.01.71.09,1.43.07,2.14-.02.76-.12,1.52-.18,2.28-.01.21-.1.28-.3.28-1.06-.02-2.12-.03-3.18-.04-1,0-2,0-3,0-.32,0-.64-.05-.97-.1l-.15-.18c-.01-.8,0-1.6,0-2.41,0-.86.02-1.73.02-2.59,0-1.82-.02-3.65,0-5.47.02-1.61.08-3.22.11-4.82.01-.31.15-.42.42-.42.41,0,.82-.02,1.22-.03h0c.96.03,1.93,0,2.89.05.89.05,1.78.19,2.67.3.21.02.46-.15.61.13.06.1.11.21.11.32-.06,1.63-.12,3.25-.18,4.89M145.23,64.12c-.04-1.64-.1-3.29-.11-4.93-.02-1.55,0-3.1.02-4.65,0-.17.08-.34.09-.51,0-.19.02-.43-.07-.56-.25-.31-.55-.57-.85-.84-.21-.18-.41-.37-.62-.54-.39-.35-.78-.69-1.17-1.03-.19-.16-.37-.37-.59-.44-.36-.11-.46-.38-.53-.72-.16-.78-.34-1.56-.51-2.34-.09-.42-.16-.85-.28-1.26-.25-.88-.52-1.76-.76-2.64-.17-.63-.29-1.27-.46-1.9-.2-.72-.45-1.43-.62-2.16-.37-1.55-.68-3.11-1.03-4.66-.24-1.04-.48-2.07-.73-3.1-.11-.47-.22-.93-.34-1.4-.06-.24-.15-.48-.29-.67-.19-.24-.45-.43-.68-.64-.14-.13-.25-.29-.39-.42-.91-.87-1.83-1.73-2.75-2.6-.92-.87-1.84-1.75-2.76-2.63-.22-.2-.46-.37-.66-.59-1.03-1.2-2.04-2.43-3.08-3.61-.37-.42-.82-.75-1.25-1.11-.11-.1-.28-.22-.41-.2-.32.04-.65.11-.94.24-1.18.57-2.35,1.16-3.53,1.76-1.7.85-3.39,1.72-5.09,2.57-.87.43-1.75.84-2.64,1.25-.98.46-1.97.9-2.95,1.36-.75.34-1.49.68-2.23,1.05-.38.19-.81.31-1,.8-.23.57-.49,1.13-.75,1.68-.22.48-.47.94-.68,1.42-.2.44-.36.91-.56,1.35-.31.68-.66,1.33-.94,2.01-.36.84-.66,1.71-1,2.55-.23.59-.5,1.17-.76,1.75-.42.92-.82,1.84-1.25,2.76-.38.8-.82,1.57-1.2,2.37-.43.88-.81,1.78-1.22,2.67-.31.66-.63,1.3-.96,1.95-.18.38-.4.71-.8.91-.65.33-1.27.76-1.9,1.14-.38.23-.69.59-1.17.63-.2.01-.38.16-.39.46-.01.42-.08.84-.1,1.27-.03.69-.05,1.39-.08,2.08-.07,1.44-.17,2.89-.2,4.34-.03,1.69,0,3.39,0,5.08,0,1.46,0,2.92,0,4.37v1.02c0,.38.15.57.51.59.24.01.48-.02.72-.01.68.01,1.37.03,2.05.05,1.73.04,3.47.07,5.2.11v-.06c.41.02.81.07,1.22.06,1.07-.04,2.15-.12,3.22-.16.82-.03,1.64,0,2.41-.43.3-.17.44-.31.33-.67l.03-.23c.07-.35.18-.69.2-1.04.04-1.17.02-2.34.06-3.51.03-1.06.11-2.12.16-3.18.03-.81.04-1.62.06-2.43.01-.76.04-1.52.04-2.29-.02-1.34-.05-2.67-.08-4.01,0-.2.06-.27.25-.28.83-.04,1.66-.11,2.49-.16.58-.02,1.15-.05,1.72-.03.84.03,1.68.12,2.51.15.86.04,1.74.04,2.6.06.33.01.67.07,1,.07.77-.02,1.55-.08,2.33-.11,1.34-.04,2.68-.02,4.02-.1,1.22-.08,2.4.17,3.59.29.11,0,1.38.18,1.45.18.41,0,.82.05,1.22.12.08.01.18.2.18.3.02,1.26,0,2.52.02,3.78.02,1.33.1,2.66.13,3.98.04,1.55.05,3.11.08,4.66.02.96.06,1.9.11,2.86.01.3.18.84.41,1.02.85.65,5.04.22,7.1.13,1.24-.05,2.48-.14,3.72-.21.66-.03,1.34.14,1.97-.26.22-.14.33-.24.3-.51-.03-.25-.08-.49-.09-.74-.04-.9-.07-1.8-.1-2.7"/>
        <path class="cls-3" d="M147.83,52.14c-.31-.18-.64-.35-.95-.55-.85-.56-1.72-1.13-2.55-1.73-.22-.16-.44-.43-.51-.7-.28-.9-.48-1.83-.74-2.74-.44-1.55-.9-3.08-1.35-4.63-.76-2.68-1.54-5.36-2.29-8.05-.37-1.32-.67-2.66-1.02-3.98-.12-.48-.24-.97-.47-1.39-.22-.41-.56-.76-.87-1.11-.25-.29-.52-.56-.8-.82-.69-.61-1.43-1.16-2.07-1.81-.7-.71-1.33-1.52-1.98-2.28-.24-.28-.49-.54-.73-.81-.29-.33-.57-.68-.87-.99-.5-.5-1.03-.96-1.52-1.47-.9-.95-1.78-1.93-2.69-2.88-.54-.56-1.1-1.09-1.66-1.62l-.22-.13c-.44-.05-.86-.23-1.33-.07-.44.15-.9.21-1.35.3-.7.15-1.4.28-2.1.44-1.4.31-2.8.67-4.21.95-1.07.22-2.16.34-3.24.53-1.35.24-2.7.5-4.04.75h0c-.13.03-.26.09-.4.11-.34.07-.69.12-1.03.18-.68.13-1.35.28-2.03.39-.46.07-.93.08-1.38.17-.58.11-1.16.29-1.74.43-1.24.28-2.48.54-3.72.83-.67.15-1.33.31-2,.49-.47.13-.93.34-1.4.45-1.15.26-2.31.45-3.46.71-1.02.23-2.03.52-3.04.78-.65.17-1.3.32-1.95.49-.17.04-.33.08-.49.12-.58.12-3.46.88-3.83.99-1.34.41-3.47,1.98-3.73,2.16-2.82,1.92-7.96,5.15-10.76,6.85-1.83,1.12-2.49,1.21-3.38,2.69-.69,1.14-2.03,3.23-2.75,4.35-.61.95-1.24,1.88-1.87,2.81-.54.81-1.13,1.59-1.66,2.41-.43.67-.78,1.4-1.18,2.08-.2.35-.42.66-.81.82-.44.18-.85.41-1.28.63-.78.41-1.56.81-2.32,1.24-.2.11-.34.32-.5.5v.17c.08.43.52.8.94.79.69-.02,1.39-.07,2.08-.09,1.78-.04,3.56-.08,5.33-.11.5,0,.99.05,1.5.07.75.03,1.51.06,2.27.09.16,0,.32.01.48.01.71,0,1.35-.05,2.08-.08,1.24-.04,2.6,0,3.84-.1,1.26-.09,2.51.05,3.77-.01,1.75-.09,3.49-.05,5.24-.13.65-.03,1.31-.06,1.97-.09.42-.02.83-.05,1.25-.07.93-.03,1.86-.05,2.79-.08.3-.01.61-.06.91-.07.76,0,1.52-.34,2.29-.12l.23-.07c.6-.63,1.42-.74,2.14-1.1,1.12-.57,2.26-1.42,3.39-1.95.16-.07.34-.11.52-.11.27,0,.5-.02.64-.31.25-.56.49-1.13.76-1.68.52-1.07,1.06-2.13,1.58-3.2.57-1.18,1.15-2.35,1.7-3.54.76-1.6,1.51-3.2,2.24-4.82.6-1.33,1.33-2.58,1.86-3.94.08-.19.15-.39.22-.59.42-1.26.96-2.47,1.46-3.7.07-.16.22-.34.37-.4.92-.4,1.87-.75,2.79-1.14,1.19-.51,2.38-1.04,3.57-1.58.79-.36,1.56-.76,2.34-1.14,1-.48,2-.94,3-1.42.84-.4,1.69-.82,2.53-1.23,1.55-.76,3.1-1.53,4.65-2.27.12-.06.36-.01.46.09.5.49.97,1.02,1.45,1.54.58.63,1.17,1.25,1.75,1.88.46.5.91,1.01,1.37,1.51.33.36.69.67,1.01,1.03.46.52.88,1.09,1.36,1.59.43.45.93.82,1.36,1.26.78.79,1.52,1.61,2.28,2.42.29.32.58.63.88.93.08.08.17.15.25.22.37.33.77.64.89,1.19.14.64.29,1.27.45,1.9.35,1.43.7,2.86,1.08,4.28.35,1.33.72,2.65,1.11,3.96.49,1.66,1,3.3,1.49,4.95.34,1.14.67,2.29,1.01,3.43.2.65.39,1.29.62,1.92.07.18.22.36.37.47.34.26.71.47,1.06.71.46.3.9.62,1.37.91.45.29.91.57,1.38.82.31.17.58.06.75-.25.18-.32.03-.53-.23-.68"/>
        <path class="cls-3" d="M118.68,36.61c-.24-.04-.6.27-.65.55-.02.11-.03.22-.07.32-.5,1.24-1.02,2.48-1.51,3.73-.16.4-.26.82-.19,1.29.14,1.11.63,2.08,1.01,3.1.16.42.31,1.29.32,1.33.02.12.14.43.26.47.45.18.82-.16.78-.68-.02-.23-.08-.46-.07-.68.07-1.29.16-2.59.24-3.88.01-.17.02-.34.02-.5.03-1.44-.13-2.9.21-4.33.07-.31-.13-.68-.36-.72"/>
        <path class="cls-3" d="M116.77,46.48c-.26-.76-.54-1.51-.8-2.27-.11-.33-.28-.43-.59-.31-.38.15-.67.37-.67.86,0,.08-.03.18-.06.26-.44,1.04-.88,2.09-1.33,3.12-.12.28-.05.53.23.61.24.06.49.11.74.12.75.02,1.51.01,2.37.01.08-.02.26-.03.42-.1.15-.06.39-.09.3-.36-.19-.65-.39-1.3-.6-1.94"/>
        <path class="cls-3" d="M126.39,47.69c-.16-.52-.35-1.03-.51-1.55-.13-.43-.27-.88-.35-1.32,0-.04-.02-.57-.23-.63-.24-.07-.51.11-.61.3-.21.41-.42.82-.47,1.34-.05.5-.32.98-.51,1.46-.16.39-.36.76-.53,1.14-.14.31.03.62.33.67.93.14,1.85.27,2.78.41.39.06.58-.14.48-.55-.11-.43-.23-.86-.37-1.29"/>
        <path class="cls-3" d="M123.33,46.86c.24-.66.53-1.29.74-1.96.23-.73.86-2.15.87-2.16.2-.33.17-.65.02-.99-.11-.24-.24-.47-.33-.72-.19-.54-.38-1.09-.51-1.65-.16-.65-.57-1.2-.56-1.93,0-.59-.18-.66-.75-.56l-.14.02c-.28,0-.41.17-.42.47-.07,1.15-.17,2.3-.21,3.45-.02.59.02,1.18.06,1.77.02.36.11.71.13,1.07.02.49-.03.98-.02,1.46.02.5.08,1,.11,1.33-.03.63.11.87.5.91.31.03.42-.23.52-.51"/>
      </g>
      <rect class="cls-3" x="59.32" y="52.76" width="8.65" height="9.61"/>
      <g class="cls-7">
        <path class="cls-6" d="M69.51,97.91c0-.16,0-.47-.14-.63-.16,0-.16.15-.16.15-.16.15-.16.46-.17.78.13,1.25.11,2.5.09,3.74.12,1.87.24,3.9.21,5.77.13,1.25.11,2.65.09,3.9-.02,1.4-.05,2.8.08,4.05l.07-3.89c.08-4.67-.31-9.2-.07-13.87M69.13,92.76l-.04,2.03s0,.16.15.32c.16-.15.16-.31.16-.46l.05-2.8c-.1-3.12-.05-6.23,0-9.35.04-2.18-.08-4.36-.04-6.7,0,.47-.17.93-.18,1.4l-.06,3.27-.15,8.41c-.02,1.25-.05,2.65.09,3.9M69.24,68.92q-.01.62.29,1.25.01-.78-.29-1.25M68.39,90.41s0,.16.15.16l.03-1.56.11-6.39c.03-1.4.05-2.96-.08-4.52v-.78c-.22,4.36-.29,8.72-.21,13.08M68.64,94.15c0-.31-.15-.63-.14-.94,0-.47.02-1.09-.13-1.56v.16c-.02.78-.03,1.56-.2,2.33,0,.16,0,.47.15.62v.16s.15,0,.15,0c0-.31.16-.46.17-.78M67.05,78.23c-.37,3.42-.43,7.01-.18,10.59l.05-3.12.12-7.17v-.31ZM65.53,93.48c-.13-1.25-.11-2.49-.09-3.74-.1-3.12-.21-6.08-.15-9.2.01-.62.02-1.4-.12-2.03-.17.78-.19,1.71-.2,2.65v.47c-.05,2.18-.08,4.36.03,6.55l-.06,3.58c-.02,1.09.12,2.34.09,3.59.31,0,.47,0,.47-.3l.03-1.56ZM60.11,83.1c.16,0,.31-.15.32-.31.16-.31.17-.62.33-.93.17-.62.33-1.24.66-1.86,0-.47.17-.62.33-1.08-.32.15-.32.46-.33,1.08-.31,0-.32.31-.32.46l-.98,2.63v.47c-.17.15-.17.31-.17.46q-.16.15,0,.47c-.16,0-.31.15-.31.15l-1,3.41v.31q-.16.15-.17.31c.16,0,.16-.15.16-.31.16-.15.16-.46.17-.62.49-1.08.82-2.17,1.15-3.25v-.47c.17-.15.17-.31.17-.46.16-.15.16-.31,0-.47M63.79,95c-.08-4.21,0-8.42-.09-12.62l.08-4.36c0-.16,0-.47-.15-.63-.16.15-.16.31-.16.31-.33.77-.49,1.39-.82,2.01-.83,2.79-1.81,5.73-2.8,8.52-.17.93-.5,1.86-.83,2.79-.49,1.55-.99,3.26-1.33,4.96-.16.31-.33.77-.18,1.24.78-.3,1.41-.44,2.04-.59l2.19-.43c.63-.14,1.25-.29,2.04-.59v-.62ZM57.22,96.76l2-7.44,3.45-10.38.98-2.48c0-.16.16-.31.01-.62-.32.31-.32.77-.49,1.08-1.96,4.95-3.45,9.91-4.94,14.87-.49,1.55-.83,3.1-1.33,4.65,0,.31-.17.46-.01.78.16,0,.16-.31.32-.46M57.28,93.02c0-.31.32-.62.18-1.09l.16-.15.5-1.71c.16-.15,0-.31,0-.47q.16-.15.16-.46c.16,0,.16-.15.16-.31,0,0-.16.15-.16.31,0,.16-.16.31-.16.46v.47c-.49.62-.5,1.24-.66,1.86-.16.31-.33.77-.18,1.09-.31,0-.32.31-.32.46l-.67,2.48v.16c.31-.15.16-.46.32-.62l.67-2.48ZM55.89,101.41l-.32.46-.52,2.8c-.33,1.24-.51,2.49-.85,3.88-.17.62-.18,1.4-.35,2.18,0,.47-.17,1.09-.34,1.55v.62c.15-.31.15-.47,0-.62q.16-.15.31-.15c0-.16,0-.47.17-.62l.52-2.8c.18-1.4.52-2.8.7-4.19.17-.93.5-1.71.67-2.64v-.47ZM56.49,84.9c1.32-4.18,2.79-8.37,4.58-12.39l1.46-3.56c.16-.31.32-.46.33-.77-.31.15-.32.3-.47.3l-.97,1.85c-1.3,3.1-2.6,6.35-3.75,9.6l-1.98,6.04c-.17.62-.33,1.24-.65,1.7-.16.15-.32.46-.33.77,0,.31-.01.78-.17,1.09l-1.49,5.27c-.17,1.09-.51,2.17-.84,3.26,0,.16.15.32.15.47.16,0,.32-.15.32-.31.16-.46.33-.93.34-1.4l2.49-8.68.99-3.25ZM51.67,102.12h-.15c-.16.15-.16.31-.16.46l-.84,3.57c-.18,1.56-.52,2.95-.7,4.51-.17.62-.18,1.24-.19,1.87,0,.16,0,.31.15.47h.16s0-.46,0-.46l1.05-6.53c.18-1.24.51-2.33.68-3.42v-.47ZM70.17,95.74c0,.47.14.78-.18,1.09-.31.15-.32.46-.32.62l-.02,1.4c-.02,1.4.11,2.81.08,4.21.13,1.56.1,3.12.23,4.68l-.08,4.83-.05,2.81-.03,1.71c0,.16-.16.47-.32.62l-.32.46-.3-.47h-.16c-.17.46-.33.77-.64.92-.31,0-.15-.47-.46-.47,0,.31-.01.62-.17.93,0,.31-.32.31-.47.3-.15,0-.31-.16-.31-.16-.15-.16-.15-.47-.14-.63l-.38-4.84c-.12-2.03-.4-4.06-.36-6.08l-.32-8.26v-.78s-.14,0-.14,0h-.15c0,.15-.16.46-.01.62l-.04,2.34.32,8.58c.12,2.18.39,4.21.51,6.4.14.78.13,1.56.12,2.34v.31c-.47,0-.63-.17-.78-.48l-.3-.78-.41-3.44-.39-4.37c-.12-2.03-.24-4.06-.2-6.24-.13-1.25-.11-2.65-.08-4.05,0-.16,0-.47-.14-.78-.31-.16-.47,0-.62-.01l-4.23,1.33-2.04.59c-.31,0-.47.3-.48.62-.16.15-.16.46-.33.77-.51,2.64-1.18,5.28-1.54,7.92l-.51,2.49c0,.31-.16.46-.17.62-.16.31-.17.62-.48.61l-.32.46c-.31-.16-.15-.47-.3-.63-.32.31-.48.77-1.11.92-.15-.47.02-.94-.28-1.56q0,.31-.16.46l-.02.93c0,.31-.16.47-.32.62-.31,0-.62,0-.78-.17-.15-.16-.15-.31-.3-.63l-.48.46c-.31-.16-.61-.48-.76-.79,0-.31-.15-.47-.14-.78-.14-1.09.03-2.03.21-3.11l1.54-8.08.02-1.25c-.15-.47.02-.93.33-1.4l.48-.93c.52-2.8,1.34-5.43,2.17-8.07.67-2.48,1.33-4.96,2.15-7.44.66-2.01,1.47-4.03,2.13-6.04.82-2.32,1.79-4.49,2.77-6.81.33-.77.65-1.55,1.13-2.47l.8-1.23c.16-.31.48-.46.79-.76.47-.3.94-.45,1.25.02h.31c.47-.3.94-.29,1.56.03.62.01,1.09.33,1.7.65.31,0,.62.32.93.48.46.47.76.95.75,1.57.29,1.56.57,3.13.54,4.68l-.17,9.97-.11,6.54-.06,3.27c-.01.62.13,1.4.12,2.03,0,.16,0,.31.3.47.16,0,.31.16.15.31"/>
        <path class="cls-6" d="M99.43,90.74v-.15q-.15.15-.15.3c.13,1.22.11,2.59.24,3.81-.02.91-.18,1.67-.19,2.43,0,.46-.17.91-.17,1.36v.15s0,.15,0,.15c.15,0,.15-.15.15-.15.16-.6.18-1.37.34-1.97.19-1.97.07-3.95-.2-5.93M99.07,93.93c0-.46.02-1.06-.12-1.68l.02-.91c0-.15-.15-.16-.15-.16v.15s-.01.46-.01.46l-.05,3.04c.15.31.14.76.13,1.07.01-.61.18-1.36.19-1.97M97.7,93.91c0-.46-.13-1.07-.12-1.67q0-.15-.15-.15v.15c-.01.61-.02,1.22.12,1.83l-.02,1.37c.16-.45.02-.91.18-1.52M96.3,95.55c.02-1.06-.12-1.98-.25-3.05v-.15s-.15.15-.15.15l-.04,2.28c-.03,1.52-.05,2.89-.22,4.25-.15.15-.16.45-.16.6v.15s.15,0,.15-.15v-.15c.48-1.36.66-2.57.68-3.94M85.05,95.81q.15-.15.16-.3c.31-.6.48-1.21.64-1.81v-.3s-.15.15-.15.3l-.49,1.82q-.15.15-.16.3M84.72,97.33c-.32.91-.64,1.97-.66,3.03q0-.15.16-.15c.17-1.06.34-1.97.66-3.03v-.3c-.15.15-.15.3-.15.45M94.79,95.38c.03-1.52.04-2.58-.09-3.65-.27-2.13-.69-4.12-1.26-5.95-.29-.77-.58-1.53-1.03-2.15q-.3-.31-.61-.01l-1.39,1.35c-.62.75-1.25,1.65-1.72,2.71-.47.9-.94,1.66-1.26,2.56-1.74,3.92-2.73,8.01-3.41,12.26l-.52,3.64-.02.91c.14.46.29.61.6.62l.9.47,1.36.78c.45.31,1.06.32,1.52.03.31-.15.76-.29,1.08-.59,1.08-.74,2-1.64,2.78-2.69,1.25-1.8,2.04-3.61,2.53-5.74.33-1.67.51-3.34.53-4.55M83.35,105.97c0-.3.16-.61.17-.76v-.61c.01-.15-.14-.15-.14-.15v.15c-.01.46-.17.91-.18,1.37v.46c.3-.15.15-.3.15-.45M84.87,88.36c0-.15,0-.3.16-.45-.15.15-.31.3-.31.45-.63,1.36-1.27,2.87-1.75,4.23,0,.3-.01.61-.17.91v.15s.15,0,.15,0q0-.15.16-.3c.48-1.66,1.12-3.33,1.76-4.99M80.21,94.06v.15s-.07,3.65-.07,3.65v.76s-.04,1.37-.04,1.37h.15s0-.3,0-.3l.1-5.78-.15.15ZM79.38,89.18h-.15c0,.15-.16.3-.16.45-.17.76-.18,1.67-.19,2.28l.5-2.42v-.31ZM78.95,96.47c-.15,0-.15-.15-.15-.31v-.61c-.15.6-.16,1.06-.32,1.51-.15.15-.16.3-.16.3,0,.15,0,.3.15.31.15.31.14.61.14.92v.15s.15-.15.15-.15c0-.46.02-.91.17-1.21.15-.15.16-.3.16-.45.15-.15.16-.3-.14-.46M99.94,96.38l-.5,2.73c-.33,1.67-.82,3.33-1.46,4.99-.31.3-.47.75-.63,1.05-.32.91-.94,1.5-1.56,2.25-.31.45-.78.9-1.08,1.2-.31.45-.77.75-1.08,1.04-1.07.59-2,1.18-3.22,1.62-.61.14-1.22.43-1.99.57-1.37.28-2.89.25-4.41-.08-.3-.16-.61-.16-.91-.32q-.3,0-.31.3v.46c-.02.76.12,1.52.1,2.28,0,8.67.11,10.8.23,12.93,0,.46-.02,1.06-.18,1.52h-.3q-.15-.16-.15,0s0,.15-.15.15q0,.15-.15.15s-.15,0-.15-.16v-.15s-.15-.15-.15,0l-.46.3c0,.15-.16.3-.31.3-.15,0-.16.15-.3,0l-.15-.15v-.15q-.15,0-.15.15s0,.15-.16.3c-.46.3-.92.14-1.06-.32l-.15-.15c0-.15-.15-.15-.15-.15,0,.15-.16.3-.31.3s-.3-.16-.3-.16c-.3-.31-.44-.77-.44-1.07-.14-.91-.12-1.83-.26-2.74.02-1.37-.1-2.89-.12-10.8.03-1.52-.1-3.04-.22-4.57.03-1.98-.08-4.11-.05-6.08l.05-3.04c.05-2.74.25-5.47.3-8.21.02-1.37.2-2.73.68-3.94.16-.3.31-.6.47-.75,0-.15.16-.3.31-.45h.46c0,.16.15.16.15.16.15,0,.15-.15.31-.15.31-.3.46-.14.6.31v.46c.15-.15.15-.45.15-.6.15-.15.31-.3.46-.15.15,0,.45.16.75.32.15,0,.15.15.3.31.15,0,.15.16.15.31.15.46.29.92.28,1.22,0,.15.15.15.15.31,0-.15.15-.15.16-.3.16-.15.16-.3.32-.6.64-1.66,1.42-3.17,2.21-4.68.47-.9,1.1-1.81,1.72-2.56.62-.75,1.24-1.35,2-1.64.46-.14.92-.29,1.37-.28.91.02,1.67.03,2.43.19.91.17,1.66.49,2.42.95.45.31.75.62,1.2,1.09,1.19,1.24,1.93,2.77,2.5,4.6.42,1.83.7,3.66.81,5.64.13,1.37.1,2.74-.07,3.95"/>
        <path class="cls-6" d="M115.42,86.33c.04-2.43.24-4.86.58-7.29.33-1.67.51-3.34,1-5l.33-1.67c-.16.3-.31.6-.32.91-.49,1.66-.82,3.33-1.15,4.85-.35,2.73-.55,5.46-.75,8.2v.3s.15,0,.15,0c.15-.15.16-.3.16-.3M111.14,87.32c.15,0,.15-.15.16-.3.01-.76.03-1.67.2-2.58.02-1.06.04-2.13.21-3.19.19-2.12.53-4.25,1.02-6.22l.51-2.88c-.31.45-.47,1.06-.64,1.66-.65,2.42-1,4.85-1.19,7.28l-.35,2.58-.06,3.34c-.15.15,0,.15,0,.31,0,0,0,.15.15.15v-.15ZM112.15,116.98c-.15-.31-.3-.46-.29-.77.16-.61.02-1.06-.12-1.67-.14-.46-.13-1.07-.12-1.67-.13-1.07-.26-2.29-.25-3.35.02-1.22.04-2.28-.09-3.5.03-1.82-.09-3.8-.05-5.63-.1-2.74-.21-5.32,0-8.51,0-.3-.14-.46-.14-.61,0,0,0-.15-.15-.16l-.15.15v.46s-.08,4.41-.08,4.41c-.02,1.07-.04,2.13.1,3.2l-.04,2.28c.13,1.07.11,2.28.24,3.5-.02,1.22.11,2.59.09,3.8,0,.3,0,.46.14.76-.03,1.52.1,3.04.22,4.72,0,.15,0,.46.14.76,0,.46.13.92.28,1.37,0,.15,0,.46-.32.6-.31.15-.61-.01-.75-.32l-.45-.46c-.15-.31-.29-.76-.28-1.07l-.36-5.33v-.61c.04-1.52-.09-3.04-.06-4.72.02-1.37-.1-2.89-.23-4.41l.02-1.22c.04-2.13-.08-4.11-.04-6.69v-.61c.01-.15-.14-.31-.29-.16-.15,0-.46,0-.61.14l-2.9.86c-.46.14-.92.14-1.21-.17-.15-.15-.3-.16-.45-.16-.61.14-1.06-.32-1.05-.78.01-.76.18-1.52.94-1.81.16-.15.46-.3.76-.29,1.23-.59,2.6-1.02,4.13-1.3.92-.14.76-.14.93-1.05l.03-1.52c.2-2.89.4-5.77.91-8.65.34-2.27.99-4.39,1.79-6.51l.95-2.11c.79-1.66,2.18-2.7,4.01-3.12,1.37-.28,2.59-.56,3.96-.39.91.02,1.67.18,2.58.5.15,0,.3.16.3.16.91.17,1.36.78,1.8,1.4.15.16.15.31.14.46v.46c-.16.15-.32.15-.47.14-.3,0-.61.14-.92.44-.15.15-.31.15-.46,0-.3,0-.6-.16-.91-.32l-1.82-.49c-.3,0-.46.15-.76.29-.46.14-.92.44-1.23.89-.47.75-.94,1.5-1.26,2.41-.95,2.26-1.3,4.69-1.8,7.12-.35,2.58-.54,5.01-.74,7.59q-.02,1.07,1.05.78c1.22-.13,2.44-.41,3.81-.54.92-.14,1.98-.27,2.89.05.15,0,.45.16.6.32,0,0,0,.15.15.15s.31,0,.3.16c0,.15-.15.15-.31.3-.15.15-.16.3,0,.46q.15.15,0,.31c-.16.3-.46.45-.77.59-.3,0-.46.15-.76.29-.61.29-1.38.58-2.14.72-1.37.28-2.9.56-4.27.69,0,0-.15.15-.31.15-.31,0-.46.14-.46.45l-.02,1.22-.06,3.34c0,.15-.15.15-.15.15,0,0-.15,0-.15-.15l.02-.91.06-3.34c0-.15,0-.3-.14-.46-.15.15-.16.3-.16.45l-.06,3.19-.02,1.06v.61c-.02.46-.03.91.12,1.22-.03,1.52-.05,3.04.08,4.41-.02,1.06-.04,2.28.09,3.35v.31q.15-.15.15-.3c-.13-1.07-.11-2.13-.1-3.19l.02-1.06h-.15s.07-3.95.07-3.95c0-.15.16-.3.16-.45v-.15s.16,0,.15.15v.61c.1,2.13.07,4.26.18,6.39-.02,1.37.1,2.89.08,4.41l-.02,1.37.37,4.87c0,.46-.01.76-.17,1.21,0,.3-.16.61-.47.75-.16.15-.31.3-.46.3-.15-.15-.31,0-.46.14l-.31.3c-.15.15-.31.15-.46,0h-.15s-.15,0-.15,0c.15.31,0,.46-.16.61-.16.15-.46.14-.61.14-.15,0-.3,0-.45-.16"/>
        <path class="cls-6" d="M140.07,91.05c.13,1.22.42,2.29.4,3.5,0,0,0,.15.15.15v-.15c.03-1.37-.1-2.74-.38-4.11l-.15-.15v.76ZM137.76,92.99c-.01.61.13,1.07.27,1.68-.01.61-.02,1.37.12,1.98.16-.3.16-.61.17-.91.02-.91-.12-1.83-.26-2.59l-.29-.46c0,.15-.16.3,0,.3M131.44,97.59c0,.15.15.31.3.46.15.15.3.16.45.16,1.51.63,3.18.51,4.87-.07.15,0,.31-.15.31-.45l.02-1.22c-.11-2.28-.38-4.57-1.4-6.71-.3-.31-.44-.77-.74-1.08-.15-.15-.45-.16-.61-.01-.31.45-.63,1.05-.79,1.51-1.1,2.11-1.9,4.22-2.24,6.5-.16.3-.16.6-.17.91M131.66,111.28l-.41-2.44c-.43-1.38-.56-2.9-.53-4.42l.04-2.58-.14-.61c-.15.15-.16.45-.16.61v.3c-.18,1.52-.06,3.04.07,4.72-.02,1.06.26,2.28.55,3.36.14.46.29.76.59,1.07M130.76,110.65c0-.3-.14-.61-.29-.92-.28-1.53-.7-3.21-.68-4.73,0-.15-.15-.16-.15-.16v.31c-.02,1.06-.04,1.98.24,3.05.14.76.43,1.68.71,2.6h.15s0-.15,0-.15ZM129.22,111.69c0-.15,0-.3-.14-.46-.13-1.22-.42-2.29-.7-3.51,0-.15,0-.46-.14-.76v-.15s-.15.15-.15.15v.15c.13,1.37.4,2.74.84,4.12l.29.46ZM127.55,94.02c0,.31-.16.61-.17.91-.16.45-.17.91-.33,1.36-.34,2.12-.68,4.09-.72,6.22-.02,1.06-.04,2.13-.51,3.03q0,.15.15.31c.29.77.43,1.53.26,2.44v.31c.14.15.14.31.14.46v.76s.14,0,.14,0l.15-.15c0,.3.14.61.14.76.15.15.14.46.44.62-.15-.31-.14-.61-.14-.76-.42-1.98-.38-4.11-.5-6.24l.03-1.67c.18-1.37.2-2.58.37-3.8.02-1.37.2-2.73.68-3.94v-.76c.01.15-.14.15-.14.15M145.2,102.39v.76c-.03.91-.05,1.98-.22,2.89,0,.3-.49,2.12-.49,1.97,0,.46-.32.91-.63,1.36v.31c-.01.46-.32.75-.33,1.21,0,.31-.79,1.51-1.25,2.11-.47.75-1.09,1.65-1.71,2.4-.31.45-.77.75-1.08,1.05-.46.45-.93.74-1.39,1.04-1.08.74-2.15,1.18-3.37,1.31-3.04.1-5.46-.86-7.24-3.32-.59-.77-1.04-1.69-1.32-2.61-.58-1.38-.86-2.9-.99-4.27-.4-3.2-.19-6.24.01-9.28.35-2.43.84-4.85,1.65-7.27.48-1.36,1.11-2.72,1.89-3.92.93-1.2,2.17-2.09,3.69-2.37,1.07-.29,1.99-.42,3.05-.25,1.06.02,2.12.34,3.03.81.45.31.75.62.89,1.23,0,.15.46,0,.88,1.84.42,1.83.54,3.81.51,5.79-.15.15-.16.3-.16.45-.01.76.13,1.37-.04,1.98-1.11,2.57-2.65,3.91-6.45,3.69l-1.98-.03c-.3,0-.45-.16-.76-.17-.3,0-.46.14-.46.3l-.03,1.52-.02,1.06c-.03,1.52.1,3.04.38,4.57.28,1.37.87,2.6,1.45,3.83.6.77,1.19,1.54,2.09,2.01.3.31.6.47,1.05.63,1.66.49,3.84-2.52,4.8-5.09.64-1.66,1.12-3.48,1.46-5.3,0-.61.17-1.06.33-1.51,0-.15.16-.3.31-.15q.15.15.3,0v-.46q.16-.15.31-.15c.15,0,.3,0,.31-.15.15-.15.31-.3.46-.3.3,0,.61.01.91.17,0,.15.15.15.15.31"/>
        <path class="cls-6" d="M157.36,74.41v.14s-.5,2.16-.5,2.16c-.32,1.15-.5,2.31-.52,3.46-.35,2.45-.54,4.91-.74,7.36-.38,4.33-.45,8.53-.23,13.3-.01.58-.03,1.59.1,2.75.12,2.03.23,4.2.19,6.37.15.44.14.87.13,1.16,0,.14-.15.14-.15.14v-.15c-.14-.58-.13-1.16-.12-1.74l-.35-5.94c-.11-2.61-.22-5.07-.17-7.53l.09-4.92c.04-2.17.23-4.48.42-6.65.2-2.75.55-5.34,1.2-7.93,0-.43.17-1.01.33-1.44,0-.15,0-.29.16-.43l.15-.14ZM154.48,108.35c-.11-2.32-.07-4.77-.18-7.09h-.15s.04-2.17.04-2.17c-.12-1.74-.09-3.47-.06-5.21q-.15-.15-.15-.29v.14c-.04,2.03-.07,4.05.04,6.22l-.04,2.17c.11,2.17.38,4.49.34,6.66q0,.14.15.15v-.58ZM152.72,104.7c-.13-1.45-.1-3.04-.22-4.63l-.04,2.46c-.01.72.13,1.45.11,2.32v.43c.15-.14.15-.29.15-.58M152.42,104.55c-.15-.44-.14-.87-.13-1.3l.02-1.01v-.14s-.15,0-.15.14c.14.58.13,1.3.12,1.88v.43s0,.14,0,.14c0-.14.15-.14.15-.14M155.47,112.99c0,.15.15.29.15.29l-.62,1h-.15s0-.15-.15-.29c0,0,0-.14-.15-.15v.14c-.16.29-.32.57-.47.72-.15.14-.16.29-.31.28-.15,0-.15-.29-.14-.44-.15,0-.15-.15-.15-.15l-.15-.15v.14s0,.29,0,.29v.29s-.15-.15-.15-.15c0,.14,0,.29-.16.43,0,.29,0,.43-.16.43-.31.14-.61-.01-.6-.16l-.44-1.02c-.14-1.02-.12-2.03-.25-3.04-.1-3.18-.5-6.23-.45-9.27l.04-2.02c-.13-1.45-.26-2.75-.23-4.2.19-2.17.23-4.33.26-6.36.18-1.59.21-3.03.38-4.48l.56-5.92c.18-1.59.51-3.32.85-4.9,0-.43.16-.72.32-1.15l.48-1.29.47-.86c0-.14.16-.29.31-.43.31,0,.45.15.45.3,0,.14,0,.43-.16.58,0,.29-.16.58-.02.87,0,.29-.16.57-.32.72-.15,0,0,.15-.15.14h.15c-.15.14-.16.29,0,.44-.16.43-.17.87-.33,1.3v.43s.14.15.14.15v-.14s0-.15.16-.29l.98-3.75v-.14c0-.15.16-.29.31-.29.15,0,.15.15.3.15.15.15.15.29.15.44.15.29-.01.58.13,1.01,0,0-.16.14-.16.29-.15.14-.16.29,0,.43,0,.14,0,.43-.16.58q-.15.14,0,.29c-.16.29-.16.43-.16.58-.31.14-.31.28-.16.58.15,0,0,.15,0,.29v.58s-.01.14-.01.14l.15-.14c.32-1.15.65-2.3.82-3.46,0,0,0-.14.15-.14,0,0,0-.15.15-.14v.14s-.01.43-.01.43v.87s-.51,2.3-.51,2.3l-.51,3.03-.52,3.9c-.03,1.59-.21,3.18-.39,4.77-.02,1.3-.2,2.75-.22,4.05-.21,3.03-.11,6.07,0,9.11l.35,6.37c-.03,1.45.1,3.04.22,4.49,0,.29-.01.72.13,1.16M151.35,113.5c.14.58.13,1.16.27,1.89,0,.14-.16.29-.31.14-.3-.15-.45-.3-.6-.44-.45-.44-.74-1.17-.73-1.75-.13-1.01-.12-2.03-.25-2.9l-.35-6.23c-.1-2.75-.21-5.35-.16-8.1.04-2.17.08-4.34.27-6.5.03-1.74.21-3.32.39-5.06.02-1.45.2-3.03.38-4.48.34-2.31.69-4.62,1.18-6.78.17-.72.48-1.44.95-2.01.16-.14.47-.43.77-.57h.3c.15,0,.15.15.15.3l-.48,1.15-.48,1.15v.14c-.31.14-.31.28-.16.58,0,.14,0,.29-.16.43-.01.72-.18,1.59-.19,2.31-.35,2.45-.69,4.91-.89,7.22-.18,1.44-.35,2.89-.38,4.33-.16.72-.17,1.3-.19,2.02l-.07,3.9-.1,5.78c-.03,1.59.1,3.04.22,4.63v.43c.1,2.46.36,5.07.47,7.53,0,.29-.01.58.14.87"/>
        <path class="cls-6" d="M91.93,127.62v.15s-.5,2.27-.5,2.27c-.33,1.21-.5,2.43-.52,3.64-.35,2.58-.55,5.16-.74,7.74-.38,4.56-.46,8.96-.24,13.99,0,.61-.03,1.67.1,2.89.11,2.13.23,4.41.19,6.69.14.46.14.92.13,1.22,0,.15-.15.15-.15.15v-.15c-.14-.61-.13-1.22-.12-1.83l-.35-6.24c-.1-2.74-.21-5.33-.17-7.91l.09-5.17c.04-2.28.23-4.71.43-6.99.2-2.89.55-5.62,1.21-8.34,0-.46.17-1.06.33-1.51,0-.15,0-.3.16-.45l.15-.15ZM89.03,163.3c-.11-2.43-.07-5.02-.17-7.45h-.15s.04-2.28.04-2.28c-.12-1.83-.09-3.65-.06-5.47q-.15-.15-.15-.31v.15c-.04,2.13-.08,4.26.03,6.54l-.04,2.28c.11,2.28.38,4.72.33,7q0,.15.15.15v-.61ZM87.27,159.47c-.13-1.52-.1-3.19-.22-4.87l-.04,2.58c-.01.76.12,1.52.11,2.43v.46c.15-.15.15-.3.15-.61M86.97,159.31c-.14-.46-.14-.92-.13-1.37l.02-1.06v-.15s-.15,0-.15.15c.14.61.13,1.37.12,1.98v.46s-.01.15-.01.15c0-.15.16-.15.16-.15M90.01,168.19c0,.15.15.31.15.31l-.63,1.05h-.15s0-.15-.15-.31c0,0,0-.15-.15-.15v.15c-.16.3-.32.6-.47.75-.15.15-.16.3-.31.3-.15,0-.15-.31-.14-.46-.15,0-.15-.15-.15-.15l-.15-.15v.15s0,.3,0,.3v.3s-.15-.15-.15-.15c0,.15,0,.3-.16.45,0,.3,0,.46-.16.45-.31.15-.61-.01-.61-.16l-.44-1.07c-.13-1.07-.11-2.13-.25-3.2-.09-3.35-.49-6.55-.44-9.74l.04-2.13c-.12-1.52-.25-2.89-.23-4.41.19-2.28.23-4.56.27-6.68.18-1.67.21-3.19.39-4.71l.56-6.22c.18-1.67.52-3.49.85-5.16,0-.46.17-.76.33-1.21l.48-1.36.47-.9c0-.15.16-.3.31-.45.3,0,.45.16.45.31,0,.15,0,.45-.16.6,0,.3-.16.6-.02.91,0,.3-.16.6-.32.75-.15,0,0,.15-.15.15h.15c-.15.15-.16.3,0,.46-.16.45-.17.91-.33,1.36v.46s.14.15.14.15v-.15s0-.15.16-.3l.98-3.94v-.15c0-.15.16-.3.31-.3.15,0,.15.15.3.16.15.15.15.31.14.46.15.31-.01.61.13,1.07,0,0-.15.15-.16.3-.15.15-.16.3,0,.46,0,.15,0,.46-.16.61q-.15.15,0,.3c-.16.3-.16.45-.16.6-.31.15-.31.3-.16.61.15,0,0,.15,0,.3v.61s-.01.15-.01.15l.15-.15c.33-1.21.65-2.42.82-3.64,0,0,0-.15.16-.15,0,0,0-.15.15-.15v.15s-.01.45-.01.45l-.02.91-.5,2.42-.51,3.18-.53,4.1c-.03,1.67-.21,3.34-.39,5.01-.02,1.37-.2,2.89-.22,4.25-.21,3.19-.11,6.38-.02,9.58l.34,6.7c-.03,1.52.1,3.19.22,4.72,0,.31-.01.76.13,1.22M85.9,168.72c.14.61.13,1.22.27,1.98,0,.15-.16.3-.31.15-.3-.16-.45-.31-.6-.47-.45-.46-.74-1.23-.73-1.84-.13-1.07-.12-2.13-.25-3.05l-.34-6.54c-.1-2.89-.21-5.63-.16-8.52.04-2.28.08-4.56.27-6.84.03-1.83.21-3.49.4-5.32.03-1.52.21-3.19.39-4.71.35-2.43.69-4.85,1.19-7.13.17-.76.48-1.51.95-2.11.15-.15.46-.45.77-.59h.3c.15,0,.15.16.15.31l-.48,1.21-.48,1.21v.15c-.31.15-.31.3-.17.6,0,.15,0,.3-.16.45-.01.76-.18,1.67-.19,2.43-.35,2.58-.7,5.16-.89,7.59-.18,1.52-.36,3.04-.38,4.56-.17.76-.18,1.36-.19,2.12l-.07,4.1-.11,6.08c-.03,1.67.1,3.19.22,4.87v.46c.1,2.59.36,5.33.46,7.91,0,.3-.01.61.14.92"/>
      </g>
      <rect class="cls-3" x="76.29" y="56.07" width="13.32" height="8.36"/>
      <g class="cls-5">
        <path class="cls-6" d="M117.67,145.57c0-.15-.15-.16-.15-.16v.15s0,.15,0,.15c-.18,1.37-.35,2.73-.38,4.1-.04,2.58-.24,5.17-.29,7.75l-.03,1.67-.03,1.52s.15,0,.15.15v-.15c.01-.46.17-.91.02-1.22l.06-3.19c.2-2.58.24-5.17.44-7.6l.02-1.22c.01-.61.18-1.37.19-1.97M119.09,125.67l-.09,5.02c0,.15,0,.3-.16.61-.15-.16-.15-.31-.45-.46,0,.46-.17.76-.17,1.06h-.15s-.44-.77-.44-.77c-.62.45-1.08.74-1.83.12-.16.3-.16.6-.32.75,0,.3-.31.45-.47.6-.15,0-.45-.16-.6-.31-.3-.16-.45-.47-.6-.77-.15.15-.31.3-.47.6-.3-.31-.75-.62-.89-1.08-1.02-2.45-1.46-3.37-.96-5.95-.28-1.37,1.88-3.01,1.82.34-.03,1.82.45.62.45.16l.5-2.27c0-.3.31-.6.77-.44.89,1.54-.36,3.19.53,4.72l.03-1.67c.01-.61.02-1.06.18-1.67.01-.61.02-1.22.18-1.67,1.82.18,2.57.96,2.54,2.63-.17.91-.18,1.82-.2,2.89l-.03,1.98h.31c.23-4.55.73-6.98.53-4.4M111.9,153.83s0,.15-.15.15c-.49,1.82-1.13,3.63-1.92,5.29-.15.15-.16.45-.16.6,0-.15.15-.15.31-.45l1.91-4.83c0-.15.16-.3.16-.45v-.46s-.15.15-.15.15ZM109.57,130.53h-.3s.09-5.02.09-5.02c.58,1.68.4,3.35.22,5.02M108.24,128.68h.15s.04-2.28.04-2.28h-.15c-.17.76-.33,1.51-.04,2.28M102.73,130.41c-.42-1.98-.09-3.8.86-5.61.16-.3.47-.45.78-.9.43,1.83-.51,3.34-.09,5.17.16-.45.32-.75.32-1.06l.51-3.03c0-.31.16-.61.32-.76,0-.15.31-.3.46-.3.15,0,.45.31.45.46l-.02,1.22c-.02.91-.03,1.82.1,2.74.48-1.36.05-2.89.53-4.25.92-.14,1.07.02,1.35.94,0-.15.16-.3.16-.61.59.92.67,5.49.03,6.84.01-.61-.13-1.07-.12-1.52h-.15c0,.3,0,.61-.16.75-.16.45-.47.75-.78,1.05l-1.53.43c-.46.3-.76.14-1.06-.17-.3-.16-.6-.31-.91-.32-.61-.16-.9-.62-1.05-1.08M118.62,143.91c.14.46.14.92.13,1.37l-.04,2.28c-.19,2.28-.23,4.56-.42,6.83l-.05,2.89c-.16.3-.16.45-.01.76l-.04,2.13c-.16.45-.02.91-.03,1.52l-.03,1.52c0,.46-.02.91-.17,1.21-.33,1.36-.35,2.73-.52,3.94-.01.61-.02,1.22-.18,1.82h-.15c.18-1.82.22-3.65.55-5.47.17-.76.33-1.51.19-2.28l.02-1.37.02-1.37c0-.3-.14-.61.02-.91.16-.61.02-1.37.04-1.98l.08-4.56c.03-1.98.22-4.1.41-6.23l.02-1.22-.15-.15v.15c-.35,2.58-.39,5.01-.59,7.44-.21,3.34-.11,6.54-.17,9.88-.02,1.06-.19,2.28-.36,3.34v.76c-.18,1.06-.2,2.12-.22,3.04,0,.46-.17.91-.17,1.21q0,.15-.15.15v-.15s.07-3.8.07-3.8c.01-.76.18-1.52.19-2.28.16-.45.02-1.06.03-1.52v-.15s-.15.15-.15.15l-.02.91c0,.15-.16.45-.16.76l-.08,4.26c0,.46-.02.91-.18,1.37l-.46.45c-.16.3-.31.15-.45-.16,0-.15-.15-.15-.15-.31,0,.15-.15.15-.16.3v.15s0,.3,0,.3c-.15.15-.31.3-.46.3-.15,0-.3,0-.45-.31,0-.15-.15-.31-.14-.61h-.15c-.15.15,0,.15-.16.3,0,0,0,.15-.15.15,0,0-.15,0-.15-.15-.15-.16-.3-.31-.29-.62l-.42-2.14c0-.3-.14-.76-.13-1.22-.14-.46-.14-.91-.28-1.37-.29-.92-.42-1.98-.25-3.05v-.31c.02-.61.02-1.06-.12-1.52v-.3s-.3.3-.3.3l-.48,1.21c-.32.91-.64,1.81-1.11,2.57-.15.15-.16.3-.31.6-.63,1.51-1.27,3.02-2.2,4.37-.16.3-.31.45-.47.6-.47.6-1.08.89-1.69,1.03-.31,0-.46,0-.61.14-1.07.29-1.98.27-2.89-.2-1.81-.79-2.85-2.18-3.28-4.01-.43-1.38-.41-2.74-.54-4.11-.12-1.83-.08-3.8-.05-5.78.18-1.67.21-3.19.39-4.86.02-.91.03-1.82.2-2.89l.53-4.4c.16-.45.17-1.06.33-1.51.01-.76.33-1.36.64-1.96l.62-.45c.15-.15.46,0,.45.16v.61c-.33,1.06-1.16,5-1.17,5.45v.61c-.16,0-.16-.15-.16-.15v.15s-.02.76-.02.76l-.23,4.56-.07,3.8v.15c.18-1.52.2-3.04.38-4.56.01-.61.02-1.22.18-1.82l.53-4.1c.01-.61.17-1.21.33-1.67,0-.46.17-.91.17-1.21.16-.61.32-1.06.33-1.67,0-.46.17-.76.47-1.06,0-.15.15-.15.31-.15.15-.15.46,0,.45.16l.14.61c-.16.45-.17.91-.18,1.36-.15.15-.31.15-.31.3-.16.61-.17,1.21-.33,1.67,0,.15.15.31.14.46,0,.3-.01.76-.17,1.06,0,.3-.01.76-.17,1.06-.01.61-.17,1.06-.18,1.52v.46c-.02.76-.19,1.52-.2,2.28-.03,1.82-.07,3.8-.25,5.62v.3s.15,0,.15,0v-.15c.01-.61.18-1.37.19-1.97.04-2.58.39-5.16.59-7.59.18-1.67.51-3.34.69-5.01.16-.45.17-1.06.33-1.51v-.46c.16-.15.31-.15.47-.14.3.16.44.62.59.92l-.02.91h-.15c0,.15-.16.3,0,.45l-.02,1.37-.5,2.58c-.02.91-.18,1.82-.2,2.58v.3c-.18,1.37-.21,2.73-.23,4.1-.18,1.52-.2,3.04-.23,4.56v.61q-.01.15.14.15v-.61c.03-.91.04-1.98.21-2.88.04-2.28.23-4.41.42-6.53.19-1.97.52-3.94.86-5.91,0-.61.02-1.22.18-1.82v-.15c.15,0,.15.15.15.15.14.46.13,1.07.13,1.52-.33,1.67-.52,3.49-.7,5.16-.18,1.37-.35,2.58-.37,3.95-.19,2.28-.38,4.4-.27,6.69l-.03,1.67c.15.31-.01.76.13,1.22-.01.76.13,1.52.11,2.28h.15s0-.15,0-.15c.01-.61-.13-1.22-.12-1.83,0-.3-.14-.61-.14-.92.04-2.13.07-4.26.26-6.38.03-1.98.22-3.95.56-6.07.18-1.36.2-2.73.68-4.24v-.61c.02-.61.03-1.22.19-1.82h.15c0,.15.15.31.15.31v.61c-.17.45-.18.91-.34,1.21,0,.45-.17.91-.17,1.21l-.52,3.79c-.01.76-.02,1.37-.19,2.12-.21,3.34-.27,6.84-.33,10.18.12,1.83.24,3.65.66,5.49,0,.15.15.15.15.31,0,.15.15.15.3,0,.15,0,.15-.15.31-.15.16-.61.63-1.05.79-1.51,2.05-4.07,3.79-8.3,5.39-12.53.32-.91.49-1.97.51-3.03.18-1.37.2-2.73.38-4.1.17-1.06.64-2.12,1.27-3.02.16-.3.31-.45.62-.6.15-.15.3,0,.3.16v.46s-.49,1.51-.49,1.51c-.31.6-.32,1.21-.34,1.82l-.17,1.06c0,.15,0,.3.15.31v-.31c.17-.76.33-1.51.65-2.27,0-.46.17-1.06.33-1.51l.47-1.06c0-.15.16-.3.31-.3,0-.15.3,0,.3.16v.15s-.02,1.06-.02,1.06c0,.15-.16.3-.16.45-.03,1.67-.21,3.34-.24,5.01-.17.91-.19,1.97-.2,2.89,0,0,.15,0,.15.15v-.15s.01-.61.01-.61c.01-.76.18-1.67.19-2.43l.02-1.37c0-.45.01-.76.17-1.06.01-.61.17-1.21.19-1.97.01-.61.17-1.21.18-1.82q0-.15.16-.3c0-.15.15-.15.15-.15.6.31,1.21.48,1.35,1.24l.14.61c.15.15.15,0,.3,0q0-.15.15,0"/>
        <path class="cls-6" d="M135.13,167.59l.28,1.22c.15.15.14.46.14.76,0-.15-.15-.31-.15-.31-.3-.46-.44-1.07-.43-1.68h.15ZM134.91,136.42c.01-.61.17-1.21.18-1.82v-.61s-.14-.15-.14-.15v.15c-.16.3-.17.61-.17.91-.18,1.52-.36,3.03-.39,4.71v.46q.14,0,.15-.15t.16-.3c.02-1.06.04-2.13.21-3.19M133.58,160.27l.06-3.19c.18-1.52.2-2.89.23-4.4.19-2.28.41-6.08.45-8.51v-.45s.01-.15.01-.15h-.15s-.16.6-.16.6c-.02.91-.03,1.67-.2,2.58l-.27,6.69-.1,5.93-.02,1.06c-.03,1.98-.07,3.95.2,5.93v.15c-.15,0-.16.15-.16.3,0,.15,0,.31.14.46v.3c.3.16.29.46.44.77,0,0,0,.15.15.31v-.15s.16-.15,0-.15c-.41-2.74-.51-5.33-.62-8.07M132.13,165.26c.02-.91-.12-1.67-.11-2.43.03-1.67-.09-3.35-.07-4.87.02-1.37.2-2.58.22-3.8.2-2.73.42-6.84.47-9.57,0-.3.16-.6.02-.91-.46.3-.16.61-.17.91-.16.3-.16.76-.17,1.06,0,.15-.16.3-.01.61v.61s-.26,5.62-.26,5.62c-.02,1.37-.2,2.88-.23,4.25l-.06,3.5v.3s-.16,0-.16,0v-.46s.05-2.58.05-2.58v-.15s0-.15,0-.15h-.15s0,.3,0,.3l.1,3.04-.06,3.19v.15q.15,0,.15-.15v-.46s.03-1.37.03-1.37c.13,1.22-.04,2.43.24,3.5l.4,3.2c.15.16.15.31.15.31,0,.15.15.16.15.16l.02-.91-.56-2.9ZM141.36,141.4c-.16.3-.16.45-.46.45-.3,0-.76.29-1.07.44-.31,0-.46.14-.76.14-1.07.28-1.98.42-3.05.56-.31.15-.46.29-.47.6v.45c-.21,3.04-.45,7.75-.5,10.79-.2,2.58-.24,5.01-.29,7.6l-.02.91q0,.15-.15.15v-.15c-.11-1.98-.08-3.96-.05-5.93l.06-3.65c.18-1.67.24-5.16.43-7.14.02-.91.03-1.82.2-2.73v-.15c-.15-.15-.14-.31-.14-.31-.15-.15-.15,0-.31.3v.61c-.03,1.21-.05,2.43-.22,3.49l-.26,5.93c-.06,3.19-.26,6.38-.17,9.58.12,1.52.1,2.89.38,4.42.14.76.43,1.38.88,1.99,0,.15.15.31.15.31.46,0,.6.31.9.47.45.31.9.47,1.36.33.31-.15.46,0,.76.01.15,0,.3,0,.45.31,0,.15,0,.46-.16.6l-1.54,1.04c-.31.15-.61.14-1.07.29-.76-.01-1.67-.03-2.58-.35-.46,0-.91-.17-1.51-.33l-.9-.47c-.9-.62-1.5-1.4-1.78-2.46-.29-1.07-.42-2.14-.55-3.2-.13-1.37-.25-2.89-.23-4.26l.05-2.74.02-.91.09-5.02c.18-1.52.23-4.41.41-5.92l.05-2.74v-.46c.01-.15-.14-.31-.29-.31-.31.15-.61.14-1.07.13-.46.14-1.07.29-1.68.28-.46,0-.76-.01-1.06-.32h-.61c-.76-.18-1.05-.79-.89-1.55.16-.45.62-.9,1.08-1.05.91-.14,1.83-.43,2.59-.56.61,0,1.07-.13,1.68-.12.31-.15.46-.15.47-.6.01-.61.02-1.06.18-1.67.03-1.52.21-3.04.38-4.56.01-.76.33-1.36.79-1.96.15-.15.31-.45.46-.45.31-.15.46,0,.45.16v.46c-.33,1.06-.35,1.97-.52,3.03-.01.61-.17,1.06-.18,1.67-.02,1.06-.19,2.12-.21,3.19v.31s.15,0,.15,0v-.3c.17-.76.19-1.67.2-2.43.17-.91.19-1.97.35-2.88,0-.31.17-.76.32-1.06l.48-1.21c0-.31.01-.61.17-.76,0-.15.15-.15.31-.3.15,0,.3.16.3.31.15.15,0,.3,0,.46v.46c.14.46.13.91-.03,1.52v.46c-.02.91-.19,1.82-.21,2.73-.01.76-.18,1.67-.19,2.43v.3s.15,0,.15,0c0-.15.16-.3.16-.45.03-1.82.22-3.65.55-5.46.01-.76.02-1.37.19-2.12.01-.61.32-.6.61-.29.3.16.45.31.75.32.3.16.45.31.45.46.14.61.13,1.22-.03,1.82-.18,1.52-.2,3.04-.38,4.4,0,.3-.01.61-.17.91,0,.15.15.15.15.31h.15s0-.3,0-.3c.16-.76.18-1.52.34-2.28.02-1.06.19-2.12.36-3.19v-.3s.16,0,.16,0v.3c-.02.91-.04,1.82-.2,2.73-.01.76-.18,1.67-.19,2.43v.46c-.01.15.14.31.29.31h.76c.91.03,1.98.05,3.04.22.3,0,.61.16.91.17.45.16.6.31.59.92"/>
        <path class="cls-6" d="M159.07,146.97c.13,1.22.42,2.29.4,3.51,0,0,0,.15.15.15v-.15c.03-1.37-.1-2.74-.38-4.11l-.15-.15v.76ZM156.75,148.91c-.01.61.13,1.07.27,1.68-.01.61-.02,1.37.12,1.98.16-.3.16-.61.17-.91.02-.91-.12-1.83-.26-2.59l-.29-.46c0,.15-.16.3,0,.3M150.44,153.51c0,.15.15.31.3.46.15.15.3.16.45.16,1.51.63,3.18.51,4.87-.07.15,0,.31-.15.31-.45l.02-1.22c-.11-2.28-.38-4.57-1.4-6.72-.3-.31-.44-.77-.74-1.08-.15-.15-.45-.16-.61-.01-.31.45-.63,1.05-.79,1.51-1.1,2.11-1.9,4.22-2.24,6.5-.16.3-.16.6-.17.91M150.66,167.2l-.41-2.44c-.43-1.38-.56-2.9-.53-4.42l.04-2.58-.14-.61c-.15.15-.16.45-.16.6v.3c-.18,1.52-.06,3.04.07,4.72-.02,1.06.26,2.28.55,3.35.14.46.29.76.59,1.07M149.76,166.58c0-.3-.14-.61-.29-.92-.28-1.53-.71-3.21-.68-4.73,0-.15-.15-.15-.15-.15v.3c-.02,1.06-.04,1.98.25,3.05.14.76.43,1.68.71,2.6h.15s0-.15,0-.15ZM148.22,167.62c0-.15,0-.3-.14-.46-.13-1.22-.42-2.29-.7-3.51,0-.15,0-.46-.14-.76v-.15s-.15.15-.15.15v.15c.12,1.37.4,2.74.84,4.12l.29.46ZM146.55,149.95c0,.3-.16.6-.17.91-.16.45-.17.91-.33,1.36-.34,2.12-.68,4.09-.72,6.22-.02,1.06-.04,2.13-.51,3.03q0,.15.15.31c.29.77.43,1.53.26,2.44v.31c.14.15.14.31.14.46v.76s.14,0,.14,0l.15-.15c0,.31.14.61.14.76.15.15.14.46.44.62-.15-.31-.14-.61-.14-.76-.42-1.99-.38-4.11-.5-6.24l.03-1.67c.18-1.37.2-2.58.37-3.79.02-1.37.2-2.73.68-3.94v-.76c.01.15-.14.15-.14.15M164.19,158.32v.76c-.03.91-.05,1.98-.22,2.89,0,.3-.49,2.12-.49,1.97,0,.46-.32.91-.63,1.36v.31c-.01.45-.32.76-.33,1.21,0,.31-.79,1.51-1.25,2.11-.47.75-1.09,1.65-1.71,2.4-.31.45-.77.75-1.08,1.05-.47.45-.93.74-1.39,1.04-1.08.74-2.15,1.18-3.37,1.31-3.04.1-5.46-.86-7.24-3.32-.59-.77-1.04-1.69-1.32-2.61-.58-1.38-.86-2.9-.99-4.28-.4-3.2-.19-6.24,0-9.27.35-2.43.85-4.85,1.65-7.27.48-1.36,1.11-2.72,1.89-3.92.93-1.2,2.17-2.09,3.69-2.37,1.07-.29,1.99-.42,3.05-.25,1.06.02,2.12.34,3.03.81.45.31.75.62.89,1.23,0,.15.46,0,.88,1.84.42,1.83.54,3.81.51,5.79-.15.15-.16.3-.16.45-.01.76.13,1.37-.04,1.98-1.11,2.56-2.65,3.91-6.45,3.69l-1.98-.03c-.3,0-.45-.16-.76-.17-.3,0-.46.14-.46.3l-.03,1.52-.02,1.06c-.03,1.52.1,3.04.38,4.57.28,1.37.87,2.6,1.45,3.83.6.77,1.19,1.54,2.09,2.01.3.31.6.47,1.05.63,1.66.49,3.84-2.52,4.8-5.09.64-1.66,1.12-3.48,1.46-5.3,0-.61.17-1.06.33-1.51,0-.15.16-.3.31-.15q.15.15.3,0v-.46q.16-.15.31-.15c.15,0,.3,0,.31-.15.15-.15.31-.3.46-.3.31,0,.61,0,.91.17,0,.15.15.15.15.31"/>
        <path class="cls-6" d="M105.91,57.31c-.08-.18-.14-.37-.24-.54-.1-.16-.18-.35-.39-.41l-.15-.06v-.09s.21-.14.21-.14c.1-.07.22-.13.28-.23.09-.15.15-.32.2-.48l-.06-.18-.05-.21c.04-.16.06-.31-.07-.44v-.05s-.06-.21-.06-.21c-.04-.1-.03-.24.04-.33.07-.09.07-.2.02-.29l-.15-.07-.05-.06.05-.26-.1-.13-.15.06-.18.19-.06.02c-.15-.06-.19-.15-.14-.31.03-.1.08-.2.11-.3.04-.22.08-.43.11-.65l-.04-.1h-.1s-.21.13-.21.13l-.15.13c-.07.1-.14.21-.21.32l-.08.05-.03-.08c.01-.3.03-.6,0-.9-.01-.15-.12-.22-.24-.25l-.21.22c-.08.26-.13.53-.3.75l-.06.06-.05-.08c-.06-.2-.12-.4-.17-.59-.04-.16-.18-.22-.31-.27-.13-.04-.22.11-.17.29.06.2.06.4.01.61l-.09.03-.05-.07c-.1-.2-.19-.4-.39-.53l-.21-.07-.1.03v.16c.1.13.12.27.12.42l-.1.05-.22-.18c-.13-.1-.34-.03-.41.11-.07.16-.15.32-.24.47-.06.09-.03.17.02.23.11.13.11.12-.04.2-.14.08-.3.16-.33.34-.04.24.03.47.16.67.1.16.23.3.43.35l.08.12-.21.16c-.43.13-.84.28-1.18.57-.23.2-.46.4-.68.62-.12.12-.21.27-.31.41-.08.11-.14.22-.21.33-.1.16-.2.32-.29.48-.05.09-.1.18-.15.28v.06s0,.12,0,.12c-.13.22-.27.45-.4.67-.15.25-.29.5-.43.75-.03.06-.11.12-.01.2l-.02.07c-.06.1-.12.2-.2.28-.14.17-.26.36-.44.48-.22.15-.49.23-.74.33-.09.04-.19.06-.29.08-.15.03-.3.06-.44.09l-.06.06-.07.06c-.22.04-.43.09-.65.12-.24.03-.48.04-.72.05-.1,0-.2-.02-.3-.03-.16,0-.31,0-.46-.01-.19-.01-.37-.05-.56-.05-.17,0-.33.02-.5.01-.17,0-.33-.03-.5-.02-.22,0-.43.04-.65.06-.21.01-.41,0-.62.03-.42.05-.84.14-1.26.19-.22.02-.45.01-.66-.03-.3-.06-.6-.16-.89-.25-.09-.03-.19-.06-.26-.12-.2-.16-.44-.27-.69-.31-.23-.04-.41-.17-.61-.26-.13-.06-.25-.14-.38-.19-.27-.11-.55-.22-.76-.44l-.14-.12c-.25-.16-.5-.32-.75-.49l-.11-.11c-.12-.1-.23-.24-.37-.28-.18-.06-.39-.06-.59-.07-.21-.01-.42-.02-.63,0-.13,0-.27.03-.39.08-.16.06-.3.16-.45.24l-.15.26c.1.08.14.23.31.22l.05.04.06.09.15.17v.07s0,.18,0,.18c.08.11.16.22.23.34v.06s-.09.13-.09.13l.05.17c.05.16.08.33.16.48.11.21.26.39.39.58l.03.06h-.06c-.22-.04-.44-.08-.66-.11l-.14.07v.07c.14.21.28.41.4.62.16.25.39.42.62.59l.06.05-.08.03c-.18,0-.36,0-.54,0l-.14.07.02.15.19.21c.24.21.48.41.72.61l-.17.14-.03.12.14.15.21.17c.13.16.3.26.48.35l.14.17c.02.12.07.21.18.26l.2.07.08.06-.08.05c-.29.17-.35.33-.16.55.16.18.41.22.63.27.11.03.23.02.34.03l.03.06-.08.22c-.03.1-.08.22.07.28v.06c-.08.14-.17.27-.24.41l-.05.27c.07.17.27.18.42.23l.23.05.02.06c-.09.19-.19.38-.28.57l.06.16c.11.04.21.09.32.12.17.05.23.14.25.32,0,.13.04.25.05.38v.2s.03.19.03.19l.08.21c.03.12.06.25.13.33l.13.22c.04.22.14.4.28.57l.21.22.17.06.09.03.16.06.09.07c.03.16.06.19.23.2l.08.05.14.11c.07.03.22,0,.17.17l.02.03c.08.11.19.19.33.19l.07.08.03.08c.05.09.14.12.23.16.17.05.25.21.36.33.09.1.14.21.17.35l.08.2c.08.12.12.25.08.4-.03.1-.05.21-.06.32-.03.21-.06.43-.09.65-.02.12-.07.24-.1.36-.04.18-.09.36-.13.54l-.04.16-.05.25-.04.11c-.03.14-.04.29-.09.42-.07.21-.17.42-.25.63l-.11.25c-.12.2-.24.4-.37.59-.09.12-.21.24-.33.32-.2.12-.41.22-.62.32l-.09.03-.17.08.04.12.16.04c.17.08.33.2.53.2l.15-.03.2-.18c.09-.07.18-.14.28-.18l.15.1-.05.26c-.01.18-.14.34,0,.53.07.1.14.17.27.17l.1.02c.18.09.37.18.53.29.18.12.38.15.58.15.17,0,.34.01.51-.05.14-.05.3-.06.46-.07l.22.04.14.07.13-.02v-.14c-.08-.18-.19-.35-.4-.41l-.12-.07.11-.04h.02c.12-.09.24-.1.37-.07.11.03.23.05.34.04.2,0,.4-.01.6-.04.16-.03.32-.08.47-.13.12-.04.22-.1.36-.07.15.04.26.13.36.24l.07.04.04-.07c-.04-.11-.1-.22-.13-.33-.1-.34-.59-.54-.86-.47-.09.02-.19.05-.28.05-.3,0-.6,0-.9.01-.11,0-.22.02-.32,0-.25-.04-.5-.03-.76-.01-.21.02-.43,0-.64,0-.09,0-.2-.05-.2-.17,0-.22,0-.44.04-.65.04-.21.13-.42.2-.63.05-.16.09-.33.14-.49.08-.26.18-.53.26-.79.11-.31.17-.64.35-.93l.13-.25c.13-.17.26-.34.41-.5l.2-.12c.19,0,.35-.06.51-.13l.25-.15c.14-.13.26-.27.38-.41l.09-.14c.04-.14.12-.25.23-.34.1-.08.21-.15.31-.21.08-.05.16-.13.27-.08h.04c.14-.09.28-.16.41-.25.13-.09.26-.16.42-.19l.06.02c.11.1.21.22.33.31.15.11.31.22.47.32.16.09.32.18.49.25.1.05.2.14.33.04l.05.02c.1.14.19.28.29.42.19.29.39.57.59.85.08.11.17.22.24.33.12.21.24.42.35.63.12.22.23.43.34.65.08.15.16.3.22.46.06.16.14.32.15.49.02.24-.08.46-.24.64-.08.09-.18.17-.25.27-.08.1-.16.17-.28.22l-.11.19.05.04h.11c.13-.02.27-.04.4-.04.17,0,.35,0,.48-.13.08-.08.14-.18.21-.27.08-.12.14-.12.23-.02.09.1.17.21.26.3l.22.2c.18.07.37.1.56.15.13.04.27.03.4.02.24-.02.48-.02.72-.01.1,0,.18.07.28.08l.15-.05v-.16c-.15-.1-.28-.21-.41-.31.12-.03.25-.05.38-.09.25-.08.5-.1.76-.1.32,0,.65.03.98-.03.17-.04.34-.06.48-.18.11-.09.32-.05.42.06l.1.02.05-.14-.16-.2c-.15-.11-.29-.25-.49-.27-.12-.01-.23-.02-.35-.03h-.23c-.27.04-.54.11-.81.15-.15.02-.31-.01-.47-.02-.2,0-.4-.03-.61-.03-.2,0-.4.01-.59.05-.13.02-.3-.05-.34-.18l-.11-.2-.14-.17c-.08-.1-.17-.19-.25-.28-.16-.18-.32-.36-.46-.55-.15-.21-.28-.44-.42-.66-.25-.39-.5-.77-.74-1.15-.14-.22-.3-.44-.42-.67-.1-.19-.16-.41-.23-.62l.03-.13c.1-.07.21-.11.31-.17l.07-.06c.08-.12.13-.26.23-.37.18-.19.22-.43.28-.67.05-.2.12-.39.18-.59v-.1s-.06-.26-.06-.26c0-.15,0-.31,0-.46,0-.1.04-.16.12-.21.16-.08.32-.17.48-.24.09-.05.19-.07.29-.12.14-.06.27-.13.41-.19.19-.08.38-.15.57-.24.22-.11.43-.22.64-.35.13-.09.25-.21.37-.31l.15-.14c.1-.14.18-.28.26-.42.07-.12.12-.25.18-.37.1-.21.21-.41.32-.62.11-.2.22-.4.34-.59.07-.12.16-.24.24-.36.08-.12.15-.24.22-.36l.16-.24c.1-.3.26-.56.43-.82l.06-.07c.11-.17.25-.32.32-.5.13-.33.21-.68.31-1.02.05-.16.08-.33.12-.5.03-.13-.03-.27.09-.38v-.06s0-.25,0-.25c-.04-.33-.08-.65-.14-.98-.04-.22-.12-.43-.17-.64l.3-.03c.15-.07.31-.17.43-.29.22-.21.33-.49.39-.78.05-.2.08-.41.15-.61.09-.24.09-.48.01-.72-.05-.17-.15-.33-.23-.49l-.03-.07h.07c.21.07.42.14.62.21l.18.03c.11.03.22.08.34.1l.2-.02.07-.18c-.03-.12-.08-.24-.13-.36"/>
        <path class="cls-6" d="M74.59,165.53l.62-.93v-.46c-.31.46-.77.92-.77,1.54,0,0,.15,0,.15-.15M74.9,166.92l.46-.77c.46-.77.92-1.54,1.08-2.47-.15.15-.31.31-.31.46l-1.69,3.08c-.15.15,0,.15,0,.31.15-.31.31-.46.46-.62M70.27,165.53c.31-.46.62-.93.77-1.54.15-.15.31-.46.15-.62-.31.46-1.23,2-1.54,2.62.31,0,.46-.31.62-.46M67.96,153.82c1.39-2,2.62-4.16,3.54-6.47-1.23,2-2.47,4.16-3.7,6.32,0,0,0,.16-.15.31.15-.15.31-.15.31-.15M67.34,153.51c.92-1.54,1.69-3.08,2.47-4.62v-.31l-2.77,4.62c0,.15-.15.31-.15.46q.31-.15.46-.15M65.03,153.51l.62-1.08c.46-.77.92-1.54,1.39-2.47-.15,0-.31.15-.31.31l-1.69,2.62-.31.77c.15-.15.31-.15.31-.15M62.41,153.82c.16-.16.31-.31.31-.46.77-1.08,1.54-2.16,2-3.39.15-.15.15-.31.31-.62-.15,0-.31.15-.31.31l-1.08,1.39s0-.15-.15-.15v.15c-.15,0-.15.15-.15.31-.15.15-.31.31-.31.46q-.15.15-.15.31-.15.15-.15.31l-.15.16-.16.31c-.15.15-.31.15-.31.31,0,.31-.15.46-.15.93l.46-.31ZM63.64,168.92c1.39-.77,2.62-1.69,3.7-2.77,1.23-1.23,2.16-2.47,2.62-4.01.31-.77.46-1.39.31-2.16-.15-.31-.15-.62-.31-.92-.31-.62-.77-.93-1.39-.93-.31.15-.46.15-.77.15l-5.24.62-.77.15c-.15.31-.15.62-.15.77,0,3.24.15,6.47,0,9.56,0,.15.15.31.15.46l1.85-.93ZM61.95,151.2c1.23-1.85,2.16-3.7,3.08-5.55,1.08-2.16,2.16-4.47,2.93-6.94.62-1.54.93-2.93,1.08-4.47,0-.77,0-1.54-.15-2.31,0-.15-.15-.31-.31-.46h-1.54l-4.01.92-1.08.46c-.31,0-.46.31-.62.62v.31c0,1.69-.15,3.24-.15,4.93-.15,4.16.15,8.32.15,12.48,0,.15.15.31.15.46h.15l.31-.46ZM61.33,169.38c.15-1.7,0-9.71-.31-10.63l-.15.15v.77c0,2.16.15,4.16.15,6.17v2.93c0,.31,0,.62.31.92v-.31ZM61.02,152.58v-.62c-.15-1.54-.15-3.08-.15-4.78-.15-1.54-.15-3.24-.15-4.78v-3.85c.15-1.39.15-2.62.15-4.01-.31.31-.15.62-.15.77,0,.62,0,1.23-.15,1.69,0,1.85-.15,3.7-.15,5.55,0,3.24.15,6.32.15,9.4,0,.31.15.62.15.93l.31-.31ZM60.1,158.75c-.15.92,0,4.62.15,5.55.15-1.39,0-4.93-.15-5.55M60.1,153.82v-1.08c0-2.77-.15-5.55-.31-8.32v-4.01c-.31,4.47,0,8.94,0,13.41v.15h.15v.16c.15-.16.15-.31.15-.31M57.94,145.34c-.15,5.09,0,10.33.31,15.41.31-5.09-.15-10.33-.31-15.41M56.86,168.92c0-1.39-.15-2.77-.15-4.01l-.46-10.02c0-1.85-.15-3.7-.31-5.55,0-1.54-.15-2.93-.15-4.47,0,.77-.15,1.54,0,2.31v5.7c-.31,1.23-.15,2.62,0,3.85,0-.77,0-1.69.15-2.16,0,2,.15,4.16.15,6.47,0,1.39.15,2.62,0,4.01v4.32c0,.62,0,1.39.15,2,0,0,0,.15.15.31.31-1.08.46-1.85.46-2.78M56.56,176.16v-.92c0-.16,0-.46-.15-.77-.15.15-.15.31-.15.31-.15.31-.15.46-.15.77,0,.15,0,.31-.15.46,0,.31-.31.31-.46.15-.46-.15-.62-.46-.77-.77-.15-.31-.15-.62-.15-.77-.15-1.08-.15-2,.15-2.93.15-.77.15-1.7.15-2.47-.15-3.85-.15-7.71-.31-11.71l-.46-12.18v-7.09c.15-.62,0-1.23.15-1.85,0-.77,0-1.39.15-2.16,0-.46,0-1.08-.31-1.39-.15-.31,0-.62,0-.77l-.62-.15c-.46-.92-.46-1.39.31-2,.46-.31.93-.77,1.23-1.23.15-.31.31-.46.77-.46l.31.31h.15c.77-.31,1.54-.62,2.31-.77,1.39-.46,2.93-.93,4.47-1.08,1.39-.31,2.62-.31,4.01,0,.31,0,.46.15.77.15,2,.77,3.85,1.85,5.4,3.39,1.23,1.23,2,2.77,2.31,4.47-.15,3.85-1.08,8.02-3.24,12.33-1.08,2.16-2.16,4.16-3.39,6.17-.15.31-.31.62-.46.77.15.31.46.31.77.46.93.31,2,.77,2.93,1.23,1.08.77,2.16,1.54,3.08,2.47.62.77,1.08,1.39,1.54,2.31.46.77.46,1.7.31,2.62-.15.92-.46,1.85-1.08,2.77-2,3.54-5.24,6.01-9.09,7.71-1.08.62-2.31.92-3.39,1.39-.46.15-.77.31-1.23.31-.15,0-.31-.16-.62-.16-.15-.15-.46-.15-.62,0,0,.16-.15.16-.15.16-.62,0-1.08.31-1.54.46-.31,0-.62.15-.77-.15-.15.15-.31.46-.46.46-.15.46-.46.62-.92.46-.31,0-.46-.16-.62-.31"/>
        <path class="cls-6" d="M179.48,119.99l-.03.08c-.09-.06-.18-.12-.28-.18l.11-.2.11.05.1.25ZM158.54,135.74h0s0,0,0,0h0s-.01,0-.01,0ZM181.45,119.29c.03-.28-.05-.54-.18-.77-.07-.13-.23-.23-.37-.3l-.26.13-.1.27c-.02.23-.02.46-.04.7,0,.11-.06.21-.1.31l-.07.04-.04-.06c-.04-.11-.07-.23-.13-.33-.13-.2-.29-.39-.53-.48-.22-.08-.44-.08-.66.02-.13.05-.27.07-.35.2-.14.22-.24.45-.25.72-.02.45.22.74.56.98.14.1.14.15,0,.26l-.12.08h-.11c-.28-.34-.62-.59-.96-.84-.24-.17-.51-.29-.75-.46-.37-.26-.77-.44-1.17-.62-.21-.09-.45-.11-.68-.15-.41-.06-.81-.12-1.22-.17-.24-.02-.48-.01-.72.01-.4.04-.79.08-1.18.15-.53.09-1.06.21-1.6.31-.14.03-.76.27-1.08.32-.31.04-.63.06-.95.1-.38.04-.76.09-1.14.14-.19.02-.39.04-.58.05-.2.01-.4.02-.6.02-.26,0-.51-.02-.77-.03h-.25c-.37,0-.73-.03-1.1-.01-.19,0-.37,0-.55-.02-.15-.03-.3-.05-.45-.07-.25-.02-.5-.05-.75-.06-.28,0-.56,0-.84,0-.23,0-.46.02-.69.02l-.24-.05c-.61-.13-1.23-.07-1.85-.08-.33,0-.67.06-1,.09-.25.03-.49.05-.73.11-.21.04-.42.13-.63.2-.11.03-.21.05-.32.08-.23.06-.45.13-.68.17-.15.02-.3.01-.45-.01-.47-.08-.91.03-1.35.2-.34.14-.69.27-1.04.4-.12.04-.25.07-.37.08-.38.04-.7.21-1.03.38l-.25.12-.17-.05c-.07-.14-.16-.26-.24-.4-.14-.25-.36-.4-.61-.52-.19-.09-.38-.18-.56-.28l-.1-.07-.26-.12c-.13.02-.19.15-.2.29,0,.23,0,.46.01.69v.05s.03.11.03.11l-.11-.06-.21-.2c-.11-.1-.28-.02-.3.14-.02.17,0,.36.03.53.04.17.12.33.17.5.03.11.03.23.05.35.04.25.15.45.4.54l.19.17-.03.08c-.2.19-.36.4-.49.65l-.09.22c-.04.11-.07.19-.19.26-.22.13-.41.32-.6.5-.3.29-.59.57-.99.72-.27.11-.55.21-.82.32-.1.04-.28-.06-.36-.14-.12-.14-.28-.18-.44-.09-.1.05-.14.16-.11.26.07.22.18.42.26.64.05.14.1.28.13.42.06.24.17.45.32.63.19.23.19.22.48.11.12-.04.23,0,.29.11.07.13.17.18.31.15.11-.03.18.03.24.09.74,1.52,2.22.82,3.15,1.19,4.96,1.93,7.07,2.03,7.96,1.82.01.12.03.25.04.37v.18c-.08.42-.16.84-.22,1.27-.03.18-.02.36-.03.55-.01.19-.02.38-.06.57-.03.13-.11.25-.19.36-.28.38-.57.76-.87,1.13-.12.15-.27.29-.41.42l-.02.22c.11.11.17.22.14.38-.03.16.11.22.19.25.18.07.37.11.57.13.2.02.41,0,.61-.01l.15-.11c.08-.1.15-.2.21-.31.09-.19.17-.4.25-.6l.03-.1h.05c-.01.21-.02.41-.04.62,0,.1.04.21.14.21l.2-.13c.08-.26.14-.54.21-.81.04-.17.09-.33.15-.49l.17-.26c.1-.15.19-.3.29-.45.1.29.17.58.07.91-.08.27-.16.55-.18.83-.03.38-.16.7-.38,1-.17.23-.33.47-.47.72v.24s.05.23.05.23c-.07.29.13.44.32.43.3-.02.61-.04.91-.1.2-.04.38-.17.56-.27l.13-.08c.15-.07.19-.19.15-.35-.03-.13-.02-.27-.02-.41l.04-.27h.04c.03.19.06.38.08.56.01.12,0,.26.02.37l.18.19c.1.04.17-.03.21-.14.05-.15.15-.29.2-.45.06-.16.12-.32.15-.49.02-.19.02-.39,0-.58-.05-.39-.14-.77-.18-1.16-.03-.3.04-.6.14-.89.09-.26.13-.53.2-.8.08-.32.16-.63.23-.96.05-.21.07-.43.1-.64.04-.24-.08-.1-.01-.34.05.06.11.12.16.18.44.5.93.54,1.5.56.38.18.78.22,1.2.22.4,0,.66.11,1.04.18.88.17,1.92,0,2.82,0,.35,0-.68,0-.34,0,.4,0,1.74-.16,2.08-.17.42-.02.79-.17,1.19-.35.2-.09.43-.18.66-.28.02.13,0,.26,0,.4-.05.37-.05.76-.14,1.12-.1.41-.25.81-.6,1.11-.22.19-.45.39-.56.68-.09.22-.19.43-.29.64-.04.1.04.22.14.24h.14s.08.11.08.11c-.03.11.07.13.14.16.2.09.4.13.63.12.29-.02.5-.15.65-.39.08-.12.13-.27.2-.4l.13-.19v.1c-.13.13-.02.24.04.35l.15.05.09-.08c.08-.16.16-.33.24-.49l.06-.23v-.12c.04-.31.05-.63.12-.93.06-.27.1-.55.26-.79.11-.17.19-.36.27-.55.12-.26.26-.53.33-.81.04-.17-.02-.37-.05-.55-.03-.2-.04.04-.04-.17,0-.13.08-.26.13-.39l.09.02c.05.2.04-.03.09.18l.08.23c.03.29.05.58.07.87l.03.14c.1.3.18.6.29.89.1.26.03.51,0,.77-.04.3-.08.6-.1.9-.02.19-.01.39-.03.58l-.09.25c-.18.22-.28.49-.4.75-.15.32-.25.69-.53.93-.08.07-.05.24.04.38l.02.13c-.07.2,0,.27.17.36.18.09.37.12.55.18l.1.02c.18-.02.35-.03.53-.06.18-.04.33-.15.4-.33.08-.19.14-.39.21-.58.03-.09.07-.18.12-.3.05.24.09.44.15.64l.12.2.22-.17c.05-.11.05-.24.08-.37.04-.17.08-.35.11-.52.03-.21.04-.42,0-.64-.04-.18,0-.38,0-.56.01-.17.03-.35.06-.52.1-.47.19-.94.32-1.4.06-.22.18-.42.28-.63.08-.17.17-.32.19-.52.02-.36.1-.72.11-1.07,0-.39-.03-.78-.06-1.17-.02-.29.1-.5.28-.69.21-.23.41-.47.61-.71.12-.14.23-.28.34-.41.31-.37.64-.72.86-1.16.12-.24.28-.47.4-.72.18-.35.26-.73.31-1.12.02-.22.1-.44.1-.65.01-.29,0-.58-.02-.87-.04-.36-.08-.72-.17-1.07-.05-.2-.17-.39-.27-.57-.05-.11-.1-.22-.17-.32l-.16-.2-.07-.14-.05-.11c-.14-.08-.03-.16,0-.22l.18-.23c.11-.18.2-.37.3-.55l.03-.04c.19-.11.37-.24.57-.33.18-.08.3-.21.39-.37.17-.34.27-.7.31-1.09"/>
        <path class="cls-6" d="M149.81,128.67c.55-.03,1.23.54,1.57.95.21.25.34.47.64.67.29.19.54.42.82.64.4.32.82.49,1.25.7.13.06.25.19.37.25.18.08.37.1.54.18.49.22,1.16.25,1.72.3.38.04.79,0,1.17,0,.15,0,.62.1.73,0,.13-.11.05-.28.04-.44-.02-.55.06-1.13.2-1.66.06-.22.14-.4.03-.62-.37-.68-1.59-.62-2.22-.72-1.07-.16-2.19-.53-3.27-.6-.38-.03-.68.03-1.05.1-.31.06-.64,0-.94.08-.42.12-.8.11-1.25.11"/>
        <path class="cls-6" d="M157.9,132.1s7.52,4.74,16.1.63c1.12-.44,3.23-2.97,3.23-2.97l-19.33,2.34Z"/>
        <path class="cls-6" d="M173.8,132.77c.63,0,1.33-.02,1.91-.26.17-.07.34-.16.5-.26.13-.08.28-.15.4-.25.08-.07.13-.08.22-.13.17-.08.29-.17.47-.23.14-.04.24-.12.37-.17.1-.03.19-.07.29-.1.14-.04.18-.07.3-.16.14-.1.3-.15.43-.25.36-.28,1.39-.47,1.77-2.57-.02,0,.09-.29.12-.47.03-.19.11-.35.11-.57,0-.19,0-.39,0-.58,0-.27-.06-1.54-.11-1.93-.03-.21-.5-.89-.59-.91-.09-.02-.22-.03-.31-.01-.03,0-.06,0-.09,0-.03.02-.06.05-.09.07-.23.16-.47.32-.72.46-.8.51-1.33,1.19-1.91,1.89-.39.48-.87.92-1.17,1.46-.28.51-.35,1.18-.46,1.74-.08.41-.14.82-.19,1.23-.02.14-.02.27-.05.4-.07.27-.27.53-.42.77-.11.17-.27.31-.39.46-.06.07-.11.14-.17.22-.05.07-.12.17-.21.2"/>
        <path class="cls-6" d="M147.92,124.92c0-.38-.12-1.05.07-1.39.09-.17,1-.87,1.09-.64"/>
        <path class="cls-6" d="M145.67,126.02c.07-.09.2-.16.27-.23.11-.1.24-.15.36-.24.14-.11.2-.28.35-.39.05-.03.12,0,.17-.03.05-.03.12-.1.17-.14.11-.07.22-.11.34-.13.07-.01.17.02.24,0,.07-.02.11-.07.17-.09.29-.09.85-.06.75.38"/>
        <path class="cls-4" d="M191.64,90.4c.29,0,.53-.09.72-.27s.29-.4.29-.67c0-.24-.09-.46-.28-.66-.19-.2-.4-.3-.63-.3-.25,0-.47.1-.66.3-.19.2-.28.43-.28.68,0,.24.08.45.25.63.17.19.36.28.58.28M185.57,90.42c.1,0,.2-.19.3-.58.22-.74.46-2.07.71-3.98.18-1.32.37-2.72.56-4.21l.23-1.67c.34-2.75.55-4.65.63-5.7l.38-3.42-.53-.28c-.35,0-.66.17-.91.51,0,1.37-.08,2.82-.23,4.34-.15,1.53-.39,3.46-.71,5.79-.15,1.01-.36,2.53-.63,4.56l-.68-4.48c-.42-2.75-.85-5.22-1.29-7.4-.42-2.16-.78-3.24-1.06-3.24-.39,0-.62.16-.68.48.19.96.7,3.99,1.54,9.09.76,4.78,1.36,8.08,1.8,9.9.15.18.35.28.58.28M178.51,90.4c.29,0,.53-.09.72-.27s.29-.4.29-.67c0-.24-.09-.46-.28-.66-.19-.2-.4-.3-.63-.3-.25,0-.47.1-.66.3-.19.2-.28.43-.28.68,0,.24.08.45.25.63.17.19.36.28.58.28"/>
        <path class="cls-4" d="M172.54,75.51c.66,0,1.21.21,1.67.62.46.41.69.98.69,1.69l-.04,1.19c-.04.54.01.84.01,1.09,0,.18-.03.55.05.9.07.4.15.82.05,1-.46.8-3.65.5-3.65.5-.2,0-.37-.06-.5-.17s-.2-.27-.2-.48c0-.34.24-.51.72-.51h.41c.22,0,1.95,0,2.04-.04v-1.03c0-2.39-.33-3.59-.99-3.59-.25,0-.49.08-.72.25-.21.15-.37.33-.5.55-.13.22-.24.5-.34.86-.18.61-.29,1.33-.35,2.15-.04.88-.06,1.58-.06,2.08s.03,1.25.08,2.26c.08,1.09.23,2.1.45,3.03.12.48.27.85.45,1.12.18.27.38.4.62.4.08,0,.15,0,.21-.02.07-.02.14-.02.23-.02.18,0,.33.06.46.17.13.11.2.26.2.44,0,.37-.29.56-.88.56-.33,0-.62-.05-.86-.16-.52-.19-.92-.54-1.21-1.05-.3-.51-.51-1.1-.64-1.77-.15-.75-.24-1.46-.27-2.13-.03-.55-.04-1.26-.04-2.13v-2.2c.01-.39.04-.85.08-1.39.04-.54.09-.95.16-1.23.07-.37.18-.76.33-1.17.15-.4.32-.71.49-.92.22-.25.49-.46.8-.62.31-.16.66-.24,1.05-.24"/>
      </g>
    </g>
  </g>
</svg>