<?xml version="1.0" encoding="UTF-8"?>
<svg id="Ebene_1" data-name="Ebene 1" xmlns="http://www.w3.org/2000/svg" version="1.1" viewBox="0 0 70.9 70.9">
  <defs>
    <style>
      .cls-1 {
        fill: #000;
        stroke-width: 0px;
      }
    </style>
  </defs>
  <path class="cls-1" d="M65.8,48.7l-8.1-4.9c-2.9-1.7-6.5-1.3-8.8,1.1h0l-4,4c-.8.8-2,.8-2.8,0l-20.2-20.2c-.8-.8-.8-2,0-2.8l4-4c2.3-2.3,2.8-6,1.1-8.8l-4.9-8.1c-1.2-1.9-3.1-3.2-5.3-3.5-2.2-.3-4.4.5-6,2.1l-1.6,1.6C2.1,12.4-.4,22.8,2.8,32.5c1.3,3.9,3.5,7.5,6.5,10.4l18.6,18.6c2.9,2.9,6.5,5.1,10.4,6.4,2.8.9,5.7,1.4,8.5,1.4,6.9,0,13.7-2.7,18.8-7.8l1.6-1.6c1.6-1.6,2.3-3.8,2.1-6-.3-2.2-1.5-4.2-3.5-5.3h0ZM63.5,56.3l-1.6,1.6c-5.8,5.8-14.2,7.8-21.9,5.2-3.1-1-6-2.8-8.4-5.2l-18.6-18.6c-2.3-2.3-4.1-5.2-5.2-8.4-2.6-7.8-.6-16.2,5.2-21.9l1.6-1.6c.5-.5,1-.6,1.4-.6s.2,0,.2,0c.4,0,1,.2,1.4.9l4.9,8.1c.5.8.3,1.8-.3,2.4l-4,4c-2.8,2.8-2.8,7.4,0,10.2l20.2,20.2c2.8,2.8,7.4,2.8,10.2,0l4-4c.6-.6,1.6-.8,2.4-.3l8.1,4.9c.7.4.9,1.1.9,1.4,0,.6-.1,1.2-.6,1.6h0Z"/>
  <path class="cls-1" d="M34.9,7.8c6.9-2.8,15.8-.3,22.1,6,6.3,6.3,8.8,15.2,6,22.1-.5,1.3.1,2.9,1.5,3.4.3.1.7.2,1,.2,1,0,2-.6,2.4-1.7,3.5-8.8.6-20-7.2-27.8C53,2.3,41.8-.6,33,2.9c-1.3.5-2,2.1-1.5,3.4.5,1.4,2.1,2,3.4,1.5h0Z"/>
  <path class="cls-1" d="M53.8,36.6c.3.1.7.2,1,.2,1,0,2-.6,2.4-1.7,2.2-5.5.4-12.3-4.3-17.1-4.8-4.8-11.7-6.5-17.1-4.3-1.3.5-2,2.1-1.5,3.4.5,1.3,2.1,2,3.4,1.5,3.5-1.4,8.1-.1,11.4,3.2,3.3,3.3,4.6,7.9,3.2,11.4-.5,1.3.1,2.9,1.5,3.4Z"/>
  <path class="cls-1" d="M44.1,37.3c.3.1.7.2,1,.2,1,0,2-.6,2.4-1.7,1.3-3.2.3-7.2-2.5-10-2.8-2.8-6.8-3.7-10-2.5-1.3.5-2,2.1-1.5,3.4.5,1.4,2.1,2,3.4,1.5,1.3-.5,3,0,4.3,1.3,1.3,1.3,1.8,3,1.3,4.3-.5,1.3.1,2.9,1.5,3.4h0Z"/>
</svg>
