<?xml version="1.0" encoding="UTF-8"?>
<svg id="Ebene_1" xmlns="http://www.w3.org/2000/svg" version="1.1" viewBox="0 0 141.7 141.7">
  <!-- Generator: Adobe Illustrator 29.3.1, SVG Export Plug-In . SVG Version: 2.1.0 Build 151)  -->
  <defs>
    <style>
      .st0 {
        fill: #a7c1bf;
      }

      .st1 {
        fill: #a1a59b;
      }

      .st2 {
        fill: #a8b598;
      }

      .st3 {
        fill: #fff;
      }

      .st4 {
        fill: #bfdce2;
      }

      .st5 {
        fill: #87868f;
      }

      .st6 {
        fill: #5194a1;
      }

      .st7 {
        fill: #95b7c1;
      }
    </style>
  </defs>
  <path class="st3" d="M121.1,68.5c-1.7-7.9-3.5-13-5.4-15.1-.3-.3-.7-.7-.9-1.2l-.6-1.2.7-1.2c4.2-7.3,6.1-20.3,6.3-24.3,0-1.5-.6-2.7-1.7-3.5-1.9-1.1-4.4,0-6.6,1.2h0c-3.3,1.9-6.3,4.1-8.8,5.8l-4.1,2.9.2-5v-7.1c0-1.2-.4-3.1-2.3-5.2-2.4-2.6-8-4-15.5-3.8-4.1.2-7.6,2.2-10.8,6.2l-3.1,3.9-1.3-4.8c-1-4-2.4-5.2-3.3-5.9-1-.7-2.1-.9-3.3-.6h-.4c-11.9,3.2-16,5.2-17.4,6.2-2.9,1.9-4.5,4.4-5.1,7.8-.2,1.1.2,3.1,1.1,5.9l1.6,4.9-4.8-1.7c-2-.7-4.1-1.3-6.1-1.8-2.2-.5-4.2,0-5.5,1.8-1.6,2-1.8,5.4-.4,8.5,1.5,3.5,4.8,9.9,5.2,10.6l.3.5h0c2.6,3,5.8,5.8,9,8l4.4,3-5.1,1.5c-1.6.5-3.1,1-4.7,1.6-6.5,2.4-10.6,4.9-12.2,7.3-3.8,5.9,1,28.4,2.8,30.9,1.7,2.3,4.9,2.7,8.8,1.3,1.8-.6,5.1-2.1,8.8-4l5.2-2.6-1.7,5.5c-1.5,4.9-1.4,8.7.3,11.3,1.7,2.8,6.1,6.7,13.4,9.4,1,.4,3.6.9,8.9.4,5-.6,7.5-3.4,8.7-5.7l2.4-4.6,2.1,4.8c1.7,3.9,3.4,7.3,4.3,9,1.2,2.2,3.5,3,4.6,3.1h.9c1.1,0,2.4-.2,3.4-.5h.2c2.3-.8,4.8-1.7,6.4-2.6,2.7-1.6,3.1-4.8,3.1-8.1s-.3-14.3-1.1-24.3l-.3-3.6,3.4.9c3,.8,5.8,1.3,8,1.4,2.4,0,5.4-.9,7-2.2,1.9-1.7,2.5-4.7,2.9-7.7.5-5-.9-13.3-1.8-17.5v.2h0ZM79.5,67c-.7.3-1.9.8-3.5,3.1l-1.4,2.1-2.1-1.4c-.8-.6-1.8-.9-3-.9s-.4,0-.5,0l-3.6.9.7-4.7v-.3c.5-.9.6-2.1.6-3.5v-4.3l3.7,2.1c.5.3,1,.5,1.6.6,2.3.6,4.8.8,7.3.7h2.6c0,0,0,1.7,0,1.7l2.5,2.5-4.9,1.2v.2h0Z"/>
  <path class="st4" d="M69.4,28.2c.7-3.5,1.8-7,3.2-8.8,1-1.4,4.2-6,9.8-6.2,1.1,0,10.6-.3,13.6,3,.5.5,1.7,1.9,1.7,3.6.5,11.9-2.3,27.5-4.4,32.9-.4,1.1-.5,2.1-2.4,3.2-1.9,1-9.7,4.3-17.9,2.2-1.4-.4-3.1-2-4.1-3.9s-1.4-3-1.8-5.4c-.7-5,1.6-17.2,2.3-20.5"/>
  <path class="st2" d="M112.8,54c3.5,0,8.6,23,7.5,31.4-.4,3.1-1,5.2-2.1,6.2-.9.8-3.3,1.6-5.3,1.5-8.5-.2-25.1-8.1-25.9-8.9s-3.2-2.4-3.1-5.6c0-3.2.2-6.9.3-8.1,0-1.2.5-2.7,1.3-3.6.8-1,22-13,27.3-13"/>
  <path class="st6" d="M80.6,69c5.4-.4,11.2,7,12.6,8.7,1.7,2,4,4.8,5,10,1.6,8,2.2,29.7,2.2,33.4s0,4.9-1.8,6c-1.7,1-5.3,2.1-6.2,2.4-.9.3-2.6.4-3,.3-.5,0-2.1-.5-2.9-1.9-2.8-4.9-14.5-32.3-15.1-37.4-.2-1.7,0-4,.5-5.7.5-1.6,3.2-7.3,3.2-7.3,0,0,2.8-7.7,5.5-8.6"/>
  <path class="st5" d="M25.5,39.9c1.5,3.5,5.2,10.6,5.2,10.6,0,0,3.3,4,8.6,7.6,5.3,3.6,7.6,5.3,10.7,7.1,3,1.8,4.4,2.9,7.2,2.8,2.7,0,5.6-1,6.7-2.8,1.1-1.7.8-5.4-.6-8.7-1.3-3.1-3.5-7.7-5.1-9.2s-6.4-4.2-8.2-5.3c-5.7-3.6-16.6-7.8-21.3-8.8-4-.8-4.7,3.3-3.2,6.8"/>
  <path class="st2" d="M43.9,17.8c-.8.5-3.4,2.2-4,5.9-.3,2.2,2.3,8.2,3.3,10.1,1,2,3.4,6.2,4.2,7.5,4.6,7,12.8,11.9,13.7,12.2,1.5.5,3.3.9,4,.8.7,0,2.8-1.9,3.1-3.1,1.1-5.1-1.7-20.9-1.8-21.9,0-1-.4-3.4-.8-6.1-.9-6.8-2.3-12-4.8-11.3-.7.2-13.3,3.3-17,5.8"/>
  <path class="st0" d="M65.9,74.2c-.2.4-2.9,3.9-4.6,6.2-1.7,2.3-4.8,6-5.6,7.5s-7.6,12.1-8.6,16c-.4,1.4-2.7,7.2-.4,10.7,1.4,2.1,5.3,5.9,12.1,8.4,1.6.6,4.8.5,7.8.2,6-.7,7.7-5.4,8-8.2.4-3.3.7-16.6,1-18.5s.7-11.5.7-13.3-.7-6.2-1.7-7.5-1.7-2.2-2.9-3c-2.5-1.9-5.5,1.2-5.7,1.5"/>
  <path class="st7" d="M53.8,64.5c4.8.9,6.9,2.2,8.3,4.1,1.4,1.9,3.6,5,4.2,7,.7,2,1.1,4,.8,4.9-.3.9-1.3,2.8-3.3,4.6-2,1.8-5.6,4.3-8.4,6s-19.4,10.3-24.5,12.2c-1.4.5-4.5,1.4-6-.5-1.4-1.9-5.7-23.3-2.7-27.9,3.3-5.1,24.9-11.6,31.5-10.3"/>
  <path class="st1" d="M114.1,25.4c.5-.3,4.8-3,4.7-.1-.2,3.7-2,16.9-6.2,23.6-1.5,2.3-8.4,9.4-13.4,12.9-1.8,1.3-8.9,6.6-11.8,3.7s-2.4-2-2.4-2c0,0-.6-.7-.2-1.8.4-1.2,7.7-18.8,8.3-19.6.5-.8,9.5-9.8,21.1-16.5"/>
</svg>