<?xml version="1.0" encoding="UTF-8" standalone="no"?><!DOCTYPE svg PUBLIC "-//W3C//DTD SVG 1.1//EN" "http://www.w3.org/Graphics/SVG/1.1/DTD/svg11.dtd"><svg width="100%" height="100%" viewBox="0 0 434 513" version="1.1" xmlns="http://www.w3.org/2000/svg" xmlns:xlink="http://www.w3.org/1999/xlink" xml:space="preserve" xmlns:serif="http://www.serif.com/" style="fill-rule:evenodd;clip-rule:evenodd;stroke-linejoin:round;stroke-miterlimit:2;"><path d="M425.106,245.979c-7.083,-32.917 -14.583,-54.167 -22.5,-62.917c-1.25,-1.25 -2.916,-2.916 -3.75,-5l-2.5,-5l2.917,-5c17.5,-30.416 25.417,-84.583 26.25,-101.25c-0,-6.25 -2.5,-11.25 -7.083,-14.583c-7.917,-4.583 -18.334,0 -27.5,5c-13.75,7.917 -26.25,17.083 -36.667,24.167l-17.083,12.083l0.833,-20.833l-0,-29.584c-0,-5 -1.667,-12.916 -9.583,-21.666c-10,-10.834 -33.334,-16.667 -64.584,-15.834c-17.083,0.834 -31.666,9.167 -45,25.834l-12.916,16.25l-5.417,-20c-4.167,-16.667 -10,-21.667 -13.75,-24.584c-4.167,-2.916 -8.75,-3.75 -13.75,-2.5l-1.667,0c-49.583,13.334 -66.666,21.667 -72.5,25.834c-12.083,7.916 -18.75,18.333 -21.25,32.5c-0.833,4.583 0.834,12.916 4.584,24.583l6.666,20.417l-20,-7.084c-8.333,-2.916 -17.083,-5.416 -25.416,-7.5c-9.167,-2.083 -17.5,0 -22.917,7.5c-6.667,8.334 -7.5,22.5 -1.667,35.417c6.25,14.583 20,41.25 21.667,44.167l1.25,2.083c10.833,12.5 24.167,24.167 37.5,33.333l18.333,12.5l-21.25,6.25c-6.666,2.084 -12.916,4.167 -19.583,6.667c-27.083,10 -44.167,20.417 -50.833,30.417c-15.834,24.583 4.166,118.333 11.666,128.75c7.084,9.583 20.417,11.25 36.667,5.416c7.5,-2.5 21.25,-8.75 36.667,-16.666l21.666,-10.834l-7.083,22.917c-6.25,20.417 -5.833,36.25 1.25,47.083c7.083,11.667 25.417,27.917 55.833,39.167c4.167,1.667 15,3.75 37.084,1.667c20.833,-2.5 31.25,-14.167 36.25,-23.75l10,-19.167l8.75,20c7.083,16.25 14.166,30.417 17.916,37.5c5,9.167 14.584,12.5 19.167,12.917l3.75,-0c4.583,-0 10,-0.834 14.167,-2.084l0.833,0c9.583,-3.333 20,-7.083 26.667,-10.833c11.25,-6.667 12.916,-20 12.916,-33.75c0,-13.75 -1.25,-59.583 -4.583,-101.25l-1.25,-15l14.167,3.75c12.5,3.333 24.166,5.417 33.333,5.833c10,0 22.5,-3.75 29.167,-9.166c7.916,-7.084 10.416,-19.584 12.083,-32.084c2.083,-20.833 -3.75,-55.416 -7.5,-72.916l-0,0.833l-0.417,0Zm-173.333,-6.25c-2.917,1.25 -7.917,3.333 -14.583,12.917l-5.834,8.75l-8.75,-5.834c-3.333,-2.5 -7.5,-3.75 -12.5,-3.75c-5,0 -1.666,0 -2.083,0l-15,3.75l2.917,-19.583l-0,-1.25c2.083,-3.75 2.5,-8.75 2.5,-14.583l-0,-17.917l15.416,8.75c2.084,1.25 4.167,2.083 6.667,2.5c9.583,2.5 20,3.333 30.417,2.917l10.833,-0l-0,7.083l10.417,10.417l-20.417,5l-0,0.833Z" style="fill:#fff;fill-rule:nonzero;"/><path d="M209.69,78.062c2.916,-14.583 7.5,-29.166 13.333,-36.666c4.167,-5.834 17.5,-25 40.833,-25.834c4.584,0 44.167,-1.25 56.667,12.5c2.083,2.084 7.083,7.917 7.083,15c2.084,49.584 -9.583,114.584 -18.333,137.084c-1.667,4.583 -2.083,8.75 -10,13.333c-7.917,4.167 -40.417,17.917 -74.583,9.167c-5.834,-1.667 -12.917,-8.334 -17.084,-16.25c-4.166,-7.917 -5.833,-12.5 -7.5,-22.5c-2.916,-20.834 6.667,-71.667 9.584,-85.417" style="fill:#bfdce2;fill-rule:nonzero;"/><path d="M390.523,185.562c14.583,0 35.833,95.834 31.25,130.834c-1.667,12.916 -4.167,21.666 -8.75,25.833c-3.75,3.333 -13.75,6.667 -22.083,6.25c-35.417,-0.833 -104.584,-33.75 -107.917,-37.083c-3.333,-3.334 -13.333,-10 -12.917,-23.334c0,-13.333 0.834,-28.75 1.25,-33.75c0,-5 2.084,-11.25 5.417,-15c3.333,-4.166 91.667,-54.166 113.75,-54.166" style="fill:#a8b598;fill-rule:nonzero;"/><path d="M256.356,248.062c22.5,-1.666 46.667,29.167 52.5,36.25c7.084,8.334 16.667,20 20.834,41.667c6.666,33.333 9.166,123.75 9.166,139.167c0,15.416 0,20.416 -7.5,25c-7.083,4.166 -22.083,8.75 -25.833,10c-3.75,1.25 -10.833,1.666 -12.5,1.25c-2.083,-0 -8.75,-2.084 -12.083,-7.917c-11.667,-20.417 -60.417,-134.583 -62.917,-155.833c-0.833,-7.084 -0,-16.667 2.083,-23.75c2.084,-6.667 13.334,-30.417 13.334,-30.417c-0,0 11.666,-32.083 22.916,-35.833" style="fill:#5194a1;fill-rule:nonzero;"/><path d="M26.773,126.812c6.25,14.584 21.667,44.167 21.667,44.167c-0,0 13.75,16.667 35.833,31.667c22.083,15 31.667,22.083 44.583,29.583c12.5,7.5 18.334,12.083 30,11.667c11.25,-0 23.334,-4.167 27.917,-11.667c4.583,-7.083 3.333,-22.5 -2.5,-36.25c-5.417,-12.917 -14.583,-32.083 -21.25,-38.333c-6.667,-6.25 -26.667,-17.5 -34.167,-22.084c-23.75,-15 -69.166,-32.5 -88.75,-36.666c-16.666,-3.334 -19.583,13.75 -13.333,28.333" style="fill:#87868f;fill-rule:nonzero;"/><path d="M103.44,34.729c-3.334,2.083 -14.167,9.167 -16.667,24.583c-1.25,9.167 9.583,34.167 13.75,42.084c4.167,8.333 14.167,25.833 17.5,31.25c19.167,29.166 53.333,49.583 57.083,50.833c6.25,2.083 13.75,3.75 16.667,3.333c2.917,0 11.667,-7.916 12.917,-12.916c4.583,-21.25 -7.084,-87.084 -7.5,-91.25c-0,-4.167 -1.667,-14.167 -3.334,-25.417c-3.75,-28.333 -9.583,-50 -20,-47.083c-2.916,0.833 -55.416,13.75 -70.833,24.166" style="fill:#a8b598;fill-rule:nonzero;"/><path d="M195.106,269.729c-0.833,1.667 -12.083,16.25 -19.166,25.833c-7.084,9.584 -20,25 -23.334,31.25c-3.333,6.25 -31.666,50.417 -35.833,66.667c-1.667,5.833 -11.25,30 -1.667,44.583c5.834,8.75 22.084,24.584 50.417,35c6.667,2.5 20,2.084 32.5,0.834c25,-2.917 32.083,-22.5 33.333,-34.167c1.667,-13.75 2.917,-69.167 4.167,-77.083c1.25,-7.917 2.917,-47.917 2.917,-55.417c-0,-7.5 -2.917,-25.833 -7.084,-31.25c-4.166,-5.417 -7.083,-9.167 -12.083,-12.5c-10.417,-7.917 -22.917,5 -23.75,6.25" style="fill:#a7c1bf;fill-rule:nonzero;"/><path d="M144.69,229.312c20,3.75 28.75,9.167 34.583,17.084c5.833,7.916 15,20.833 17.5,29.166c2.917,8.334 4.583,16.667 3.333,20.417c-1.25,3.75 -5.416,11.667 -13.75,19.167c-8.333,7.5 -23.333,17.916 -35,25c-11.666,7.083 -80.833,42.916 -102.083,50.833c-5.833,2.083 -18.75,5.833 -25,-2.083c-5.833,-7.917 -23.75,-97.084 -11.25,-116.25c13.75,-21.25 103.75,-48.334 131.25,-42.917" style="fill:#95b7c1;fill-rule:nonzero;"/><path d="M395.94,66.396c2.083,-1.25 20,-12.5 19.583,-0.417c-0.833,15.417 -8.333,70.417 -25.833,98.333c-6.25,9.584 -35,39.167 -55.834,53.75c-7.5,5.417 -37.083,27.5 -49.166,15.417c-12.084,-12.083 -10,-8.333 -10,-8.333c-0,-0 -2.5,-2.917 -0.834,-7.5c1.667,-5 32.084,-78.334 34.584,-81.667c2.083,-3.333 39.583,-40.833 87.916,-68.75" style="fill:#a1a59b;fill-rule:nonzero;"/></svg>