<?xml version="1.0" encoding="UTF-8"?>
<svg xmlns="http://www.w3.org/2000/svg" version="1.1" viewBox="0 0 345.9 117.9">
  <defs>
    <style>
      .cls-1 {
        fill: #3c3c3b;
      }

      .cls-2 {
        fill: #a7c1bf;
      }

      .cls-3 {
        fill: #94b6c0;
      }

      .cls-4 {
        fill: #0e67a1;
      }

      .cls-5 {
        opacity: .7;
      }

      .cls-5, .cls-6, .cls-7, .cls-8 {
        mix-blend-mode: multiply;
      }

      .cls-6 {
        opacity: .9;
      }

      .cls-7, .cls-9 {
        opacity: .8;
      }

      .cls-10 {
        fill: #a7b497;
      }

      .cls-11 {
        isolation: isolate;
      }

      .cls-12 {
        fill: #bedbe2;
      }

      .cls-13 {
        fill: #86868f;
      }

      .cls-14 {
        opacity: .7;
      }

      .cls-15 {
        fill: #a0a49b;
      }

      .cls-16 {
        fill: #4f94a1;
      }
    </style>
  </defs>
  <!-- Generator: Adobe Illustrator 28.7.1, SVG Export Plug-In . SVG Version: 1.2.0 Build 142)  -->
  <g class="cls-11">
    <g id="Ebene_1">
      <g id="Caspary">
        <path class="cls-4" d="M282.7,67.2c0-.2-.1-.3-.2-.5-.4-1.3-.9-2.6-1.3-3.9-.6-1.3-1-2.7-1.4-4.1-1.3-5.8-1.6-11.9-1-17.8.3-3.3,1-7,.9-12,0-.3,0-.7,0-1,.2-1.4.4-3.1-1.4-4.3l-.3-.2-.3.2c-.9.8-1.5,1.8-1.8,3l-.2.5c-1.4,4.1-4.3,7-8.9,9-.9.5-2,.5-2.9.1-.9-.6-1.5-1.6-1.6-2.6,0-.3,0-.5,0-.8,0-.7,0-1.4-.5-2-.3-.3-.7-.4-1.1-.4-1.7,0-2,2-2.3,3.4-.2,1.2,0,2.3.7,3.3.9,1.5,2.4,2.7,4.1,3.1,2.3.4,4.8,0,6.7-1.5,1.3-.9,2.6-1.8,4-3,.5-.4.9-.7,1.5-1.1,0,.4,0,.7,0,1.1,0,1,0,1.9,0,2.7.1,3.2.1,5.8.1,8.1,0,7.3,0,11.7,3.9,21.4,0,.1.1.3.2.5.1.7.5,1.3,1.1,1.8.2,0,.4.1.6.1.2,0,.5,0,.7-.1,1.5-.6,1-2.1.7-2.9Z"/>
        <path class="cls-4" d="M191.5,53.8c-.3,0-.6-.1-.9-.2-2-.6-3.3-1-3.5-1.6-.3-.6.3-1.8,1.1-3.5v-.2c.4-.4.5-.9.3-1.4-.2-.4-.6-.6-1.1-.6h-.1s-.1,0-.1,0c-1.5.5-2.8,1.7-3.4,3.2-.9,1.8-.5,4,.8,5.4,1.3,1.7,3.3,2.1,4.9,2.4.6.1.7.2.7.4,0,.2-.1.4-.6.7-.6.3-1.2.6-1.9.7-.3,0-.5,0-.8,0-.7,0-1.3.1-1.8.6-.3.4-.3.9-.2,1.4.1.7.6,1.3,1.2,1.7.4.2.7.3,1.1.2.7,0,1.3-.2,1.9-.5.2-.1.5-.2.7-.3.7-.3,1.3-.6,1.9-1,.2-.1.3-.3.5-.4,1.3-1,3-2.2,2.6-4.4-.3-2-2-2.3-3.4-2.6Z"/>
        <path class="cls-4" d="M182.5,64.7c-.2,0-.4,0-.6,0-.7-.2-1.5-.4-2.3-.4-.8,0-1.4-.2-1.6-.5-.2-.3-.2-.9,0-1.9,1-3.3.6-6.8-1.1-9.8-1.6-3.1-4.5-4.2-7.2-2.8-5.9,3-10.6,8-13.3,14-1,1.9-.8,4.1.4,5.8,1.5,1.8,3.8,2.7,6.1,2.3.9-.1,1.9-.3,2.7-.5.2,0,.4,0,.6-.1-.2.2-.4.4-.6.5-8.8,5.5-18.9,8.5-29.3,8.6-2.9.1-5.9-.6-8.4-2.2-7.4-4.5-10.7-14.1-8-23.3,3.8-12.8,11.5-24,22.2-32,5.7-4.6,13-6.5,20.1-5.4,6.1.9,11.4,2.2,13.2,8.7,0,.5.3.9.7,1.2.3.1.6.1.9,0,.9-.4,1.4-1.5,1-2.4,0,0,0,0,0,0-1-4-3.8-7.2-7.6-8.8-11.2-4.6-21.5-3.2-30.7,4.2-10.7,8.7-18.5,20.2-23,34.2-2.6,8-1,17.1,4.1,23.1,3.9,4.6,9.6,7.1,16.1,7.1,1.5,0,2.9-.1,4.3-.3,12.5-1.9,22.4-6.3,30.4-13.4,2.4-2.4,6-3.3,9.3-2.5.8.3,1.8.3,2.6-.1.4-.3.7-.8.7-1.4,0-.4,0-.8-.3-1.1-.4-.4-1-.6-1.6-.6ZM159.9,64c2.1-4.9,5.7-8.9,10.4-11.5.5-.3,1.1-.5,1.7-.5.5,0,1,.1,1.4.4,1.4.8,2.3,2.8,2.3,5.2,0,4.5-1.4,6.5-5.6,7.9l-.9.3c-2,.7-4.1,1.4-6.1,1.8-1.1.3-2.2,0-3-.8-.6-.9-.7-2-.2-2.9h0Z"/>
        <path class="cls-4" d="M210.4,38c-1.9.2-3.6,1.5-5.1,3.9-1.7,2.9-3,6-3.8,9.3-.2.7-.4,1.4-.6,2.1,0,.2-.1.5-.1.7-.1.7-.2,1-.8,1.1-.8,0-1.5.4-1.8,1.1-.3.8-.1,1.6.4,2.2,2.1,2.6,2,5.4,1.8,8.5,0,1.1,0,2.1,0,3.2,0,.6,0,1.2,0,1.8.1,3.2.3,6.6,1.6,9.7l.2.4c.6,1.5,1.4,3.4,3.6,3.4.3,0,.6,0,.9,0,3-.6,3.1-3.4,3.2-5.1.3-6.2-1.4-12.3-4.8-17.5-1.2-1.8-1.8-3.9-1.6-6.1.5.7,1.2,1.3,2.1,1.5,3.9,1.2,10.3-1.6,12.8-5.5,2.4-3.8,1.6-8.4-2-11.9-2-2-4-2.9-5.9-2.7ZM203.8,68.8c1.9,3.2,2.9,7,2.8,10.7,0,.8-.1,1.2-.5,1.3-.5.1-.8-.3-1.1-1.2-1.3-3.5-1.3-7.1-1.1-10.9ZM208.4,42.7c.2-.5.6-.8,1-1,.1,0,.3,0,.4,0,.5,0,1,.2,1.5.5,3,1.6,4.8,5,4.2,7.7-.7,2.6-4.7,4.8-8.4,4.6-.3,0-.5,0-.8-.1-.9-.4-1.9-.2-2.6.5.5-4.1,2.4-7.7,4.3-11.2l.4-.7Z"/>
        <path class="cls-4" d="M254.3,29c-.2,0-.3,0-.5,0-1.8-.3-3.7.2-5.2,1.3-1.3,1.3-2.1,3.2-1.9,5.1,0,1.6.1,3.3.4,4.9,0,.9.2,1.7.3,2.6,0,.8,0,1.2-.4,1.4-.4.2-.8,0-1.4-.6-.7-.5-1.2-1.2-1.6-2-.8-1.9-1.8-3.6-3-5.2-.8-1.1-1.4-2.2-2.1-3.3-1-1.9-1.9-2.8-2.9-3.1-1.2-.3-2.6.2-4.3,1.2-4.1,2.5-7.4,6.2-9.3,10.6-1.4,3-1,5.7,1,7.5.7.7,1.6,1,2.6,1,1.4-.1,2.8-.6,4.1-1.4h.3c3.3-1.8,5.6-4.6,7.6-7.2.7-.9,1-1,1.1-1,0,0,.3.1.8,1.1.6,1.4,1.4,2.7,2.3,3.8,1.4,1.7,3.3,3.6,6.1,2.6,2.7-1,2.5-3.4,2.4-5.4v-.5c0-.9-.2-1.8-.3-2.7-.2-1.2-.3-2.5-.3-3.7,0-1.1.4-2.2,1.1-3,.8-.5,1.7-.7,2.6-.4h0s0,0,0,0c.3,0,.6,0,.9,0,.8,0,2.2.2,2.4-1.3,0-.5,0-1.1-.4-1.5-.7-.6-1.6-.9-2.5-.9ZM236.6,38.2c-2.3,3.1-4.9,6.2-8.7,7.9-1.1.5-1.7.5-2.3-.1-.5-.5-.6-1.1-.3-2.1,1.3-4.1,4.1-7.5,7.8-9.7.5-.3,1-.5,1.5-.5.3,0,.7,0,1,.2.9.6,1.4,1.7,1.3,2.8,0,.1,0,.3,0,.5,0,.3-.1.7-.3,1h0Z"/>
      </g>
      <g id="Bestattungen">
        <path class="cls-1" d="M216.2,90.7v-15.8h5c.8,0,1.7,0,2.5.3.6.2,1.2.4,1.7.8.4.3.8.8,1,1.3.2.5.3,1.1.3,1.7,0,.4,0,.8-.2,1.1-.1.4-.3.7-.5,1-.3.3-.6.6-.9.8-.4.3-.8.5-1.3.6,1,.1,1.9.6,2.6,1.2.6.6.9,1.5.9,2.4,0,.6-.1,1.3-.4,1.8-.2.5-.6,1-1.1,1.4-.5.4-1.1.7-1.7.9-.8.2-1.6.3-2.3.3h-5.6ZM218.3,82h2.8c.5,0,1.1,0,1.6-.2.4-.1.8-.3,1.1-.6.3-.2.5-.5.6-.9.1-.3.2-.7.2-1.1,0-.8-.2-1.5-.8-2-.8-.5-1.7-.7-2.6-.6h-2.9v5.4ZM218.3,83.6v5.5h3.4c.5,0,1.1,0,1.6-.2.4-.1.8-.3,1.1-.6.3-.2.5-.6.6-.9.1-.4.2-.8.2-1.1,0-.7-.3-1.5-.9-1.9-.8-.5-1.7-.8-2.6-.7h-3.4Z"/>
        <path class="cls-1" d="M234.8,79.4c.6,0,1.3.1,1.8.3.6.2,1,.5,1.5,1,.4.4.8,1,1,1.6.2.7.4,1.4.3,2.1,0,.2,0,.4,0,.6,0,.1-.2.2-.4.2h-7.4c0,.6,0,1.2.3,1.8.2.5.4.9.7,1.3.3.3.7.6,1.1.8.5.2.9.3,1.4.3.4,0,.9,0,1.3-.2.3,0,.6-.2.9-.4.2-.1.4-.2.6-.4.1,0,.3-.2.4-.2.1,0,.3,0,.4.2l.5.7c-.2.3-.5.6-.9.8-.3.2-.7.4-1.1.5-.4.1-.8.2-1.2.3-.4,0-.8.1-1.2.1-.7,0-1.5-.1-2.1-.4-.6-.3-1.2-.6-1.7-1.1-.5-.5-.9-1.2-1.1-1.9-.3-.8-.4-1.7-.4-2.6,0-.7.1-1.5.4-2.2.2-.6.6-1.2,1-1.8.5-.5,1-.9,1.6-1.2.7-.3,1.4-.4,2.2-.4ZM234.8,80.9c-.8,0-1.6.3-2.2.8-.6.6-.9,1.4-1,2.3h6.1c0-.4,0-.8-.2-1.2-.1-.4-.3-.7-.5-1-.2-.3-.5-.5-.9-.6-.4-.2-.8-.2-1.2-.2h0Z"/>
        <path class="cls-1" d="M248.5,81.4c0,.2-.2.2-.4.2-.1,0-.3,0-.4-.1-.1,0-.3-.2-.5-.3-.2-.1-.5-.2-.7-.3-.3,0-.7-.1-1-.1-.3,0-.6,0-.9.1-.2,0-.5.2-.7.3-.2.1-.3.3-.4.5,0,.2-.2.4-.1.6,0,.3,0,.5.2.7.2.2.4.4.7.5.3.1.6.3.9.4.3.1.7.2,1.1.3.4.1.7.3,1.1.4.3.1.6.3.9.5.3.2.5.5.7.8.2.4.3.8.2,1.1,0,.5,0,1-.3,1.4-.2.4-.5.8-.8,1.1-.4.3-.8.6-1.3.8-.6.2-1.2.3-1.8.3-.7,0-1.4-.1-2.1-.4-.6-.2-1.1-.6-1.6-1l.5-.7c0,0,.1-.2.2-.2,0,0,.2,0,.3,0,.2,0,.3,0,.4.2.1.1.3.2.5.3.2.1.5.3.8.3.4.1.7.2,1.1.2.3,0,.7,0,1-.1.3,0,.5-.2.7-.4.2-.2.3-.4.4-.6,0-.2.1-.5.1-.7,0-.3,0-.5-.2-.8-.2-.2-.4-.4-.7-.5-.3-.2-.6-.3-.9-.4-.3-.1-.7-.2-1.1-.3-.4-.1-.7-.3-1.1-.4-.3-.1-.6-.3-.9-.6-.3-.2-.5-.5-.7-.8-.2-.4-.3-.8-.2-1.2,0-.4,0-.8.3-1.2.2-.4.4-.7.8-1,.4-.3.8-.6,1.2-.7.5-.2,1.1-.3,1.7-.3.7,0,1.3.1,2,.3.6.2,1.1.5,1.5,1l-.4.7Z"/>
        <path class="cls-1" d="M255.2,90.9c-.7,0-1.5-.2-2-.7-.5-.6-.8-1.3-.7-2.1v-6.8h-1.3c-.1,0-.2,0-.3-.1,0,0-.1-.2-.1-.3v-.8l1.8-.2.5-3.4c0-.1,0-.2.1-.3,0,0,.2-.1.3-.1h1v3.8h3.2v1.4h-3.2v6.7c0,.4,0,.8.3,1,.2.2.6.4.9.3.2,0,.4,0,.5,0,.1,0,.3-.1.4-.2.1,0,.2-.1.3-.2,0,0,.1,0,.2,0,.1,0,.2,0,.3.2l.6.9c-.4.3-.8.6-1.2.7-.5.2-1,.3-1.5.3Z"/>
        <path class="cls-1" d="M268.5,90.7h-.9c-.2,0-.3,0-.5,0-.1,0-.2-.2-.2-.4l-.2-1c-.3.3-.6.5-.9.7-.3.2-.6.4-.9.5-.3.1-.6.3-1,.3-.4,0-.8.1-1.2.1-.4,0-.8,0-1.2-.2-.4-.1-.7-.3-1-.5-.3-.3-.5-.6-.7-.9-.2-.4-.3-.9-.2-1.3,0-.5.1-.9.4-1.3.3-.5.7-.8,1.2-1.1.7-.4,1.4-.6,2.1-.8,1.1-.2,2.1-.3,3.2-.3v-.9c0-.7-.1-1.4-.6-2-.4-.5-1-.7-1.6-.7-.4,0-.8,0-1.2.2-.3.1-.6.2-.8.4-.2.2-.4.3-.6.4-.1.1-.3.2-.5.2-.1,0-.2,0-.3-.1,0,0-.2-.2-.2-.3l-.4-.6c.6-.6,1.2-1,2-1.3.8-.3,1.6-.5,2.4-.4.6,0,1.1,0,1.7.3.5.2.9.5,1.2.9.3.4.6.8.7,1.3.2.6.3,1.1.3,1.7v7.1ZM263.4,89.5c.3,0,.6,0,.9-.1.3,0,.6-.2.8-.3.3-.1.5-.3.7-.5.2-.2.5-.4.7-.6v-2.3c-.8,0-1.5,0-2.3.2-.5,0-1,.2-1.5.4-.3.1-.6.4-.9.7-.2.2-.3.5-.3.8,0,.3,0,.5.1.8,0,.2.2.4.4.5.2.1.4.2.6.3.2,0,.5,0,.7,0h0Z"/>
        <path class="cls-1" d="M275,90.9c-.7,0-1.5-.2-2-.7-.5-.6-.8-1.3-.7-2.1v-6.8h-1.3c-.1,0-.2,0-.3-.1,0,0-.1-.2-.1-.3v-.8l1.8-.2.5-3.4c0-.1,0-.2.1-.3,0,0,.2-.1.3-.1h1v3.8h3.2v1.4h-3.2v6.7c0,.4,0,.8.3,1,.2.2.6.4.9.3.2,0,.4,0,.5,0,.1,0,.3-.1.4-.2.1,0,.2-.1.3-.2,0,0,.1,0,.2,0,.1,0,.2,0,.3.2l.6.9c-.4.3-.8.6-1.2.7-.5.2-1,.3-1.5.3Z"/>
        <path class="cls-1" d="M283.5,90.9c-.7,0-1.5-.2-2-.7-.5-.6-.8-1.3-.7-2.1v-6.8h-1.3c-.1,0-.2,0-.3-.1,0,0-.1-.2-.1-.3v-.8l1.8-.2.5-3.4c0-.1,0-.2.1-.3,0,0,.2-.1.3-.1h1v3.8h3.2v1.4h-3.2v6.7c0,.4,0,.8.3,1,.2.2.6.4.9.3.2,0,.4,0,.5,0,.1,0,.3-.1.4-.2.1,0,.2-.1.3-.2,0,0,.1,0,.2,0,.1,0,.2,0,.3.2l.6.9c-.4.3-.8.6-1.2.7-.5.2-1,.3-1.5.3Z"/>
        <path class="cls-1" d="M290.2,79.6v7.1c0,.7.2,1.4.6,2,.5.5,1.1.7,1.8.7.6,0,1.1-.1,1.6-.4.5-.3,1-.7,1.4-1.1v-8.2h2v11.1h-1.2c-.3,0-.5-.2-.5-.4l-.2-1.2c-.5.5-1,1-1.6,1.3-.6.3-1.3.5-2.1.5-.6,0-1.1,0-1.6-.3-.5-.2-.9-.5-1.2-.9-.3-.4-.6-.8-.7-1.3-.2-.6-.2-1.1-.2-1.7v-7.1h2Z"/>
        <path class="cls-1" d="M301,90.7v-11.1h1.2c.3,0,.5.2.5.4l.2,1.2c.5-.5,1-1,1.6-1.3.6-.3,1.4-.5,2.1-.5.6,0,1.1,0,1.6.3.5.2.8.5,1.2.9.3.4.6.8.7,1.3.2.6.2,1.1.2,1.7v7.1h-2v-7.1c0-.7-.2-1.4-.6-2-.4-.5-1.1-.8-1.8-.7-.6,0-1.1.1-1.6.4-.5.3-1,.7-1.4,1.1v8.2h-2Z"/>
        <path class="cls-1" d="M317.2,79.4c.5,0,.9,0,1.4.2.4,0,.8.3,1.2.5h3v.7c0,.2-.2.4-.5.5l-1.3.2c.3.5.4,1,.4,1.6,0,.5-.1,1-.3,1.5-.2.4-.5.8-.9,1.1-.4.3-.8.6-1.3.7-.5.2-1.1.3-1.7.3-.5,0-1,0-1.5-.2-.2.1-.4.3-.5.5-.1.1-.2.3-.2.5,0,.2.1.5.3.6.3.2.5.3.8.3.4,0,.8,0,1.2,0h1.4c.5,0,.9,0,1.4.1.4,0,.8.2,1.2.4.3.2.6.4.8.8.2.4.3.8.3,1.3,0,.5-.1,1-.4,1.4-.3.5-.6.9-1,1.2-.5.4-1,.7-1.6.8-.7.2-1.4.3-2.2.3-.7,0-1.4,0-2.1-.2-.5-.1-1.1-.4-1.5-.6-.4-.2-.7-.6-.9-.9-.2-.3-.3-.7-.3-1.1,0-.5.2-1,.5-1.4.4-.4.9-.7,1.4-.9-.3-.1-.6-.3-.8-.6-.2-.3-.3-.6-.3-1,0-.2,0-.3,0-.5,0-.2.2-.4.3-.5.1-.2.3-.3.4-.5.2-.2.4-.3.6-.4-.5-.3-1-.7-1.3-1.2-.3-.5-.5-1.2-.5-1.8,0-.5.1-1,.3-1.5.2-.4.5-.8.9-1.1.4-.3.8-.6,1.3-.7.5-.2,1.1-.3,1.7-.3ZM320.6,91.3c0-.2,0-.5-.2-.7-.2-.2-.4-.3-.6-.4-.3-.1-.6-.2-.9-.2-.4,0-.7,0-1.1,0h-1.2c-.4,0-.8,0-1.1-.1-.4.2-.7.4-1,.7-.3.3-.4.6-.4,1,0,.2,0,.5.2.7.1.2.3.4.6.6.3.2.6.3,1,.4.9.2,1.9.2,2.8,0,.4,0,.7-.2,1.1-.4.3-.2.5-.4.7-.6.2-.2.2-.5.2-.8ZM317.2,85.3c.4,0,.7,0,1.1-.2.3,0,.5-.3.8-.5.2-.2.4-.4.5-.7.1-.3.2-.6.2-.9,0-.6-.2-1.2-.6-1.6-1.1-.8-2.5-.8-3.6,0-.4.4-.7,1-.6,1.6,0,.3,0,.6.2.9.1.3.3.5.5.7.2.2.5.4.8.5.3.1.7.2,1,.2Z"/>
        <path class="cls-1" d="M329.3,79.4c.6,0,1.3.1,1.8.3.6.2,1,.5,1.5,1,.4.4.8,1,1,1.6.2.7.4,1.4.3,2.1,0,.2,0,.4,0,.6,0,.1-.2.2-.4.2h-7.4c0,.6,0,1.2.3,1.8.2.5.4.9.7,1.3.3.3.7.6,1.1.8.5.2.9.3,1.4.3.4,0,.9,0,1.3-.2.3,0,.6-.2.9-.4.2-.1.4-.2.6-.4.1,0,.3-.2.4-.2.1,0,.3,0,.4.2l.6.7c-.2.3-.5.6-.9.8-.3.2-.7.4-1.1.5-.4.1-.8.2-1.2.3-.4,0-.8.1-1.2.1-.7,0-1.5-.1-2.1-.4-.6-.3-1.2-.6-1.7-1.1-.5-.5-.9-1.2-1.1-1.9-.3-.8-.4-1.7-.4-2.6,0-.7.1-1.5.4-2.2.2-.6.6-1.2,1-1.8.5-.5,1-.9,1.6-1.2.7-.3,1.4-.4,2.2-.4ZM329.3,80.9c-.8,0-1.6.3-2.2.8-.6.6-.9,1.4-1,2.3h6.1c0-.4,0-.8-.2-1.2-.1-.4-.3-.7-.5-1-.2-.3-.5-.5-.9-.6-.4-.2-.8-.2-1.2-.2h0Z"/>
        <path class="cls-1" d="M336.6,90.7v-11.1h1.2c.3,0,.5.2.5.4l.2,1.2c.5-.5,1-1,1.6-1.3.6-.3,1.4-.5,2.1-.5.6,0,1.1,0,1.6.3.5.2.9.5,1.2.9.3.4.6.8.7,1.3.2.6.2,1.1.2,1.7v7.1h-2v-7.1c0-.7-.2-1.4-.6-2-.4-.5-1.1-.8-1.8-.7-.6,0-1.1.1-1.6.4-.5.3-1,.7-1.4,1.1v8.2h-2Z"/>
      </g>
      <path class="cls-12" d="M48.5,16.4c.7-3.5,1.8-7,3.1-8.8,1-1.4,4.2-6,9.7-6.2,1.1,0,10.5-.3,13.5,3,.5.5,1.7,1.9,1.7,3.6.5,11.9-2.3,27.4-4.4,32.8-.4,1.1-.5,2.1-2.4,3.1-1.9,1-9.7,4.3-17.8,2.2-1.4-.4-3.1-2-4.1-3.9-1-1.9-1.4-3-1.8-5.4-.7-5,1.6-17.1,2.3-20.5"/>
      <path class="cls-10" d="M91.9,42.1c3.5,0,8.6,23,7.4,31.3-.4,3.1-1,5.2-2.1,6.2-.9.8-3.3,1.6-5.3,1.5-8.5-.2-25.1-8.1-25.9-8.8s-3.1-2.4-3.1-5.6c0-3.2.2-6.9.3-8.1.1-1.2.5-2.7,1.3-3.6.8-.9,21.9-12.9,27.3-12.9"/>
      <g class="cls-9">
        <path class="cls-16" d="M59.7,57c5.3-.4,11.2,7,12.6,8.7,1.7,2,4,4.8,5,10,1.6,8,2.2,29.6,2.2,33.4,0,2.3-.1,4.9-1.8,5.9-1.7,1-5.3,2.1-6.2,2.4-.9.3-2.6.4-3,.3-.5,0-2.1-.5-2.8-1.9-2.8-4.9-14.5-32.2-15-37.3-.2-1.7,0-4,.5-5.6.5-1.6,3.1-7.2,3.1-7.2,0,0,2.8-7.6,5.5-8.6"/>
      </g>
      <g class="cls-6">
        <path class="cls-13" d="M4.8,28.1c1.5,3.5,5.2,10.5,5.2,10.5,0,0,3.3,4,8.6,7.6,5.3,3.6,7.6,5.3,10.7,7.1,3,1.8,4.4,2.9,7.2,2.8,2.7-.1,5.6-1,6.6-2.8,1.1-1.7.8-5.4-.6-8.7-1.3-3.1-3.5-7.7-5-9.2-1.6-1.5-6.4-4.2-8.2-5.3-5.7-3.6-16.6-7.8-21.2-8.8-4-.8-4.7,3.2-3.2,6.8"/>
      </g>
      <g class="cls-7">
        <path class="cls-10" d="M23.1,6c-.8.5-3.4,2.2-4,5.9-.3,2.2,2.3,8.1,3.3,10.1,1,2,3.4,6.2,4.2,7.5,4.5,7,12.8,11.9,13.7,12.2,1.5.5,3.3.9,4,.8.7-.1,2.8-1.9,3.1-3.1,1.1-5.1-1.7-20.9-1.8-21.8,0-1-.4-3.4-.8-6.1-.9-6.8-2.3-12-4.8-11.3-.7.2-13.3,3.3-17,5.8"/>
      </g>
      <g class="cls-8">
        <path class="cls-2" d="M45,62.2c-.2.4-2.9,3.9-4.6,6.2-1.7,2.3-4.7,5.9-5.6,7.5-.8,1.5-7.6,12.1-8.5,16-.4,1.4-2.7,7.2-.4,10.7,1.4,2.1,5.3,5.9,12.1,8.4,1.6.6,4.8.5,7.8.2,6-.7,7.7-5.4,8-8.2.4-3.3.7-16.6.9-18.5.3-1.9.7-11.5.7-13.2s-.7-6.2-1.7-7.5c-1-1.3-1.7-2.1-2.9-3-2.5-1.9-5.5,1.2-5.7,1.5"/>
      </g>
      <g class="cls-14">
        <path class="cls-3" d="M33,52.6c4.7.9,6.8,2.2,8.3,4.1s3.6,5,4.2,7,1.1,4,.8,4.8c-.3.9-1.3,2.8-3.3,4.6-2,1.8-5.6,4.3-8.4,6-2.8,1.7-19.4,10.3-24.5,12.2-1.4.5-4.5,1.4-6-.5-1.4-1.9-5.6-23.3-2.7-27.9,3.3-5.1,24.8-11.6,31.5-10.3"/>
      </g>
      <g class="cls-5">
        <path class="cls-15" d="M93.1,13.5c.5-.3,4.8-3,4.7-.1-.2,3.7-2,16.9-6.2,23.5-1.5,2.3-8.4,9.4-13.4,12.8-1.8,1.3-8.9,6.5-11.8,3.7-.8-.8-2.4-2-2.4-2,0,0-.6-.7-.2-1.8.4-1.2,7.7-18.8,8.3-19.6.5-.8,9.5-9.7,21.1-16.4"/>
      </g>
    </g>
  </g>
</svg>