<?xml version="1.0" encoding="UTF-8"?>
<svg id="Ebene_1" xmlns="http://www.w3.org/2000/svg" xmlns:xlink="http://www.w3.org/1999/xlink" version="1.1" viewBox="0 0 246.6 56.7">
  <!-- Generator: Adobe Illustrator 29.6.1, SVG Export Plug-In . SVG Version: 2.1.1 Build 9)  -->
  <defs>
    <style>
      .st0 {
        fill: none;
      }

      .st1 {
        fill: #b4b1b8;
      }

      .st2 {
        fill: #6fa1ae;
      }

      .st3 {
        fill: #2b2b2a;
      }

      .st4 {
        fill: #a9cfcf;
      }

      .st5 {
        clip-path: url(#clippath);
      }
    </style>
    <clipPath id="clippath">
      <rect class="st0" x="98.7" y="1.7" width="137.6" height="44.6"/>
    </clipPath>
  </defs>
  <rect class="st2" x="11" y="2.8" width="79.4" height="11.3"/>
  <rect class="st4" x="11" y="22.7" width="79.4" height="11.3"/>
  <rect class="st1" x="11" y="42.5" width="79.4" height="11.3"/>
  <g class="st5">
    <path class="st3" d="M222.6,46.3c9,0,13.7-5.3,13.7-14.7V11.4h-5.5v19.9c0,6.9-2.5,9.9-8.2,9.9s-8.2-3-8.2-9.8V11.4h-5.5v20.3c0,9.6,4.4,14.6,13.7,14.6M227.5,7.7c1.7,0,3-1.3,3-3s-1.3-3-3-3-3,1.3-3,3,1.2,3,3,3M217.8,7.7c1.7,0,3-1.3,3-3s-1.3-3-3-3-3,1.3-3,3,1.2,3,3,3M176.5,45.3v-15.4c0-3.3,0-6.1-.2-9h0c2.3,2.9,4.3,5.4,6.3,7.7l14.7,17.2h3.1V11.4h-5.5v14.5c0,3.4,0,6,.2,8.9h-.1c-2.2-2.9-4.2-5.3-6.2-7.8l-13.3-15.7h-4.5v34h5.5ZM162.3,30.2v-4.5h-13.9v-9.5h15.2l-.6-4.9h-20.2v34h20.2l.6-4.9h-15.2v-10.2h13.9ZM104.1,45.3v-16.6c0-3.4,0-6.9,0-10.3h.1c1.3,2.6,2.6,5.2,4,7.9l7.8,15.4h.9l7.9-15.4,4-7.9h.1c0,3.4,0,6.9,0,10.3v16.6h5.4V11.4h-7.1l-10.6,21.2h-.1l-10.6-21.2h-7.1v34h5.4Z"/>
  </g>
</svg>