<?xml version="1.0" encoding="UTF-8"?>
<svg id="Ebene_2" data-name="Ebene 2" xmlns="http://www.w3.org/2000/svg" viewBox="0 0 209.76 51.91">
  <defs>
    <style>
      .cls-1 {
        fill: #fff;
      }
    </style>
  </defs>
  <g id="Pfade">
    <g>
      <path class="cls-1" d="M13.41,38.35h9.95l3.04-14.28c.42-1.97,1.19-2.95,2.3-2.95.6,0,.97.21,1.11.64.14.43.09,1.19-.14,2.29l-3.04,14.31h9.95l3.23-15.21c.76-3.6.56-6.34-.62-8.22-1.49-2.41-3.89-3.62-7.21-3.62-2.61,0-5.48,1.24-8.61,3.72-1.81-2.48-4.19-3.72-7.13-3.72s-5.5,1.04-7.95,3.13c-2.45,2.08-3.99,4.61-4.62,7.59L.19,38.35h9.95l3.04-14.28c.42-1.97,1.18-2.95,2.28-2.95.6,0,.98.21,1.13.64.15.43.11,1.19-.13,2.29l-3.04,14.31Z"/>
      <path class="cls-1" d="M62.27,11.28c-4.01,0-7.66,1.33-10.95,3.98-3.29,2.65-5.35,5.92-6.18,9.8-.81,3.81-.14,7.07,2.02,9.77,2.16,2.7,5.16,4.06,9.01,4.06s7.42-1.35,10.71-4.04c3.29-2.69,5.35-5.96,6.16-9.79.8-3.78.15-7.02-1.96-9.72-2.11-2.7-5.05-4.06-8.81-4.06ZM62.92,25.08c-.23,1.1-.81,2.04-1.73,2.82-.92.78-1.91,1.17-2.97,1.17s-1.86-.39-2.45-1.17c-.59-.78-.76-1.72-.53-2.82.24-1.12.81-2.06,1.72-2.83.91-.77,1.89-1.16,2.96-1.16s1.91.39,2.49,1.16c.58.77.75,1.72.51,2.83Z"/>
      <path class="cls-1" d="M105.88,25.08c.81-3.79.16-7.04-1.93-9.73-2.1-2.69-5.02-4.04-8.76-4.04-.6,0-1.5.05-2.69.16l-2.33,10.96c1.08-.64,1.98-.96,2.7-.96,1.03,0,1.82.37,2.37,1.1.55.74.71,1.65.48,2.73-.22,1.05-.79,1.94-1.7,2.67-.91.74-1.91,1.1-2.99,1.1-2.54,0-3.43-1.76-2.68-5.29l4.62-21.73h-9.95l-4.7,22.1c-.86,4.06-.5,7.37,1.08,9.92.91,1.47,2.22,2.64,3.92,3.51,1.71.87,3.55,1.3,5.54,1.3,3.95,0,7.57-1.33,10.85-3.99,3.28-2.66,5.33-5.93,6.15-9.81Z"/>
      <path class="cls-1" d="M120.12,9.52c1.45,0,2.74-.44,3.86-1.33,1.12-.89,1.83-2.02,2.12-3.41.28-1.29.02-2.42-.76-3.36-.78-.95-1.85-1.42-3.19-1.42s-2.61.47-3.8,1.42c-1.19.95-1.92,2.07-2.19,3.36-.29,1.38-.07,2.52.67,3.41.74.89,1.84,1.33,3.3,1.33Z"/>
      <polygon class="cls-1" points="124.57 11.84 114.62 11.84 108.99 38.35 118.93 38.35 124.57 11.84"/>
      <polygon class="cls-1" points="134.03 2.05 126.31 38.35 136.26 38.35 143.97 2.05 134.03 2.05"/>
      <path class="cls-1" d="M156.78,0c-1.35,0-2.62.47-3.8,1.42-1.19.95-1.92,2.07-2.19,3.36-.29,1.38-.07,2.52.67,3.41.74.89,1.84,1.33,3.29,1.33s2.74-.44,3.86-1.33c1.12-.89,1.82-2.02,2.12-3.41.28-1.29.02-2.42-.76-3.36-.78-.95-1.85-1.42-3.19-1.42Z"/>
      <polygon class="cls-1" points="143.63 38.35 153.58 38.35 159.21 11.84 149.27 11.84 143.63 38.35"/>
      <path class="cls-1" d="M177.53,2.05h-9.95l-4.63,21.78c-.8,3.78-.69,6.81.35,9.1.83,1.79,2.12,3.21,3.89,4.25,1.78,1.05,3.79,1.57,6.04,1.57.25,0,.63,0,1.15-.03l2.22-10.45c-1.77,0-2.91-.4-3.4-1.2-.5-.8-.52-2.25-.07-4.36h4.47l2.23-10.51h-4.47l2.16-10.16Z"/>
      <path class="cls-1" d="M199.82,11.84l-2.98,14.02c-.37,1.74-1.18,2.61-2.44,2.61s-1.8-.79-1.46-2.37l3.03-14.26h-9.95l-3.55,16.68c-.6,2.84-.3,5.17.91,7.01,1.2,1.84,3.04,2.75,5.5,2.75,1.67,0,3.48-.51,5.43-1.54-1.73,3.63-4.21,5.45-7.44,5.45-1.01,0-2.13-.28-3.36-.85l-1.84,8.65c1.67.71,3.44,1.06,5.28,1.06,4.2,0,8.13-1.61,11.78-4.84,3.06-2.71,5.06-6.28,5.99-10.69l5.03-23.67h-9.95Z"/>
      <path class="cls-1" d="M40.76,44c-.21-.12-.57-.29-1.13-.29-.6,0-.92.19-1.13.34-.36.24-.48.48-.58.64v-2.8h-1.86v7.7h1.86v-3.04c.01-.46.07-.9.49-1.19.22-.13.43-.15.52-.15.26,0,.39.1.48.17.26.22.27.55.28.86v3.35h1.88v-3.5c0-.79-.04-1.6-.81-2.08Z"/>
      <path class="cls-1" d="M53.52,46.29c-.19-.07-.36-.11-.53-.16l-1.28-.34c-.39-.1-.59-.19-.59-.44,0-.21.16-.33.21-.36.09-.05.28-.13.53-.13.58,0,.77.3.82.57h1.84c-.02-.15-.08-.58-.4-.97-.36-.44-.85-.62-1.4-.71-.35-.05-.6-.05-.74-.05-1.36,0-2.08.5-2.42,1.02-.23.36-.26.7-.26.86,0,.27.08.49.12.58.31.74,1.19.99,1.88,1.18l1.11.27c.05.01.43.08.43.41,0,.31-.31.54-.87.54-.15,0-.35-.03-.39-.04-.15-.04-.53-.16-.57-.64h-1.88c.01.26.05.82.59,1.3.39.36,1.01.59,2.15.59,1.31,0,2-.29,2.41-.76.29-.34.41-.73.41-1.17,0-1.09-.83-1.41-1.17-1.54Z"/>
      <path class="cls-1" d="M72.73,48.71v-2.82c-.01-.43-.03-.83-.23-1.22-.06-.12-.2-.34-.48-.54-.34-.22-.91-.43-1.79-.43-1.3,0-1.93.43-2.29.93-.33.45-.36.82-.37,1.05h1.76c0-.16.04-.29.15-.43.16-.18.44-.23.66-.23.04,0,.51-.02.71.26.03.04.1.14.1.31,0,.29-.27.39-.74.47l-.88.15c-.48.1-.94.19-1.32.51-.56.47-.58,1.1-.58,1.35,0,1.1.76,1.67,1.82,1.67.51,0,.94-.12,1.34-.43.11-.09.21-.17.4-.38.02.12.05.4.1.52.02.07.03.09.05.12h1.93v-.18c-.13-.05-.19-.1-.23-.15-.1-.13-.12-.25-.12-.53ZM70.76,48.1c-.19.28-.57.42-.88.42-.55,0-.66-.4-.66-.61,0-.1.02-.34.24-.5.28-.2.78-.25,1.08-.33.13-.04.25-.09.38-.14.03.59.01.92-.15,1.16Z"/>
      <path class="cls-1" d="M78.62,43.7c-.51,0-1.01.16-1.37.54-.16.18-.25.29-.37.49v-.86h-1.79v5.71h1.84v-3.23c.01-.07.01-.18.04-.34.04-.18.28-.82.99-.82.16,0,.31.03.44.13.29.21.32.56.33.88v3.37h1.87v-3.68c-.01-.52-.03-.73-.11-.97-.35-1.15-1.58-1.22-1.88-1.22Z"/>
      <path class="cls-1" d="M87.98,48.71v-2.82c-.01-.43-.03-.83-.23-1.22-.06-.12-.2-.34-.48-.54-.34-.22-.9-.43-1.79-.43-1.3,0-1.93.43-2.29.93-.33.45-.36.82-.37,1.05h1.76c0-.16.04-.29.15-.43.16-.18.44-.23.66-.23.04,0,.51-.02.71.26.03.04.1.14.1.31,0,.29-.27.39-.74.47l-.88.15c-.48.1-.94.19-1.32.51-.56.47-.58,1.1-.58,1.35,0,1.1.76,1.67,1.82,1.67.51,0,.94-.12,1.34-.43.11-.09.21-.17.4-.38.02.12.05.4.1.52.02.07.03.09.05.12h1.93v-.18c-.13-.05-.19-.1-.23-.15-.1-.13-.12-.25-.12-.53ZM86.02,48.1c-.19.28-.57.42-.88.42-.54,0-.66-.4-.66-.61,0-.1.02-.34.24-.5.28-.2.78-.25,1.08-.33.13-.04.25-.09.38-.14.03.59.01.92-.15,1.16Z"/>
      <path class="cls-1" d="M100.86,43.7c-.35,0-.73.04-1.07.15-1.29.43-1.83,1.67-1.83,2.93s.53,1.99.95,2.33c.72.62,1.54.62,1.86.62.98,0,1.97-.27,2.53-1.17.21-.32.31-.67.34-.76h-1.83c-.03.08-.08.17-.14.24-.11.14-.33.36-.76.36-.28,0-.47-.1-.57-.15-.52-.32-.51-.89-.51-1.08h3.88c.01-.12.02-.24.02-.37,0-.34-.05-1.67-1.01-2.48-.71-.62-1.53-.62-1.85-.62ZM99.81,46.09c0-.08.01-.14.02-.22.09-.5.46-.87,1-.87.44,0,.82.25.95.68.05.14.05.25.07.4h-2.04Z"/>
      <path class="cls-1" d="M119.52,43.7c-.35,0-.73.04-1.07.15-1.29.43-1.83,1.67-1.83,2.93s.54,1.99.95,2.33c.72.62,1.54.62,1.86.62.98,0,1.97-.27,2.53-1.17.21-.32.31-.67.34-.76h-1.83c-.03.08-.08.17-.14.24-.11.14-.33.36-.76.36-.28,0-.47-.1-.57-.15-.52-.32-.51-.89-.51-1.08h3.88c.01-.12.02-.24.02-.37,0-.34-.05-1.67-1.01-2.48-.71-.62-1.53-.62-1.85-.62ZM118.46,46.09c0-.08.01-.14.02-.22.09-.5.46-.87,1-.87.44,0,.82.25.95.68.05.14.05.25.07.4h-2.04Z"/>
      <path class="cls-1" d="M128.01,43.7c-.51,0-1.01.16-1.37.54-.16.18-.25.29-.37.49v-.86h-1.79v5.71h1.84v-3.23c.01-.07.01-.18.04-.34.04-.18.28-.82.99-.82.16,0,.31.03.44.13.29.21.32.56.33.88v3.37h1.87v-3.68c0-.52-.03-.73-.11-.97-.35-1.15-1.58-1.22-1.88-1.22Z"/>
      <path class="cls-1" d="M145.94,44.59c-.07-.11-.14-.24-.35-.44-.47-.41-1.07-.45-1.28-.45-.7,0-1.14.32-1.33.49-.97.83-.99,2.27-.99,2.56,0,1.46.66,2.23,1.21,2.56.46.27.91.28,1.1.28.75,0,1.19-.3,1.41-.52.11-.11.2-.22.23-.26v.56c-.01.18-.01.33-.05.49-.14.49-.57.72-1.07.72-.54,0-.72-.23-.81-.47h-1.9c0,.2.05.54.37.95.36.45.99.85,2.24.85,1.1,0,1.8-.26,2.18-.54.23-.18.37-.38.44-.47.41-.64.41-1.29.4-2.02v-5.01h-1.8v.72ZM145.43,48.02c-.21.14-.43.15-.52.15-.8,0-1.03-.83-1.04-1.46,0-.47.12-1.06.52-1.34.15-.11.33-.16.52-.16s.38.07.55.18c.49.38.47,1.17.47,1.29,0,.45-.08,1.06-.5,1.34Z"/>
      <path class="cls-1" d="M165.79,43.97c-.46-.25-.91-.27-1.09-.27-.94,0-1.46.48-1.68.76-.03.03-.07.07-.09.11v-2.69h-1.83v7.7h1.83v-.69c.11.13.17.21.31.32.57.49,1.21.53,1.48.53.76,0,1.21-.33,1.44-.53.92-.83.92-2.13.92-2.45,0-1.61-.64-2.42-1.29-2.78ZM164.63,48.1c-.17.11-.38.17-.58.17-.32,0-.53-.14-.63-.21-.5-.37-.49-1.15-.49-1.28,0-.29.07-.71.22-.98.26-.47.72-.55.91-.55.31,0,.53.15.61.22.44.33.5.87.49,1.37,0,.46-.11.97-.52,1.24Z"/>
      <polygon class="cls-1" points="3.12 47.84 3.06 47.84 1.98 43.87 0 43.87 2.05 49.58 4 49.58 6.13 43.87 4.19 43.87 3.12 47.84"/>
      <path class="cls-1" d="M10.49,43.7c-.35,0-.73.04-1.07.15-1.29.43-1.83,1.67-1.83,2.93s.53,1.99.95,2.33c.72.62,1.54.62,1.86.62.98,0,1.97-.27,2.53-1.17.21-.32.31-.67.34-.76h-1.83c-.03.08-.08.17-.14.24-.11.14-.33.36-.76.36-.28,0-.47-.1-.57-.15-.52-.32-.51-.89-.51-1.08h3.88c.01-.12.02-.24.02-.37,0-.34-.05-1.67-1.01-2.48-.71-.62-1.53-.62-1.85-.62ZM9.44,46.09c0-.08.01-.14.02-.22.09-.5.46-.87,1-.87.44,0,.82.25.95.68.05.14.05.25.07.4h-2.04Z"/>
      <path class="cls-1" d="M17.26,44.84v-.97h-1.81v5.71h1.9v-2.46c0-.37.01-.74.24-1.08.35-.55,1-.45,1.55-.43v-1.89c-.22.02-.99.04-1.53.6-.1.1-.21.23-.35.51Z"/>
      <polygon class="cls-1" points="26.78 43.87 24.5 43.87 22.85 45.87 22.85 41.88 21.03 41.88 21.03 49.58 22.85 49.58 22.85 48.01 23.49 47.3 24.67 49.58 26.85 49.58 24.77 46 26.78 43.87"/>
      <path class="cls-1" d="M31.1,43.7c-.35,0-.73.04-1.07.15-1.29.43-1.83,1.67-1.83,2.93s.53,1.99.95,2.33c.72.62,1.54.62,1.86.62.98,0,1.97-.27,2.53-1.17.21-.32.31-.67.34-.76h-1.83c-.03.08-.08.17-.14.24-.11.14-.33.36-.76.36-.28,0-.47-.1-.57-.15-.52-.32-.51-.89-.51-1.08h3.88c.01-.12.02-.24.02-.37,0-.34-.05-1.67-1.01-2.48-.71-.62-1.53-.62-1.85-.62ZM30.04,46.09c0-.08.01-.14.02-.22.09-.5.46-.87,1-.87.44,0,.82.25.95.68.05.14.05.25.07.4h-2.04Z"/>
      <path class="cls-1" d="M45.72,44.84v-.97h-1.81v5.71h1.9v-2.46c0-.37.01-.74.24-1.08.35-.55,1-.45,1.55-.43v-1.89c-.22.02-.99.04-1.53.6-.1.1-.21.23-.35.51Z"/>
      <path class="cls-1" d="M63.47,43.7c-1.07,0-1.47.57-1.72.93-.05-.14-.11-.24-.21-.36-.44-.54-1.13-.57-1.33-.57-.61,0-1.18.22-1.56.72-.09.1-.13.19-.2.29v-.85h-1.8v5.71h1.82v-3.2c.02-.41.06-.82.47-1.04.19-.1.31-.11.4-.11.16,0,.31.04.44.14.21.15.28.36.3.84v3.37h1.83v-3.23c.01-.39.03-.8.42-1.03.2-.11.36-.12.45-.12.24,0,.38.1.46.16.21.19.23.46.24.73v3.48h1.86v-3.92c-.01-.08-.01-.49-.11-.81-.15-.49-.6-1.15-1.78-1.15Z"/>
      <path class="cls-1" d="M94.06,44.59c-.07-.11-.14-.24-.35-.44-.47-.41-1.07-.45-1.28-.45-.7,0-1.13.32-1.33.49-.97.83-.99,2.27-.99,2.56,0,1.46.66,2.23,1.21,2.56.46.27.91.28,1.1.28.75,0,1.19-.3,1.41-.52.11-.11.2-.22.23-.26v.56c-.01.18-.01.33-.05.49-.14.49-.57.72-1.07.72-.53,0-.72-.23-.81-.47h-1.9c.01.2.05.54.37.95.36.45.99.85,2.24.85,1.1,0,1.8-.26,2.18-.54.23-.18.37-.38.44-.47.41-.64.41-1.29.4-2.02v-5.01h-1.8v.72ZM93.55,48.02c-.21.14-.44.15-.52.15-.8,0-1.03-.83-1.04-1.46,0-.47.12-1.06.52-1.34.15-.11.33-.16.52-.16s.38.07.54.18c.49.38.47,1.17.47,1.29,0,.45-.08,1.06-.5,1.34Z"/>
      <path class="cls-1" d="M112.63,43.7c-1.07,0-1.47.57-1.72.93-.05-.14-.11-.24-.21-.36-.44-.54-1.13-.57-1.33-.57-.61,0-1.18.22-1.56.72-.09.1-.13.19-.2.29v-.85h-1.8v5.71h1.82v-3.2c.02-.41.06-.82.47-1.04.19-.1.31-.11.4-.11.16,0,.31.04.44.14.21.15.28.36.3.84v3.37h1.83v-3.23c.01-.39.03-.8.42-1.03.2-.11.36-.12.45-.12.24,0,.38.1.46.16.21.19.23.46.24.73v3.48h1.86v-3.92c0-.08,0-.49-.11-.81-.15-.49-.6-1.15-1.78-1.15Z"/>
      <path class="cls-1" d="M134.52,42.28h-1.86v1.59h-.77v1.18h.75v2.99c0,.4.02.85.32,1.17.27.28.66.42,1.43.42.36,0,.71-.02,1.07-.06v-1.24h-.26c-.18,0-.45,0-.56-.18-.08-.11-.08-.26-.08-.28-.01-.14-.01-.27-.02-.4v-2.41h.92v-1.18h-.93v-1.59Z"/>
      <path class="cls-1" d="M156.89,43.7c-1.07,0-1.47.57-1.72.93-.05-.14-.11-.24-.21-.36-.44-.54-1.13-.57-1.33-.57-.61,0-1.18.22-1.56.72-.09.1-.13.19-.2.29v-.85h-1.8v5.71h1.82v-3.2c.02-.41.07-.82.47-1.04.18-.1.3-.11.4-.11.16,0,.3.04.43.14.21.15.28.36.3.84v3.37h1.83v-3.23c.01-.39.03-.8.43-1.03.2-.11.36-.12.45-.12.24,0,.38.1.46.16.21.19.23.46.24.73v3.48h1.86v-3.92c-.01-.08-.01-.49-.11-.81-.15-.49-.6-1.15-1.78-1.15Z"/>
      <path class="cls-1" d="M173.9,44c-.21-.12-.57-.29-1.14-.29-.6,0-.91.19-1.13.34-.36.24-.48.48-.58.64v-2.8h-1.86v7.7h1.86v-3.04c.01-.46.07-.9.49-1.19.22-.13.43-.15.52-.15.26,0,.39.1.48.17.26.22.27.55.28.86v3.35h1.88v-3.5c0-.79-.04-1.6-.81-2.08Z"/>
    </g>
  </g>
</svg>