<?xml version="1.0" encoding="UTF-8" standalone="no"?><!DOCTYPE svg PUBLIC "-//W3C//DTD SVG 1.1//EN" "http://www.w3.org/Graphics/SVG/1.1/DTD/svg11.dtd"><svg width="100%" height="100%" viewBox="0 0 9908 2413" version="1.1" xmlns="http://www.w3.org/2000/svg" xmlns:xlink="http://www.w3.org/1999/xlink" xml:space="preserve" xmlns:serif="http://www.serif.com/" style="fill-rule:evenodd;clip-rule:evenodd;stroke-linejoin:round;stroke-miterlimit:2;"><g id="Pfade"><path d="M1720.04,1813.08l-470.25,0l143.791,-676.458c11.042,-51.917 13.25,-87.958 6.667,-108.083c-6.625,-20.125 -24.208,-30.167 -52.708,-30.167c-52.792,0 -89.084,46.542 -108.875,139.583l-143.542,675.167l-470.25,0l143.792,-676.458c11.041,-51.917 13.083,-87.959 6,-108.084c-7,-20.125 -24.792,-30.166 -53.292,-30.166c-52,-0 -87.833,46.541 -107.625,139.583l-143.542,675.167l-470.208,-0l164.083,-772c29.959,-140.834 102.709,-260.5 218.417,-358.959c115.667,-98.5 240.917,-147.75 375.917,-147.75c135,0 251.541,58.709 337.25,176.042c148.166,-117.333 283.875,-176.042 407.083,-176.042c156.75,0 270.333,57.042 340.833,171c55.75,88.834 65.5,218.375 29.334,388.542l-152.875,719.167l-0,-0.084Z" style="fill:#a50202;fill-rule:nonzero;"/><path d="M2823.33,997.083c-50.291,0 -96.875,18.25 -139.875,54.709c-42.958,36.458 -70.041,81.083 -81.291,133.916c-11,51.959 -2.667,96.375 25.083,133.25c27.792,36.917 66.417,55.375 115.875,55.375c49.458,0 97.167,-18.458 140.625,-55.375c43.5,-36.875 70.792,-81.291 81.792,-133.25c11.25,-52.833 3.125,-97.458 -24.334,-133.916c-27.458,-36.459 -66.791,-54.709 -117.916,-54.709l0.041,0Zm111.209,-463.958c177.75,0 316.458,63.917 416.333,191.75c99.75,127.833 130.708,281 92.792,459.542c-38.5,181.083 -135.667,335.333 -291.334,462.708c-155.75,127.417 -324.625,191.125 -506.5,191.125c-181.875,0 -323.833,-63.917 -425.708,-191.708c-101.917,-127.792 -133.708,-281.834 -95.417,-462.125c39,-183.584 136.375,-337.959 292.125,-463.334c155.667,-125.291 328.292,-187.916 517.75,-187.916l-0.041,-0.042Z" style="fill:#a50202;fill-rule:nonzero;"/><path d="M4386.71,96.833l-218.375,1027.25c-35.416,166.792 6.75,250.209 126.625,250.209c51.125,-0 98.209,-17.417 141.25,-52.209c42.959,-34.75 69.75,-76.833 80.25,-126.333c10.875,-51.125 3.209,-94.125 -22.875,-128.875c-26.125,-34.75 -63.541,-52.167 -112.125,-52.167c-34.375,0 -76.958,15.084 -127.791,45.25l110.083,-518.041c56.417,-5.042 98.875,-7.542 127.375,-7.542c176.833,0 314.875,63.708 413.958,191.125c99,127.417 129.459,280.792 91.334,460.208c-39,183.584 -136,338.167 -290.959,463.917c-155,125.75 -325.958,188.583 -512.833,188.583c-93.833,0 -181.042,-20.583 -261.667,-61.541c-80.458,-41.125 -142.291,-96.459 -185.333,-165.959c-74.958,-120.75 -92,-277.083 -51.208,-469.083l222.125,-1044.83l470.25,-0l-0.084,0.041Z" style="fill:#a50202;fill-rule:nonzero;"/><path d="M5764.96,0c63.75,0 114.125,22.417 151.042,67.25c37.125,44.875 49.042,97.875 36,159.042c-13.833,65.416 -47.333,119.041 -100.208,160.958c-52.959,41.917 -113.75,62.875 -182.459,62.875c-68.708,0 -120.625,-20.917 -155.833,-62.875c-35,-41.917 -45.583,-95.542 -31.75,-160.958c13,-61.167 47.542,-114.209 103.625,-159.042c56,-44.833 115.958,-67.25 179.583,-67.25Zm114.917,559.542l-266.417,1253.54l-470.25,0l266.417,-1253.54l470.25,-0Z" style="fill:#a50202;fill-rule:nonzero;"/><path d="M6797.17,96.833l-364.792,1716.25l-470.25,0l364.792,-1716.25l470.25,0Z" style="fill:#a50202;fill-rule:nonzero;"/><path d="M7402.75,0c63.625,0 114.042,22.417 151.042,67.25c37,44.875 48.958,97.875 35.958,159.042c-13.917,65.416 -47.333,119.041 -100.125,160.958c-53.042,41.917 -113.833,62.875 -182.542,62.875c-68.708,0 -120.625,-20.917 -155.75,-62.875c-35.041,-41.917 -45.708,-95.542 -31.791,-160.958c13,-61.167 47.5,-114.209 103.708,-159.042c55.917,-44.833 115.833,-67.25 179.583,-67.25l-0.083,0Zm114.958,559.542l-266.5,1253.54l-470.25,0l266.5,-1253.54l470.25,-0Z" style="fill:#a50202;fill-rule:nonzero;"/><path d="M8383.38,96.833l-102.167,480.292l211.25,0l-105.583,496.667l-211.25,-0c-21.208,99.791 -20.083,168.541 3.333,206.25c23.417,37.708 77.042,56.583 160.875,56.583l-104.958,494.083c-24.625,0.875 -42.625,1.25 -54.375,1.25c-106.417,0 -201.542,-24.708 -285.458,-74.166c-83.709,-49.417 -145.125,-116.5 -184.125,-201.125c-49.167,-108.125 -54.667,-251.459 -16.75,-430.042l218.958,-1029.75l470.25,0l0,-0.042Z" style="fill:#a50202;fill-rule:nonzero;"/><path d="M8579.92,2362.58l86.875,-408.708c57.958,26.792 110.958,40.25 158.666,40.25c152.625,0 269.709,-85.958 351.5,-257.708c-92.458,48.583 -178.041,72.916 -256.916,72.916c-116.5,0 -203.292,-43.416 -260.25,-130.166c-57.042,-86.75 -71.25,-197.167 -42.792,-331.292l167.625,-788.375l470.25,-0l-143.208,673.958c-15.917,74.625 7.125,111.875 69.208,111.875c62.083,0 98,-41.041 115.417,-123.166l140.875,-662.625l470.25,-0l-237.875,1119.08c-44.292,208.708 -138.75,377.208 -283.417,505.458c-172.458,152.5 -358,228.75 -556.667,228.75c-87.083,0 -170.416,-16.791 -249.541,-50.208l-0,-0.042Z" style="fill:#a50202;fill-rule:nonzero;"/></g></svg>