<?xml version="1.0" encoding="UTF-8"?>
<svg id="Outline" xmlns="http://www.w3.org/2000/svg" xmlns:xlink="http://www.w3.org/1999/xlink" version="1.1" viewBox="0 0 32 32">
  <!-- Generator: Adobe Illustrator 29.2.1, SVG Export Plug-In . SVG Version: 2.1.0 Build 116)  -->
  <defs>
    <style>
      .st0 {
        fill: #fff;
      }
    </style>
  </defs>
  <path class="st0" d="M16,3.2c-7,0-12.8,5.7-12.8,12.8s5.7,12.8,12.8,12.8,5-.8,7.1-2.1c.7-.5,1.1-1.2,1.2-2,0-.8-.2-1.5-.7-2.1,0-.2.2-.5.2-.7v-2.7c.1-.4-.1-.7-.5-.8l-3.6-.8c-.3,0-.5,0-.7.2l-1.1,1.1c-2.1-1-3.7-2.7-4.8-4.8l1.1-1.1c.2-.2.3-.4.2-.7l-.8-3.6c0-.4-.4-.6-.8-.6h-2.7c-1.1.1-2,1.1-2,2.2.4,7.4,6,13,13.4,13.4.3,0,.6,0,.9-.2.2.2.3.5.2.9,0,.4-.2.7-.5.9-1.8,1.2-4,1.9-6.2,1.9-6.2,0-11.2-5-11.2-11.2s5-11.2,11.2-11.2,11.2,5,11.2,11.2-.5,4-1.5,5.7c-.2.4,0,.8.3,1,.4.2.8,0,1-.3,1.1-2,1.8-4.2,1.8-6.5,0-7-5.7-12.8-12.8-12.8ZM9.7,10.3c0-.3.3-.5.5-.6,0,0,2,0,2,0l.6,2.6-1.2,1.2c-.2.2-.3.5-.2.8,1.2,2.8,3.4,5,6.2,6.2.3.1.6,0,.8-.2l1.2-1.2,2.6.6v2c0,.3-.3.6-.6.5-6.6-.3-11.6-5.4-12-12Z"/>
</svg>