<?xml version="1.0" encoding="UTF-8"?>
<svg id="Ebene_2" data-name="Ebene 2" xmlns="http://www.w3.org/2000/svg" viewBox="0 0 2377.79 579.08">
  <defs>
    <style>
      .cls-1 {
        fill: #fff;
      }
    </style>
  </defs>
  <g id="Pfade">
    <path class="cls-1" d="M412.81,435.14h-112.86l34.51-162.35c2.65-12.46,3.18-21.11,1.6-25.94-1.59-4.83-5.81-7.24-12.65-7.24-12.67,0-21.38,11.17-26.13,33.5l-34.45,162.04h-112.86l34.51-162.35c2.65-12.46,3.14-21.11,1.44-25.94-1.68-4.83-5.95-7.24-12.79-7.24-12.48,0-21.08,11.17-25.83,33.5l-34.45,162.04H0l39.38-185.28c7.19-33.8,24.65-62.52,52.42-86.15,27.76-23.64,57.82-35.46,90.22-35.46s60.37,14.09,80.94,42.25c35.56-28.16,68.13-42.25,97.7-42.25,37.62,0,64.88,13.69,81.8,41.04,13.38,21.32,15.72,52.41,7.04,93.25l-36.69,172.6h0Z"/>
    <path class="cls-1" d="M677.6,239.3c-12.07,0-23.25,4.38-33.57,13.13-10.31,8.75-16.81,19.46-19.51,32.14-2.64,12.47-.64,23.13,6.02,31.98,6.67,8.86,15.94,13.29,27.81,13.29s23.32-4.43,33.75-13.29c10.44-8.85,16.99-19.51,19.63-31.98,2.7-12.68.75-23.39-5.84-32.14-6.59-8.75-16.03-13.13-28.3-13.13h0ZM704.29,127.95c42.66,0,75.95,15.34,99.92,46.02,23.94,30.68,31.37,67.44,22.27,110.29-9.24,43.46-32.56,80.48-69.92,111.05-37.38,30.58-77.91,45.87-121.56,45.87s-77.72-15.34-102.17-46.01c-24.46-30.67-32.09-67.64-22.9-110.91,9.36-44.06,32.73-81.11,70.11-111.2,37.36-30.07,78.79-45.1,124.26-45.1h0Z"/>
    <path class="cls-1" d="M1052.81,23.24l-52.41,246.54c-8.5,40.03,1.62,60.05,30.39,60.05,12.27,0,23.57-4.18,33.9-12.53,10.31-8.34,16.74-18.44,19.26-30.32,2.61-12.27.77-22.59-5.49-30.93-6.27-8.34-15.25-12.52-26.91-12.52-8.25,0-18.47,3.62-30.67,10.86l26.42-124.33c13.54-1.21,23.73-1.81,30.57-1.81,42.44,0,75.57,15.29,99.35,45.87,23.76,30.58,31.07,67.39,21.92,110.45-9.36,44.06-32.64,81.16-69.83,111.34-37.2,30.18-78.23,45.26-123.08,45.26-22.52,0-43.45-4.94-62.8-14.77-19.31-9.87-34.15-23.15-44.48-39.83-17.99-28.98-22.08-66.5-12.29-112.58l53.31-250.76h112.86Z"/>
    <path class="cls-1" d="M1383.59,0c15.3,0,27.39,5.38,36.25,16.14,8.91,10.77,11.77,23.49,8.64,38.17-3.32,15.7-11.36,28.57-24.05,38.63-12.71,10.06-27.3,15.09-43.79,15.09s-28.95-5.02-37.4-15.09c-8.4-10.06-10.94-22.93-7.62-38.63,3.12-14.68,11.41-27.41,24.87-38.17,13.44-10.76,27.83-16.14,43.1-16.14h0ZM1411.17,134.29l-63.94,300.85h-112.86l63.94-300.85h112.86Z"/>
    <polygon class="cls-1" points="1631.32 23.24 1543.77 435.14 1430.91 435.14 1518.46 23.24 1631.32 23.24 1631.32 23.24"/>
    <path class="cls-1" d="M1776.66,0c15.27,0,27.37,5.38,36.25,16.14,8.88,10.77,11.75,23.49,8.63,38.17-3.34,15.7-11.36,28.57-24.03,38.63-12.73,10.06-27.32,15.09-43.81,15.09s-28.95-5.02-37.38-15.09c-8.41-10.06-10.97-22.93-7.63-38.63,3.12-14.68,11.4-27.41,24.89-38.17,13.42-10.76,27.8-16.14,43.1-16.14h0ZM1804.25,134.29l-63.96,300.85h-112.86l63.96-300.85h112.86Z"/>
    <path class="cls-1" d="M2012.01,23.24l-24.52,115.27h50.7l-25.34,119.2h-50.7c-5.09,23.95-4.82,40.45.8,49.5,5.62,9.05,18.49,13.58,38.61,13.58l-25.19,118.58c-5.91.21-10.23.3-13.05.3-25.54,0-48.37-5.93-68.51-17.8-20.09-11.86-34.83-27.96-44.19-48.27-11.8-25.95-13.12-60.35-4.02-103.21l52.55-247.14h112.86Z"/>
    <path class="cls-1" d="M2059.18,567.02l20.85-98.09c13.91,6.43,26.63,9.66,38.08,9.66,36.63,0,64.73-20.63,84.36-61.85-22.19,11.66-42.73,17.5-61.66,17.5-27.96,0-48.79-10.42-62.46-31.24-13.69-20.82-17.1-47.32-10.27-79.51l40.23-189.21h112.86l-34.37,161.75c-3.82,17.91,1.71,26.85,16.61,26.85s23.52-9.85,27.7-29.56l33.81-159.03h112.86l-57.09,268.58c-10.63,50.09-33.3,90.53-68.02,121.31-41.39,36.6-85.92,54.9-133.6,54.9-20.9,0-40.9-4.03-59.89-12.05h0Z"/>
  </g>
</svg>